solid OpenSCAD_Model
  facet normal 0.915175 0.0926223 -0.39227
    outer loop
      vertex 8.13124 -2.08353 25.4975
      vertex 7.64509 -1.60579 24.4761
      vertex 7.63684 -1.46995 24.4889
    endloop
  endfacet
  facet normal 0.915175 0.0926221 -0.39227
    outer loop
      vertex 8.13124 -2.08353 25.4975
      vertex 7.6445 -1.88583 24.4086
      vertex 7.64509 -1.60579 24.4761
    endloop
  endfacet
  facet normal 0.915175 0.0926263 -0.392269
    outer loop
      vertex 8.13087 -2.25965 25.455
      vertex 7.6445 -1.88583 24.4086
      vertex 8.13124 -2.08353 25.4975
    endloop
  endfacet
  facet normal 0.915175 0.0926237 -0.39227
    outer loop
      vertex 8.13087 -2.25965 25.455
      vertex 7.64186 -3.15957 24.1017
      vertex 7.6445 -1.88583 24.4086
    endloop
  endfacet
  facet normal 0.915175 0.0926229 -0.39227
    outer loop
      vertex 8.12737 -3.94628 25.0486
      vertex 7.64186 -3.15957 24.1017
      vertex 8.13087 -2.25965 25.455
    endloop
  endfacet
  facet normal 0.915175 0.0926222 -0.39227
    outer loop
      vertex 7.64186 -3.15957 24.1017
      vertex 8.12737 -3.94628 25.0486
      vertex 7.63451 -3.62964 23.9735
    endloop
  endfacet
  facet normal 0.915175 0.0926233 -0.39227
    outer loop
      vertex 7.63451 -3.62964 23.9735
      vertex 8.12737 -3.94628 25.0486
      vertex 7.62306 -3.76227 23.9155
    endloop
  endfacet
  facet normal 0.915175 0.0926219 -0.39227
    outer loop
      vertex 8.08546 -4.55775 24.8065
      vertex 7.62306 -3.76227 23.9155
      vertex 8.12737 -3.94628 25.0486
    endloop
  endfacet
  facet normal 0.915175 0.0926229 -0.392269
    outer loop
      vertex 8.08546 -4.55775 24.8065
      vertex 7.46958 -5.5404 23.1376
      vertex 7.62306 -3.76227 23.9155
    endloop
  endfacet
  facet normal 0.915175 0.0926229 -0.392269
    outer loop
      vertex 7.98361 -5.7378 24.2902
      vertex 7.46958 -5.5404 23.1376
      vertex 8.08546 -4.55775 24.8065
    endloop
  endfacet
  facet normal 0.915175 0.0926223 -0.39227
    outer loop
      vertex 7.957 -6.04615 24.1553
      vertex 7.46958 -5.5404 23.1376
      vertex 7.98361 -5.7378 24.2902
    endloop
  endfacet
  facet normal 0.915175 0.0926228 -0.392269
    outer loop
      vertex 7.83157 -6.80255 23.6841
      vertex 7.46958 -5.5404 23.1376
      vertex 7.957 -6.04615 24.1553
    endloop
  endfacet
  facet normal 0.915175 0.0926226 -0.39227
    outer loop
      vertex 7.46958 -5.5404 23.1376
      vertex 7.83157 -6.80255 23.6841
      vertex 7.35779 -6.21456 22.7176
    endloop
  endfacet
  facet normal -0.912631 -0.07476 0.40189
    outer loop
      vertex 5.65299 -5.08198 24.6106
      vertex 6.13895 -5.45535 25.6447
      vertex 5.67108 -4.87469 24.6902
    endloop
  endfacet
  facet normal -0.912632 -0.074765 0.401888
    outer loop
      vertex 5.62972 -5.34878 24.5081
      vertex 6.13895 -5.45535 25.6447
      vertex 5.65299 -5.08198 24.6106
    endloop
  endfacet
  facet normal -0.912632 -0.0747628 0.401888
    outer loop
      vertex 5.62972 -5.34878 24.5081
      vertex 6.10554 -5.83827 25.4976
      vertex 6.13895 -5.45535 25.6447
    endloop
  endfacet
  facet normal -0.912632 -0.0747625 0.401888
    outer loop
      vertex 5.51729 -6.0376 24.1246
      vertex 6.10554 -5.83827 25.4976
      vertex 5.62972 -5.34878 24.5081
    endloop
  endfacet
  facet normal -0.912632 -0.0747626 0.401888
    outer loop
      vertex 6.10554 -5.83827 25.4976
      vertex 5.51729 -6.0376 24.1246
      vertex 5.9794 -6.61111 25.0673
    endloop
  endfacet
  facet normal -0.353555 -0.866025 -0.353553
    outer loop
      vertex 3.70127 -7.67286 23.8295
      vertex 4.72556 -8.36688 24.5052
      vertex 4.16914 -8.25352 24.7839
    endloop
  endfacet
  facet normal -0.353554 -0.866025 -0.353554
    outer loop
      vertex 4.72556 -8.36688 24.5052
      vertex 3.70127 -7.67286 23.8295
      vertex 4.25769 -7.78622 23.5507
    endloop
  endfacet
  facet normal -0.353553 -0.866025 -0.353554
    outer loop
      vertex 4.72556 -8.36688 24.5052
      vertex 4.25769 -7.78622 23.5507
      vertex 5.61729 -8.48009 23.8907
    endloop
  endfacet
  facet normal -0.353554 -0.866025 -0.353553
    outer loop
      vertex 4.984 -7.87843 23.0503
      vertex 5.61729 -8.48009 23.8907
      vertex 4.25769 -7.78622 23.5507
    endloop
  endfacet
  facet normal -0.353553 -0.866025 -0.353554
    outer loop
      vertex 5.61729 -8.48009 23.8907
      vertex 4.984 -7.87843 23.0503
      vertex 5.14942 -7.89944 22.9363
    endloop
  endfacet
  facet normal 0.353553 0.866025 0.353554
    outer loop
      vertex 5.0774 -5.98175 24.4277
      vertex 5.53951 -6.55526 25.3704
      vertex 5.9794 -6.61111 25.0673
    endloop
  endfacet
  facet normal 0.353553 0.866025 0.353554
    outer loop
      vertex 4.98799 -5.96354 24.4725
      vertex 5.53951 -6.55526 25.3704
      vertex 5.0774 -5.98175 24.4277
    endloop
  endfacet
  facet normal 0.353558 0.866025 0.35355
    outer loop
      vertex 5.53951 -6.55526 25.3704
      vertex 4.98799 -5.96354 24.4725
      vertex 5.4501 -6.53705 25.4152
    endloop
  endfacet
  facet normal 0.353554 0.866025 0.353553
    outer loop
      vertex 5.0774 -5.98175 24.4277
      vertex 5.9794 -6.61111 25.0673
      vertex 5.51729 -6.0376 24.1246
    endloop
  endfacet
  facet normal -0.73659 0.353884 0.576369
    outer loop
      vertex 2.35135 -6.39703 25.1282
      vertex 3.46769 -6.12471 26.3876
      vertex 2.99391 -5.53672 25.4211
    endloop
  endfacet
  facet normal -0.73659 0.353884 0.576369
    outer loop
      vertex 3.46769 -6.12471 26.3876
      vertex 2.35135 -6.39703 25.1282
      vertex 2.82513 -6.98501 26.0947
    endloop
  endfacet
  facet normal 0.915175 0.0926229 -0.39227
    outer loop
      vertex 7.67576 -7.74218 23.0987
      vertex 7.35779 -6.21456 22.7176
      vertex 7.83157 -6.80255 23.6841
    endloop
  endfacet
  facet normal 0.915175 0.0926228 -0.39227
    outer loop
      vertex 7.35779 -6.21456 22.7176
      vertex 7.67576 -7.74218 23.0987
      vertex 7.20198 -7.1542 22.1322
    endloop
  endfacet
  facet normal -0.736592 0.353881 0.576369
    outer loop
      vertex 2.24025 -6.54577 25.0775
      vertex 2.82513 -6.98501 26.0947
      vertex 2.35135 -6.39703 25.1282
    endloop
  endfacet
  facet normal -0.73659 0.353884 0.576369
    outer loop
      vertex 2.24025 -6.54577 25.0775
      vertex 2.65779 -7.20905 26.0184
      vertex 2.82513 -6.98501 26.0947
    endloop
  endfacet
  facet normal -0.73659 0.353883 0.576369
    outer loop
      vertex 2.18766 -7.72322 25.7332
      vertex 2.24025 -6.54577 25.0775
      vertex 1.54692 -7.30405 24.657
    endloop
  endfacet
  facet normal -0.736591 0.353883 0.576368
    outer loop
      vertex 2.24025 -6.54577 25.0775
      vertex 2.18766 -7.72322 25.7332
      vertex 2.65779 -7.20905 26.0184
    endloop
  endfacet
  facet normal -0.73659 0.353883 0.576369
    outer loop
      vertex 0.914544 -7.99567 24.2735
      vertex 2.18766 -7.72322 25.7332
      vertex 1.54692 -7.30405 24.657
    endloop
  endfacet
  facet normal -0.73659 0.353883 0.576369
    outer loop
      vertex 1.20933 -8.7932 25.1399
      vertex 0.914544 -7.99567 24.2735
      vertex 0.518122 -8.34514 23.9815
    endloop
  endfacet
  facet normal -0.73659 0.353883 0.576369
    outer loop
      vertex 0.811787 -9.14367 24.847
      vertex 0.518122 -8.34514 23.9815
      vertex 0.31363 -8.52542 23.8308
    endloop
  endfacet
  facet normal -0.73659 0.353883 0.576369
    outer loop
      vertex 0.914544 -7.99567 24.2735
      vertex 1.20933 -8.7932 25.1399
      vertex 2.18766 -7.72322 25.7332
    endloop
  endfacet
  facet normal -0.73659 0.353884 0.576369
    outer loop
      vertex 0.518122 -8.34514 23.9815
      vertex 0.811787 -9.14367 24.847
      vertex 1.20933 -8.7932 25.1399
    endloop
  endfacet
  facet normal -0.851931 0.142032 0.504025
    outer loop
      vertex 0.287697 -9.9113 24.1775
      vertex 0.31363 -8.52542 23.8308
      vertex -0.210461 -9.29305 23.1613
    endloop
  endfacet
  facet normal -0.851931 0.142031 0.504024
    outer loop
      vertex 0.31363 -8.52542 23.8308
      vertex 0.679677 -9.33717 24.6783
      vertex 0.811787 -9.14367 24.847
    endloop
  endfacet
  facet normal -0.851931 0.142032 0.504025
    outer loop
      vertex 0.31363 -8.52542 23.8308
      vertex 0.287697 -9.9113 24.1775
      vertex 0.679677 -9.33717 24.6783
    endloop
  endfacet
  facet normal -0.353553 -0.866025 -0.353553
    outer loop
      vertex 1.20912 -9.67944 22.6881
      vertex 1.53978 -10.2521 23.7602
      vertex 1.09011 -10.1297 23.9101
    endloop
  endfacet
  facet normal -0.353553 -0.866026 -0.353553
    outer loop
      vertex -0.210461 -9.29305 23.1613
      vertex 1.09011 -10.1297 23.9101
      vertex 0.287697 -9.9113 24.1775
    endloop
  endfacet
  facet normal -0.353552 -0.866026 -0.353554
    outer loop
      vertex 1.22751 -9.68445 22.682
      vertex 1.53978 -10.2521 23.7602
      vertex 1.20912 -9.67944 22.6881
    endloop
  endfacet
  facet normal -0.353553 -0.866026 -0.353553
    outer loop
      vertex 1.09011 -10.1297 23.9101
      vertex -0.210461 -9.29305 23.1613
      vertex 1.20912 -9.67944 22.6881
    endloop
  endfacet
  facet normal -0.353573 -0.866021 -0.353545
    outer loop
      vertex 1.24511 -9.68804 22.6732
      vertex 1.53978 -10.2521 23.7602
      vertex 1.22751 -9.68445 22.682
    endloop
  endfacet
  facet normal -0.353554 -0.866025 -0.353553
    outer loop
      vertex 1.53978 -10.2521 23.7602
      vertex 1.24511 -9.68804 22.6732
      vertex 1.97037 -10.3398 23.5445
    endloop
  endfacet
  facet normal -0.353553 -0.866025 -0.353554
    outer loop
      vertex 1.67444 -9.7755 22.4581
      vertex 1.97037 -10.3398 23.5445
      vertex 1.24511 -9.68804 22.6732
    endloop
  endfacet
  facet normal -0.353552 -0.866026 -0.353554
    outer loop
      vertex 1.97037 -10.3398 23.5445
      vertex 1.67444 -9.7755 22.4581
      vertex 2.16033 -10.3785 23.4493
    endloop
  endfacet
  facet normal 0.743936 -0.343131 -0.573429
    outer loop
      vertex 3.78319 -8.71081 24.5568
      vertex 3.70127 -7.67286 23.8295
      vertex 4.16914 -8.25352 24.7839
    endloop
  endfacet
  facet normal 0.743937 -0.34313 -0.573428
    outer loop
      vertex 3.70127 -7.67286 23.8295
      vertex 3.78319 -8.71081 24.5568
      vertex 3.0035 -8.49959 23.4189
    endloop
  endfacet
  facet normal 0.743937 -0.343129 -0.573428
    outer loop
      vertex 3.29492 -9.28931 24.2695
      vertex 3.0035 -8.49959 23.4189
      vertex 3.78319 -8.71081 24.5568
    endloop
  endfacet
  facet normal 0.743936 -0.34313 -0.573429
    outer loop
      vertex 3.29492 -9.28931 24.2695
      vertex 2.14059 -9.32799 22.7951
      vertex 3.0035 -8.49959 23.4189
    endloop
  endfacet
  facet normal 0.743936 -0.343131 -0.573428
    outer loop
      vertex 2.36659 -10.1805 23.5984
      vertex 2.14059 -9.32799 22.7951
      vertex 3.29492 -9.28931 24.2695
    endloop
  endfacet
  facet normal 0.743936 -0.343131 -0.573428
    outer loop
      vertex 2.14059 -9.32799 22.7951
      vertex 2.36659 -10.1805 23.5984
      vertex 1.67444 -9.7755 22.4581
    endloop
  endfacet
  facet normal 0.743938 -0.343128 -0.573428
    outer loop
      vertex 1.67444 -9.7755 22.4581
      vertex 2.36659 -10.1805 23.5984
      vertex 2.16033 -10.3785 23.4493
    endloop
  endfacet
  facet normal 0.85193 -0.142032 -0.504025
    outer loop
      vertex 6.50581 -10.8914 20.36
      vertex 6.52142 -9.49267 19.9923
      vertex 7.0299 -10.1237 21.0296
    endloop
  endfacet
  facet normal 0.851931 -0.142032 -0.504025
    outer loop
      vertex 6.52142 -9.49267 19.9923
      vertex 6.50581 -10.8914 20.36
      vertex 5.98999 -10.2512 19.3078
    endloop
  endfacet
  facet normal 0.915175 0.0926215 -0.392271
    outer loop
      vertex 7.67576 -7.74218 23.0987
      vertex 7.17504 -7.31666 22.031
      vertex 7.20198 -7.1542 22.1322
    endloop
  endfacet
  facet normal 0.915175 0.0926231 -0.39227
    outer loop
      vertex 7.63518 -7.98688 22.9463
      vertex 7.17504 -7.31666 22.031
      vertex 7.67576 -7.74218 23.0987
    endloop
  endfacet
  facet normal 0.915175 0.0926242 -0.392269
    outer loop
      vertex 7.17504 -7.31666 22.031
      vertex 7.63518 -7.98688 22.9463
      vertex 7.04416 -7.81833 21.6072
    endloop
  endfacet
  facet normal 0.915175 0.0926232 -0.39227
    outer loop
      vertex 7.31883 -9.19947 21.9219
      vertex 7.04416 -7.81833 21.6072
      vertex 7.63518 -7.98688 22.9463
    endloop
  endfacet
  facet normal 0.915175 0.0926231 -0.39227
    outer loop
      vertex 7.04416 -7.81833 21.6072
      vertex 7.31883 -9.19947 21.9219
      vertex 6.75814 -8.91469 20.681
    endloop
  endfacet
  facet normal 0.915175 0.0926228 -0.39227
    outer loop
      vertex 7.17968 -9.73287 21.4713
      vertex 6.75814 -8.91469 20.681
      vertex 7.31883 -9.19947 21.9219
    endloop
  endfacet
  facet normal 0.915175 0.0926234 -0.392269
    outer loop
      vertex 6.75814 -8.91469 20.681
      vertex 7.17968 -9.73287 21.4713
      vertex 6.72554 -8.99976 20.5849
    endloop
  endfacet
  facet normal 0.915175 0.092623 -0.39227
    outer loop
      vertex 7.08832 -9.97128 21.2019
      vertex 6.72554 -8.99976 20.5849
      vertex 7.17968 -9.73287 21.4713
    endloop
  endfacet
  facet normal 0.915175 0.0926233 -0.392269
    outer loop
      vertex 6.72554 -8.99976 20.5849
      vertex 7.08832 -9.97128 21.2019
      vertex 6.64349 -9.21386 20.3429
    endloop
  endfacet
  facet normal 0.915176 0.0926247 -0.392268
    outer loop
      vertex 7.0299 -10.1237 21.0296
      vertex 6.64349 -9.21386 20.3429
      vertex 7.08832 -9.97128 21.2019
    endloop
  endfacet
  facet normal 0.915175 0.0926232 -0.39227
    outer loop
      vertex 6.64349 -9.21386 20.3429
      vertex 7.0299 -10.1237 21.0296
      vertex 6.52142 -9.49267 19.9923
    endloop
  endfacet
  facet normal -0.353551 -0.866026 -0.353555
    outer loop
      vertex 4.41482 -10.2161 20.7969
      vertex 5.06819 -10.8403 21.6727
      vertex 4.90071 -10.8191 21.7881
    endloop
  endfacet
  facet normal -0.353529 -0.866028 -0.353572
    outer loop
      vertex 5.06819 -10.8403 21.6727
      vertex 4.41482 -10.2161 20.7969
      vertex 4.42064 -10.2168 20.7929
    endloop
  endfacet
  facet normal -0.353576 -0.866024 -0.353535
    outer loop
      vertex 5.06819 -10.8403 21.6727
      vertex 4.42064 -10.2168 20.7929
      vertex 4.43542 -10.2173 20.7794
    endloop
  endfacet
  facet normal -0.353553 -0.866026 -0.353553
    outer loop
      vertex 5.06819 -10.8403 21.6727
      vertex 4.43542 -10.2173 20.7794
      vertex 5.42957 -10.8532 21.3427
    endloop
  endfacet
  facet normal -0.353553 -0.866026 -0.353553
    outer loop
      vertex 5.80838 -10.266 19.5257
      vertex 5.42957 -10.8532 21.3427
      vertex 4.43542 -10.2173 20.7794
    endloop
  endfacet
  facet normal -0.353553 -0.866026 -0.353553
    outer loop
      vertex 5.42957 -10.8532 21.3427
      vertex 5.80838 -10.266 19.5257
      vertex 6.50581 -10.8914 20.36
    endloop
  endfacet
  facet normal -0.353553 -0.866026 -0.353554
    outer loop
      vertex 6.50581 -10.8914 20.36
      vertex 5.80838 -10.266 19.5257
      vertex 5.98999 -10.2512 19.3078
    endloop
  endfacet
  facet normal -0.913313 -0.0792959 0.399465
    outer loop
      vertex 5.56752 -8.6811 23.7371
      vertex 5.14942 -7.89944 22.9363
      vertex 5.09307 -8.12703 22.7623
    endloop
  endfacet
  facet normal -0.913312 -0.0792948 0.399465
    outer loop
      vertex 5.14942 -7.89944 22.9363
      vertex 5.56752 -8.6811 23.7371
      vertex 5.61729 -8.48009 23.8907
    endloop
  endfacet
  facet normal -0.913313 -0.0792962 0.399464
    outer loop
      vertex 4.9253 -8.8046 22.2442
      vertex 5.56752 -8.6811 23.7371
      vertex 5.09307 -8.12703 22.7623
    endloop
  endfacet
  facet normal -0.913313 -0.0792962 0.399464
    outer loop
      vertex 4.9253 -8.8046 22.2442
      vertex 5.3365 -9.61415 23.0236
      vertex 5.56752 -8.6811 23.7371
    endloop
  endfacet
  facet normal -0.913313 -0.079296 0.399465
    outer loop
      vertex 4.90071 -10.8191 21.7881
      vertex 4.9253 -8.8046 22.2442
      vertex 4.41482 -10.2161 20.7969
    endloop
  endfacet
  facet normal -0.913313 -0.079296 0.399465
    outer loop
      vertex 4.9253 -8.8046 22.2442
      vertex 4.90071 -10.8191 21.7881
      vertex 5.3365 -9.61415 23.0236
    endloop
  endfacet
  facet normal -0.736588 0.353887 0.57637
    outer loop
      vertex 5.3882 -1.24322 25.8448
      vertex 5.92844 -1.72991 26.8341
      vertex 5.43404 -1.11633 25.8255
    endloop
  endfacet
  facet normal -0.73659 0.353883 0.576369
    outer loop
      vertex 5.10933 -1.84016 25.855
      vertex 5.92844 -1.72991 26.8341
      vertex 5.3882 -1.24322 25.8448
    endloop
  endfacet
  facet normal -0.736591 0.353882 0.576369
    outer loop
      vertex 5.10933 -1.84016 25.855
      vertex 5.69602 -2.22742 26.8425
      vertex 5.92844 -1.72991 26.8341
    endloop
  endfacet
  facet normal -0.73659 0.353883 0.57637
    outer loop
      vertex 4.50684 -3.12979 25.8768
      vertex 5.69602 -2.22742 26.8425
      vertex 5.10933 -1.84016 25.855
    endloop
  endfacet
  facet normal -0.736591 0.353882 0.576369
    outer loop
      vertex 5.12039 -3.45956 26.8634
      vertex 4.50684 -3.12979 25.8768
      vertex 4.36006 -3.38258 25.8444
    endloop
  endfacet
  facet normal -0.73659 0.353883 0.576369
    outer loop
      vertex 4.50684 -3.12979 25.8768
      vertex 5.12039 -3.45956 26.8634
      vertex 5.69602 -2.22742 26.8425
    endloop
  endfacet
  facet normal -0.73659 0.353883 0.576369
    outer loop
      vertex 3.72678 -4.47321 25.7047
      vertex 5.12039 -3.45956 26.8634
      vertex 4.36006 -3.38258 25.8444
    endloop
  endfacet
  facet normal -0.73659 0.353883 0.576369
    outer loop
      vertex 4.04366 -5.3139 26.6259
      vertex 3.72678 -4.47321 25.7047
      vertex 3.45493 -4.91948 25.6313
    endloop
  endfacet
  facet normal -0.73659 0.353883 0.576369
    outer loop
      vertex 3.72678 -4.47321 25.7047
      vertex 4.04366 -5.3139 26.6259
      vertex 5.12039 -3.45956 26.8634
    endloop
  endfacet
  facet normal -0.736592 0.353879 0.576369
    outer loop
      vertex 3.45493 -4.91948 25.6313
      vertex 3.97915 -5.425 26.6117
      vertex 4.04366 -5.3139 26.6259
    endloop
  endfacet
  facet normal -0.73659 0.353883 0.57637
    outer loop
      vertex 2.99391 -5.53672 25.4211
      vertex 3.97915 -5.425 26.6117
      vertex 3.45493 -4.91948 25.6313
    endloop
  endfacet
  facet normal -0.73659 0.353883 0.57637
    outer loop
      vertex 2.99391 -5.53672 25.4211
      vertex 3.77005 -5.71988 26.5255
      vertex 3.97915 -5.425 26.6117
    endloop
  endfacet
  facet normal -0.73659 0.353884 0.576369
    outer loop
      vertex 3.77005 -5.71988 26.5255
      vertex 2.99391 -5.53672 25.4211
      vertex 3.46769 -6.12471 26.3876
    endloop
  endfacet
  facet normal 0.739837 -0.349162 -0.575088
    outer loop
      vertex 6.13895 -5.45535 25.6447
      vertex 5.49029 -5.20632 24.659
      vertex 5.67108 -4.87469 24.6902
    endloop
  endfacet
  facet normal 0.739839 -0.349158 -0.575088
    outer loop
      vertex 6.13895 -5.45535 25.6447
      vertex 5.42668 -5.323 24.648
      vertex 5.49029 -5.20632 24.659
    endloop
  endfacet
  facet normal 0.739838 -0.349161 -0.575088
    outer loop
      vertex 5.94155 -5.81745 25.6106
      vertex 5.42668 -5.323 24.648
      vertex 6.13895 -5.45535 25.6447
    endloop
  endfacet
  facet normal 0.739839 -0.349159 -0.575087
    outer loop
      vertex 5.42668 -5.323 24.648
      vertex 5.94155 -5.81745 25.6106
      vertex 5.21971 -5.63316 24.57
    endloop
  endfacet
  facet normal 0.739839 -0.349159 -0.575087
    outer loop
      vertex 5.68182 -6.20667 25.5127
      vertex 5.21971 -5.63316 24.57
      vertex 5.94155 -5.81745 25.6106
    endloop
  endfacet
  facet normal 0.739838 -0.349161 -0.575088
    outer loop
      vertex 5.21971 -5.63316 24.57
      vertex 5.68182 -6.20667 25.5127
      vertex 4.98799 -5.96354 24.4725
    endloop
  endfacet
  facet normal 0.739838 -0.349161 -0.575088
    outer loop
      vertex 4.98799 -5.96354 24.4725
      vertex 5.68182 -6.20667 25.5127
      vertex 5.4501 -6.53705 25.4152
    endloop
  endfacet
  facet normal 0.353554 0.866025 0.353553
    outer loop
      vertex 7.10905 -0.218432 24.9155
      vertex 7.08021 -0.79259 26.3507
      vertex 8.08303 -0.919909 25.6598
    endloop
  endfacet
  facet normal 0.353554 0.866025 0.353553
    outer loop
      vertex 5.97359 -0.029131 25.5873
      vertex 7.08021 -0.79259 26.3507
      vertex 6.56158 -0.148925 25.2927
    endloop
  endfacet
  facet normal 0.353554 0.866025 0.353553
    outer loop
      vertex 6.35554 -0.644948 26.7138
      vertex 5.97359 -0.029131 25.5873
      vertex 5.8369 -0.00128245 25.6557
    endloop
  endfacet
  facet normal 0.353553 0.866025 0.353554
    outer loop
      vertex 7.08021 -0.79259 26.3507
      vertex 5.97359 -0.029131 25.5873
      vertex 6.35554 -0.644948 26.7138
    endloop
  endfacet
  facet normal 0.353553 0.866026 0.353553
    outer loop
      vertex 7.08021 -0.79259 26.3507
      vertex 7.10905 -0.218432 24.9155
      vertex 6.56158 -0.148925 25.2927
    endloop
  endfacet
  facet normal 0.353553 0.866025 0.353553
    outer loop
      vertex 7.10905 -0.218432 24.9155
      vertex 8.08303 -0.919909 25.6598
      vertex 7.56439 -0.276244 24.6018
    endloop
  endfacet
  facet normal -0.736592 0.35388 0.576369
    outer loop
      vertex 5.76013 -0.213765 25.6881
      vertex 6.35554 -0.644948 26.7138
      vertex 5.8369 -0.00128245 25.6557
    endloop
  endfacet
  facet normal -0.736591 0.353883 0.576369
    outer loop
      vertex 5.43404 -1.11633 25.8255
      vertex 6.35554 -0.644948 26.7138
      vertex 5.76013 -0.213765 25.6881
    endloop
  endfacet
  facet normal -0.736591 0.353883 0.576369
    outer loop
      vertex 5.43404 -1.11633 25.8255
      vertex 6.08335 -1.39831 26.8285
      vertex 6.35554 -0.644948 26.7138
    endloop
  endfacet
  facet normal -0.73659 0.353884 0.576369
    outer loop
      vertex 6.08335 -1.39831 26.8285
      vertex 5.43404 -1.11633 25.8255
      vertex 5.92844 -1.72991 26.8341
    endloop
  endfacet
  facet normal 0.915175 0.0926222 -0.39227
    outer loop
      vertex 8.08303 -0.919909 25.6598
      vertex 7.61489 -1.10824 24.5231
      vertex 7.56439 -0.276244 24.6018
    endloop
  endfacet
  facet normal 0.915175 0.0926234 -0.39227
    outer loop
      vertex 8.13198 -1.72642 25.5835
      vertex 7.61489 -1.10824 24.5231
      vertex 8.08303 -0.919909 25.6598
    endloop
  endfacet
  facet normal 0.915175 0.0926228 -0.39227
    outer loop
      vertex 7.61489 -1.10824 24.5231
      vertex 8.13198 -1.72642 25.5835
      vertex 7.63684 -1.46995 24.4889
    endloop
  endfacet
  facet normal 0.915175 0.0926221 -0.39227
    outer loop
      vertex 7.63684 -1.46995 24.4889
      vertex 8.13198 -1.72642 25.5835
      vertex 8.13124 -2.08353 25.4975
    endloop
  endfacet
  facet normal 0.353553 0.866025 0.353554
    outer loop
      vertex 10.8341 -0.201591 21.1492
      vertex 11.8443 -0.854564 21.7384
      vertex 12.1565 -0.777558 21.2376
    endloop
  endfacet
  facet normal 0.353555 0.866026 0.353551
    outer loop
      vertex 11.8443 -0.854564 21.7384
      vertex 10.8341 -0.201591 21.1492
      vertex 10.7892 -0.212662 21.2212
    endloop
  endfacet
  facet normal 0.353553 0.866026 0.353553
    outer loop
      vertex 11.42 -0.0570596 20.2092
      vertex 12.1565 -0.777558 21.2376
      vertex 12.512 -0.689885 20.6674
    endloop
  endfacet
  facet normal 0.353553 0.866025 0.353553
    outer loop
      vertex 12.1565 -0.777558 21.2376
      vertex 11.42 -0.0570596 20.2092
      vertex 10.8341 -0.201591 21.1492
    endloop
  endfacet
  facet normal 0.353553 0.866026 0.353553
    outer loop
      vertex 12.9283 -0.476624 19.7287
      vertex 11.42 -0.0570596 20.2092
      vertex 12.512 -0.689885 20.6674
    endloop
  endfacet
  facet normal 0.353553 0.866025 0.353554
    outer loop
      vertex 12.9283 -0.476624 19.7287
      vertex 11.8635 0.170089 19.2094
      vertex 11.42 -0.0570596 20.2092
    endloop
  endfacet
  facet normal 0.353515 0.866015 0.353618
    outer loop
      vertex 11.8635 0.170089 19.2094
      vertex 12.9283 -0.476624 19.7287
      vertex 11.8644 0.170585 19.2072
    endloop
  endfacet
  facet normal 0.504025 0.142031 -0.851931
    outer loop
      vertex 12.9638 -1.26378 19.6185
      vertex 11.8434 -1.97438 18.8372
      vertex 11.923 -1.12706 19.0255
    endloop
  endfacet
  facet normal 0.504025 0.142032 -0.85193
    outer loop
      vertex 12.488 -4.55147 18.7889
      vertex 11.7371 -3.10499 18.5858
      vertex 11.8434 -1.97438 18.8372
    endloop
  endfacet
  facet normal 0.504024 0.142032 -0.851931
    outer loop
      vertex 12.488 -4.55147 18.7889
      vertex 11.5007 -4.08197 18.2831
      vertex 11.7371 -3.10499 18.5858
    endloop
  endfacet
  facet normal 0.504024 0.142033 -0.851931
    outer loop
      vertex 10.56 -6.75906 17.2802
      vertex 12.2602 -5.49299 18.4972
      vertex 11.4746 -7.41727 17.7116
    endloop
  endfacet
  facet normal 0.504025 0.142034 -0.85193
    outer loop
      vertex 12.488 -4.55147 18.7889
      vertex 11.279 -4.99786 17.9992
      vertex 11.5007 -4.08197 18.2831
    endloop
  endfacet
  facet normal 0.504024 0.142033 -0.851931
    outer loop
      vertex 10.0944 -7.52656 16.8768
      vertex 11.4746 -7.41727 17.7116
      vertex 10.996 -8.20623 17.2969
    endloop
  endfacet
  facet normal 0.504025 0.142031 -0.851931
    outer loop
      vertex 12.2602 -5.49299 18.4972
      vertex 10.56 -6.75906 17.2802
      vertex 11.279 -4.99786 17.9992
    endloop
  endfacet
  facet normal 0.504025 0.142031 -0.851931
    outer loop
      vertex 9.59779 -8.34523 16.4465
      vertex 10.996 -8.20623 17.2969
      vertex 10.4233 -9.1503 16.8007
    endloop
  endfacet
  facet normal 0.504024 0.142032 -0.851931
    outer loop
      vertex 11.4746 -7.41727 17.7116
      vertex 10.0944 -7.52656 16.8768
      vertex 10.56 -6.75906 17.2802
    endloop
  endfacet
  facet normal 0.504025 0.142031 -0.851931
    outer loop
      vertex 8.92228 -9.12952 15.9161
      vertex 10.4233 -9.1503 16.8007
      vertex 9.78714 -9.88889 16.3012
    endloop
  endfacet
  facet normal 0.504024 0.142034 -0.851931
    outer loop
      vertex 10.996 -8.20623 17.2969
      vertex 9.59779 -8.34523 16.4465
      vertex 10.0944 -7.52656 16.8768
    endloop
  endfacet
  facet normal 0.504025 0.142032 -0.85193
    outer loop
      vertex 8.92228 -9.12952 15.9161
      vertex 9.78714 -9.88889 16.3012
      vertex 9.42466 -10.3098 16.0165
    endloop
  endfacet
  facet normal 0.504025 0.142031 -0.851931
    outer loop
      vertex 10.4233 -9.1503 16.8007
      vertex 8.92228 -9.12952 15.9161
      vertex 9.59779 -8.34523 16.4465
    endloop
  endfacet
  facet normal 0.504025 0.142032 -0.851931
    outer loop
      vertex 8.92228 -9.12952 15.9161
      vertex 9.42466 -10.3098 16.0165
      vertex 8.42799 -9.70341 15.528
    endloop
  endfacet
  facet normal 0.504024 0.142033 -0.851931
    outer loop
      vertex 11.8434 -1.97438 18.8372
      vertex 12.9638 -1.26378 19.6185
      vertex 12.8608 -2.36012 19.3748
    endloop
  endfacet
  facet normal 0.504024 0.142032 -0.851931
    outer loop
      vertex 11.8434 -1.97438 18.8372
      vertex 12.8608 -2.36012 19.3748
      vertex 12.7607 -3.42486 19.1381
    endloop
  endfacet
  facet normal 0.504024 0.142032 -0.851931
    outer loop
      vertex 11.8434 -1.97438 18.8372
      vertex 12.7607 -3.42486 19.1381
      vertex 12.488 -4.55147 18.7889
    endloop
  endfacet
  facet normal 0.504025 0.142032 -0.85193
    outer loop
      vertex 11.279 -4.99786 17.9992
      vertex 12.488 -4.55147 18.7889
      vertex 12.2602 -5.49299 18.4972
    endloop
  endfacet
  facet normal 0.504025 0.142032 -0.85193
    outer loop
      vertex 12.9638 -1.26378 19.6185
      vertex 11.923 -1.12706 19.0255
      vertex 12.9283 -0.476624 19.7287
    endloop
  endfacet
  facet normal 0.504025 0.142032 -0.85193
    outer loop
      vertex 12.9283 -0.476624 19.7287
      vertex 11.923 -1.12706 19.0255
      vertex 11.8644 0.170585 19.2072
    endloop
  endfacet
  facet normal -0.504026 -0.142031 0.85193
    outer loop
      vertex 10.8439 -1.50795 21.0376
      vertex 11.8775 -1.64029 21.6271
      vertex 11.8443 -0.854564 21.7384
    endloop
  endfacet
  facet normal -0.504026 -0.14203 0.851931
    outer loop
      vertex 10.7798 -2.17462 20.8886
      vertex 11.8775 -1.64029 21.6271
      vertex 10.8439 -1.50795 21.0376
    endloop
  endfacet
  facet normal -0.504023 -0.142033 0.851931
    outer loop
      vertex 10.6539 -3.4834 20.5959
      vertex 11.8019 -2.42687 21.4512
      vertex 10.7798 -2.17462 20.8886
    endloop
  endfacet
  facet normal -0.504024 -0.142032 0.851931
    outer loop
      vertex 11.8019 -2.42687 21.4512
      vertex 10.6539 -3.4834 20.5959
      vertex 11.6699 -3.79866 21.1444
    endloop
  endfacet
  facet normal -0.504024 -0.142035 0.851931
    outer loop
      vertex 11.8775 -1.64029 21.6271
      vertex 10.7798 -2.17462 20.8886
      vertex 11.8019 -2.42687 21.4512
    endloop
  endfacet
  facet normal -0.504025 -0.142032 0.85193
    outer loop
      vertex 10.8439 -1.50795 21.0376
      vertex 11.8443 -0.854564 21.7384
      vertex 10.7892 -0.212662 21.2212
    endloop
  endfacet
  facet normal -0.504024 -0.142031 0.851931
    outer loop
      vertex 11.6699 -3.79866 21.1444
      vertex 10.6539 -3.4834 20.5959
      vertex 11.4777 -4.5889 20.899
    endloop
  endfacet
  facet normal -0.504024 -0.142032 0.851931
    outer loop
      vertex 10.3641 -4.6749 20.2258
      vertex 11.4777 -4.5889 20.899
      vertex 10.6539 -3.4834 20.5959
    endloop
  endfacet
  facet normal -0.504024 -0.142033 0.851931
    outer loop
      vertex 11.4777 -4.5889 20.899
      vertex 10.3641 -4.6749 20.2258
      vertex 11.1672 -5.86542 20.5024
    endloop
  endfacet
  facet normal -0.504025 -0.142033 0.851931
    outer loop
      vertex 10.1938 -5.37502 20.0083
      vertex 11.1672 -5.86542 20.5024
      vertex 10.3641 -4.6749 20.2258
    endloop
  endfacet
  facet normal -0.504025 -0.142032 0.851931
    outer loop
      vertex 9.47478 -7.13622 19.2893
      vertex 11.1672 -5.86542 20.5024
      vertex 10.1938 -5.37502 20.0083
    endloop
  endfacet
  facet normal -0.504025 -0.142032 0.851931
    outer loop
      vertex 11.1672 -5.86542 20.5024
      vertex 9.47478 -7.13622 19.2893
      vertex 10.3816 -7.78969 19.7168
    endloop
  endfacet
  facet normal -0.504025 -0.142032 0.851931
    outer loop
      vertex 9.1194 -7.72375 18.9811
      vertex 10.3816 -7.78969 19.7168
      vertex 9.47478 -7.13622 19.2893
    endloop
  endfacet
  facet normal -0.504025 -0.142032 0.851931
    outer loop
      vertex 10.3816 -7.78969 19.7168
      vertex 9.1194 -7.72375 18.9811
      vertex 9.73365 -8.86094 19.1549
    endloop
  endfacet
  facet normal -0.504025 -0.142032 0.851931
    outer loop
      vertex 8.51461 -8.72364 18.4566
      vertex 9.73365 -8.86094 19.1549
      vertex 9.1194 -7.72375 18.9811
    endloop
  endfacet
  facet normal -0.504025 -0.142031 0.851931
    outer loop
      vertex 9.73365 -8.86094 19.1549
      vertex 8.51461 -8.72364 18.4566
      vertex 9.33254 -9.5241 18.807
    endloop
  endfacet
  facet normal -0.504025 -0.142031 0.851931
    outer loop
      vertex 7.73438 -9.63432 17.8431
      vertex 9.33254 -9.5241 18.807
      vertex 8.51461 -8.72364 18.4566
    endloop
  endfacet
  facet normal -0.504025 -0.142033 0.851931
    outer loop
      vertex 9.33254 -9.5241 18.807
      vertex 7.73438 -9.63432 17.8431
      vertex 8.51474 -10.4786 18.1641
    endloop
  endfacet
  facet normal -0.504024 -0.142033 0.851931
    outer loop
      vertex 8.51474 -10.4786 18.1641
      vertex 7.73438 -9.63432 17.8431
      vertex 8.33736 -10.6857 18.0246
    endloop
  endfacet
  facet normal -0.504025 -0.142033 0.851931
    outer loop
      vertex 8.33736 -10.6857 18.0246
      vertex 7.73438 -9.63432 17.8431
      vertex 7.34886 -10.0843 17.5401
    endloop
  endfacet
  facet normal -0.353553 -0.866026 -0.353554
    outer loop
      vertex 7.99619 -9.92461 16.5016
      vertex 8.33736 -10.6857 18.0246
      vertex 7.34886 -10.0843 17.5401
    endloop
  endfacet
  facet normal -0.353554 -0.866025 -0.353553
    outer loop
      vertex 8.33736 -10.6857 18.0246
      vertex 7.99619 -9.92461 16.5016
      vertex 9.01916 -10.5175 16.9309
    endloop
  endfacet
  facet normal -0.353554 -0.866025 -0.353553
    outer loop
      vertex 7.99619 -9.92461 16.5016
      vertex 9.42466 -10.3098 16.0165
      vertex 9.01916 -10.5175 16.9309
    endloop
  endfacet
  facet normal -0.353554 -0.866025 -0.353553
    outer loop
      vertex 9.42466 -10.3098 16.0165
      vertex 7.99619 -9.92461 16.5016
      vertex 8.42799 -9.70341 15.528
    endloop
  endfacet
  facet normal 0.437584 -0.741885 0.508062
    outer loop
      vertex 5.42957 -10.8532 21.3427
      vertex 5.91943 -9.68816 22.622
      vertex 5.06819 -10.8403 21.6727
    endloop
  endfacet
  facet normal 0.437582 -0.741885 0.508063
    outer loop
      vertex 5.91943 -9.68816 22.622
      vertex 5.42957 -10.8532 21.3427
      vertex 7.17968 -9.73287 21.4713
    endloop
  endfacet
  facet normal 0.437582 -0.741885 0.508064
    outer loop
      vertex 7.17968 -9.73287 21.4713
      vertex 5.42957 -10.8532 21.3427
      vertex 7.08832 -9.97128 21.2019
    endloop
  endfacet
  facet normal 0.696847 -0.701425 0.14969
    outer loop
      vertex 10.4233 -9.1503 16.8007
      vertex 10.0289 -9.35234 17.69
      vertex 9.78714 -9.88889 16.3012
    endloop
  endfacet
  facet normal 0.891793 -0.316125 0.323683
    outer loop
      vertex 12.3663 -3.6269 20.0274
      vertex 12.488 -4.55147 18.7889
      vertex 12.7607 -3.42486 19.1381
    endloop
  endfacet
  facet normal 0.891793 -0.316125 0.323683
    outer loop
      vertex 12.488 -4.55147 18.7889
      vertex 12.3663 -3.6269 20.0274
      vertex 11.8731 -5.69131 19.3701
    endloop
  endfacet
  facet normal 0.914746 -0.167684 0.367588
    outer loop
      vertex 12.8608 -2.36012 19.3748
      vertex 12.3663 -3.6269 20.0274
      vertex 12.7607 -3.42486 19.1381
    endloop
  endfacet
  facet normal 0.891793 -0.316125 0.323683
    outer loop
      vertex 12.488 -4.55147 18.7889
      vertex 11.8731 -5.69131 19.3701
      vertex 12.2602 -5.49299 18.4972
    endloop
  endfacet
  facet normal 0.0591815 -0.678799 0.731936
    outer loop
      vertex 0.679677 -9.33717 24.6783
      vertex 0.287697 -9.9113 24.1775
      vertex 1.09011 -10.1297 23.9101
    endloop
  endfacet
  facet normal 0.0591805 -0.678799 0.731936
    outer loop
      vertex 1.20933 -8.7932 25.1399
      vertex 1.53978 -10.2521 23.7602
      vertex 2.24947 -9.07631 24.7933
    endloop
  endfacet
  facet normal 0.0591798 -0.678799 0.731936
    outer loop
      vertex 1.20933 -8.7932 25.1399
      vertex 1.09011 -10.1297 23.9101
      vertex 1.53978 -10.2521 23.7602
    endloop
  endfacet
  facet normal 0.0591841 -0.678799 0.731936
    outer loop
      vertex 0.811787 -9.14367 24.847
      vertex 1.09011 -10.1297 23.9101
      vertex 1.20933 -8.7932 25.1399
    endloop
  endfacet
  facet normal 0.0591792 -0.6788 0.731935
    outer loop
      vertex 1.09011 -10.1297 23.9101
      vertex 0.811787 -9.14367 24.847
      vertex 0.679677 -9.33717 24.6783
    endloop
  endfacet
  facet normal 0.451934 -0.489068 0.746035
    outer loop
      vertex 5.9794 -6.61111 25.0673
      vertex 7.65986 -6.03561 24.4266
      vertex 6.10554 -5.83827 25.4976
    endloop
  endfacet
  facet normal 0.451934 -0.489069 0.746035
    outer loop
      vertex 7.65986 -6.03561 24.4266
      vertex 5.9794 -6.61111 25.0673
      vertex 6.87428 -7.95988 23.641
    endloop
  endfacet
  facet normal 0.451932 -0.489068 0.746037
    outer loop
      vertex 5.06011 -7.72955 24.891
      vertex 5.9794 -6.61111 25.0673
      vertex 5.53951 -6.55526 25.3704
    endloop
  endfacet
  facet normal 0.451933 -0.489069 0.746035
    outer loop
      vertex 5.9794 -6.61111 25.0673
      vertex 5.06011 -7.72955 24.891
      vertex 6.87428 -7.95988 23.641
    endloop
  endfacet
  facet normal 0.451933 -0.489069 0.746034
    outer loop
      vertex 5.84569 -5.80528 25.6766
      vertex 5.68182 -6.20667 25.5127
      vertex 5.94155 -5.81745 25.6106
    endloop
  endfacet
  facet normal 0.501545 -0.348014 0.792047
    outer loop
      vertex 6.48733 -3.73806 26.1786
      vertex 8.08546 -4.55775 24.8065
      vertex 8.12737 -3.94628 25.0486
    endloop
  endfacet
  facet normal 0.501544 -0.348015 0.792047
    outer loop
      vertex 8.08546 -4.55775 24.8065
      vertex 6.48733 -3.73806 26.1786
      vertex 7.65986 -6.03561 24.4266
    endloop
  endfacet
  facet normal 0.781509 -0.586262 0.213401
    outer loop
      vertex 11.4746 -7.41727 17.7116
      vertex 11.0875 -7.61558 18.5845
      vertex 10.996 -8.20623 17.2969
    endloop
  endfacet
  facet normal 0.193813 -0.710936 0.676023
    outer loop
      vertex 1.97037 -10.3398 23.5445
      vertex 2.24947 -9.07631 24.7933
      vertex 1.53978 -10.2521 23.7602
    endloop
  endfacet
  facet normal 0.193813 -0.710935 0.676023
    outer loop
      vertex 2.24947 -9.07631 24.7933
      vertex 2.36659 -10.1805 23.5984
      vertex 3.29492 -9.28931 24.2695
    endloop
  endfacet
  facet normal 0.193811 -0.710936 0.676023
    outer loop
      vertex 2.24947 -9.07631 24.7933
      vertex 1.97037 -10.3398 23.5445
      vertex 2.36659 -10.1805 23.5984
    endloop
  endfacet
  facet normal 0.369497 -0.326 0.87017
    outer loop
      vertex 5.12039 -3.45956 26.8634
      vertex 4.04366 -5.3139 26.6259
      vertex 6.48733 -3.73806 26.1786
    endloop
  endfacet
  facet normal 0.437583 -0.741887 0.50806
    outer loop
      vertex 5.42957 -10.8532 21.3427
      vertex 7.0299 -10.1237 21.0296
      vertex 7.08832 -9.97128 21.2019
    endloop
  endfacet
  facet normal 0.437583 -0.741885 0.508064
    outer loop
      vertex 7.0299 -10.1237 21.0296
      vertex 5.42957 -10.8532 21.3427
      vertex 6.50581 -10.8914 20.36
    endloop
  endfacet
  facet normal 0.820156 -0.341991 0.458679
    outer loop
      vertex 11.8731 -5.69131 19.3701
      vertex 11.4777 -4.5889 20.899
      vertex 11.1672 -5.86542 20.5024
    endloop
  endfacet
  facet normal 0.512317 -0.628272 0.585496
    outer loop
      vertex 7.63518 -7.98688 22.9463
      vertex 6.87428 -7.95988 23.641
      vertex 7.31883 -9.19947 21.9219
    endloop
  endfacet
  facet normal 0.847016 -0.456783 0.271869
    outer loop
      vertex 11.0875 -7.61558 18.5845
      vertex 12.2602 -5.49299 18.4972
      vertex 11.8731 -5.69131 19.3701
    endloop
  endfacet
  facet normal 0.847016 -0.456783 0.27187
    outer loop
      vertex 12.2602 -5.49299 18.4972
      vertex 11.0875 -7.61558 18.5845
      vertex 11.4746 -7.41727 17.7116
    endloop
  endfacet
  facet normal 0.820156 -0.34199 0.458679
    outer loop
      vertex 11.4777 -4.5889 20.899
      vertex 12.3663 -3.6269 20.0274
      vertex 11.6699 -3.79866 21.1444
    endloop
  endfacet
  facet normal 0.820156 -0.341991 0.458678
    outer loop
      vertex 12.3663 -3.6269 20.0274
      vertex 11.4777 -4.5889 20.899
      vertex 11.8731 -5.69131 19.3701
    endloop
  endfacet
  facet normal 0.914746 -0.167684 0.367588
    outer loop
      vertex 12.555 -1.47318 20.5402
      vertex 12.8608 -2.36012 19.3748
      vertex 12.9638 -1.26378 19.6185
    endloop
  endfacet
  facet normal 0.914746 -0.167684 0.367588
    outer loop
      vertex 12.8608 -2.36012 19.3748
      vertex 12.555 -1.47318 20.5402
      vertex 12.3663 -3.6269 20.0274
    endloop
  endfacet
  facet normal 0.501545 -0.348015 0.792047
    outer loop
      vertex 5.84569 -5.80528 25.6766
      vertex 6.13895 -5.45535 25.6447
      vertex 6.48733 -3.73806 26.1786
    endloop
  endfacet
  facet normal 0.501545 -0.348015 0.792047
    outer loop
      vertex 6.13895 -5.45535 25.6447
      vertex 5.84569 -5.80528 25.6766
      vertex 5.94155 -5.81745 25.6106
    endloop
  endfacet
  facet normal 0.501545 -0.348015 0.792047
    outer loop
      vertex 6.13895 -5.45535 25.6447
      vertex 7.65986 -6.03561 24.4266
      vertex 6.48733 -3.73806 26.1786
    endloop
  endfacet
  facet normal 0.501545 -0.348014 0.792047
    outer loop
      vertex 7.65986 -6.03561 24.4266
      vertex 6.13895 -5.45535 25.6447
      vertex 6.10554 -5.83827 25.4976
    endloop
  endfacet
  facet normal 0.119426 -0.562772 0.81794
    outer loop
      vertex 2.65779 -7.20905 26.0184
      vertex 2.18766 -7.72322 25.7332
      vertex 3.11167 -7.33259 25.8671
    endloop
  endfacet
  facet normal 0.391261 -0.618153 0.681764
    outer loop
      vertex 5.06011 -7.72955 24.891
      vertex 5.61729 -8.48009 23.8907
      vertex 6.87428 -7.95988 23.641
    endloop
  endfacet
  facet normal 0.391261 -0.618153 0.681764
    outer loop
      vertex 5.61729 -8.48009 23.8907
      vertex 5.06011 -7.72955 24.891
      vertex 4.72556 -8.36688 24.5052
    endloop
  endfacet
  facet normal 0.391261 -0.61815 0.681766
    outer loop
      vertex 6.87428 -7.95988 23.641
      vertex 5.61729 -8.48009 23.8907
      vertex 5.56752 -8.6811 23.7371
    endloop
  endfacet
  facet normal 0.391262 -0.618153 0.681764
    outer loop
      vertex 5.56752 -8.6811 23.7371
      vertex 5.91943 -9.68816 22.622
      vertex 6.87428 -7.95988 23.641
    endloop
  endfacet
  facet normal 0.391261 -0.618153 0.681764
    outer loop
      vertex 5.91943 -9.68816 22.622
      vertex 5.56752 -8.6811 23.7371
      vertex 5.3365 -9.61415 23.0236
    endloop
  endfacet
  facet normal 0.709873 -0.612128 0.348395
    outer loop
      vertex 9.73365 -8.86094 19.1549
      vertex 10.0289 -9.35234 17.69
      vertex 11.0875 -7.61558 18.5845
    endloop
  endfacet
  facet normal 0.709873 -0.612128 0.348395
    outer loop
      vertex 10.0289 -9.35234 17.69
      vertex 9.73365 -8.86094 19.1549
      vertex 9.33254 -9.5241 18.807
    endloop
  endfacet
  facet normal 0.709873 -0.612127 0.348396
    outer loop
      vertex 10.3816 -7.78969 19.7168
      vertex 9.73365 -8.86094 19.1549
      vertex 11.0875 -7.61558 18.5845
    endloop
  endfacet
  facet normal 0.774492 -0.48297 0.408537
    outer loop
      vertex 10.3816 -7.78969 19.7168
      vertex 11.8731 -5.69131 19.3701
      vertex 11.1672 -5.86542 20.5024
    endloop
  endfacet
  facet normal 0.774492 -0.48297 0.408537
    outer loop
      vertex 11.8731 -5.69131 19.3701
      vertex 10.3816 -7.78969 19.7168
      vertex 11.0875 -7.61558 18.5845
    endloop
  endfacet
  facet normal 0.845752 -0.192596 0.497605
    outer loop
      vertex 12.3663 -3.6269 20.0274
      vertex 11.8019 -2.42687 21.4512
      vertex 11.6699 -3.79866 21.1444
    endloop
  endfacet
  facet normal 0.915293 -0.0150512 0.402508
    outer loop
      vertex 12.512 -0.689885 20.6674
      vertex 12.9638 -1.26378 19.6185
      vertex 12.9283 -0.476624 19.7287
    endloop
  endfacet
  facet normal 0.915293 -0.0150511 0.402508
    outer loop
      vertex 12.9638 -1.26378 19.6185
      vertex 12.512 -0.689885 20.6674
      vertex 12.555 -1.47318 20.5402
    endloop
  endfacet
  facet normal 0.369497 -0.326 0.87017
    outer loop
      vertex 4.04366 -5.3139 26.6259
      vertex 5.84569 -5.80528 25.6766
      vertex 6.48733 -3.73806 26.1786
    endloop
  endfacet
  facet normal 0.369495 -0.326004 0.870169
    outer loop
      vertex 5.84569 -5.80528 25.6766
      vertex 4.04366 -5.3139 26.6259
      vertex 3.97915 -5.425 26.6117
    endloop
  endfacet
  facet normal 0.622601 -0.358135 0.695778
    outer loop
      vertex 7.98361 -5.7378 24.2902
      vertex 8.08546 -4.55775 24.8065
      vertex 7.65986 -6.03561 24.4266
    endloop
  endfacet
  facet normal 0.53889 -0.198398 0.818679
    outer loop
      vertex 8.13087 -2.25965 25.455
      vertex 6.48733 -3.73806 26.1786
      vertex 8.12737 -3.94628 25.0486
    endloop
  endfacet
  facet normal 0.538891 -0.198393 0.81868
    outer loop
      vertex 6.96923 -1.57879 26.3847
      vertex 8.13124 -2.08353 25.4975
      vertex 8.13198 -1.72642 25.5835
    endloop
  endfacet
  facet normal 0.538886 -0.198406 0.81868
    outer loop
      vertex 8.13124 -2.08353 25.4975
      vertex 6.96923 -1.57879 26.3847
      vertex 8.13087 -2.25965 25.455
    endloop
  endfacet
  facet normal 0.53889 -0.198398 0.818679
    outer loop
      vertex 8.13087 -2.25965 25.455
      vertex 6.96923 -1.57879 26.3847
      vertex 6.48733 -3.73806 26.1786
    endloop
  endfacet
  facet normal 0.563048 -0.0438365 0.825261
    outer loop
      vertex 6.96923 -1.57879 26.3847
      vertex 8.08303 -0.919909 25.6598
      vertex 7.08021 -0.79259 26.3507
    endloop
  endfacet
  facet normal 0.563048 -0.043837 0.825261
    outer loop
      vertex 8.08303 -0.919909 25.6598
      vertex 6.96923 -1.57879 26.3847
      vertex 8.13198 -1.72642 25.5835
    endloop
  endfacet
  facet normal 0.193813 -0.710939 0.676019
    outer loop
      vertex 2.36659 -10.1805 23.5984
      vertex 1.97037 -10.3398 23.5445
      vertex 2.16033 -10.3785 23.4493
    endloop
  endfacet
  facet normal 0.320991 -0.732139 0.600781
    outer loop
      vertex 4.90071 -10.8191 21.7881
      vertex 5.91943 -9.68816 22.622
      vertex 5.3365 -9.61415 23.0236
    endloop
  endfacet
  facet normal 0.320988 -0.732138 0.600783
    outer loop
      vertex 5.91943 -9.68816 22.622
      vertex 4.90071 -10.8191 21.7881
      vertex 5.06819 -10.8403 21.6727
    endloop
  endfacet
  facet normal 0.512317 -0.628272 0.585496
    outer loop
      vertex 5.91943 -9.68816 22.622
      vertex 7.31883 -9.19947 21.9219
      vertex 6.87428 -7.95988 23.641
    endloop
  endfacet
  facet normal 0.512317 -0.628271 0.585497
    outer loop
      vertex 7.31883 -9.19947 21.9219
      vertex 5.91943 -9.68816 22.622
      vertex 7.17968 -9.73287 21.4713
    endloop
  endfacet
  facet normal 0.443858 -0.0239655 0.895776
    outer loop
      vertex 6.35554 -0.644948 26.7138
      vertex 6.96923 -1.57879 26.3847
      vertex 7.08021 -0.79259 26.3507
    endloop
  endfacet
  facet normal 0.443859 -0.0239647 0.895776
    outer loop
      vertex 6.96923 -1.57879 26.3847
      vertex 6.35554 -0.644948 26.7138
      vertex 6.08335 -1.39831 26.8285
    endloop
  endfacet
  facet normal 0.574488 -0.499314 0.648575
    outer loop
      vertex 7.65986 -6.03561 24.4266
      vertex 7.83157 -6.80255 23.6841
      vertex 7.957 -6.04615 24.1553
    endloop
  endfacet
  facet normal 0.574489 -0.499313 0.648574
    outer loop
      vertex 6.87428 -7.95988 23.641
      vertex 7.83157 -6.80255 23.6841
      vertex 7.65986 -6.03561 24.4266
    endloop
  endfacet
  facet normal 0.574489 -0.499313 0.648575
    outer loop
      vertex 7.83157 -6.80255 23.6841
      vertex 6.87428 -7.95988 23.641
      vertex 7.67576 -7.74218 23.0987
    endloop
  endfacet
  facet normal 0.574489 -0.499314 0.648574
    outer loop
      vertex 7.67576 -7.74218 23.0987
      vertex 6.87428 -7.95988 23.641
      vertex 7.63518 -7.98688 22.9463
    endloop
  endfacet
  facet normal 0.696848 -0.701424 0.14969
    outer loop
      vertex 9.01916 -10.5175 16.9309
      vertex 9.78714 -9.88889 16.3012
      vertex 10.0289 -9.35234 17.69
    endloop
  endfacet
  facet normal 0.696848 -0.701424 0.14969
    outer loop
      vertex 9.78714 -9.88889 16.3012
      vertex 9.01916 -10.5175 16.9309
      vertex 9.42466 -10.3098 16.0165
    endloop
  endfacet
  facet normal 0.6226 -0.358133 0.69578
    outer loop
      vertex 7.98361 -5.7378 24.2902
      vertex 7.65986 -6.03561 24.4266
      vertex 7.957 -6.04615 24.1553
    endloop
  endfacet
  facet normal 0.850632 -0.038398 0.524357
    outer loop
      vertex 11.8775 -1.64029 21.6271
      vertex 12.1565 -0.777558 21.2376
      vertex 11.8443 -0.854564 21.7384
    endloop
  endfacet
  facet normal 0.850633 -0.0383984 0.524356
    outer loop
      vertex 12.1565 -0.777558 21.2376
      vertex 11.8775 -1.64029 21.6271
      vertex 12.555 -1.47318 20.5402
    endloop
  endfacet
  facet normal 0.176739 -0.433002 0.883896
    outer loop
      vertex 3.46769 -6.12471 26.3876
      vertex 3.11167 -7.33259 25.8671
      vertex 3.77005 -5.71988 26.5255
    endloop
  endfacet
  facet normal 0.176731 -0.433001 0.883898
    outer loop
      vertex 2.82513 -6.98501 26.0947
      vertex 3.11167 -7.33259 25.8671
      vertex 3.46769 -6.12471 26.3876
    endloop
  endfacet
  facet normal 0.176731 -0.433001 0.883898
    outer loop
      vertex 3.11167 -7.33259 25.8671
      vertex 2.82513 -6.98501 26.0947
      vertex 2.65779 -7.20905 26.0184
    endloop
  endfacet
  facet normal 0.318249 -0.466782 0.825125
    outer loop
      vertex 3.97915 -5.425 26.6117
      vertex 5.68182 -6.20667 25.5127
      vertex 5.84569 -5.80528 25.6766
    endloop
  endfacet
  facet normal 0.31825 -0.46678 0.825126
    outer loop
      vertex 5.68182 -6.20667 25.5127
      vertex 3.97915 -5.425 26.6117
      vertex 5.4501 -6.53705 25.4152
    endloop
  endfacet
  facet normal 0.318249 -0.466782 0.825126
    outer loop
      vertex 3.77005 -5.71988 26.5255
      vertex 5.4501 -6.53705 25.4152
      vertex 3.97915 -5.425 26.6117
    endloop
  endfacet
  facet normal 0.318249 -0.466781 0.825126
    outer loop
      vertex 5.4501 -6.53705 25.4152
      vertex 3.77005 -5.71988 26.5255
      vertex 5.06011 -7.72955 24.891
    endloop
  endfacet
  facet normal 0.31825 -0.466781 0.825126
    outer loop
      vertex 5.06011 -7.72955 24.891
      vertex 3.77005 -5.71988 26.5255
      vertex 3.11167 -7.33259 25.8671
    endloop
  endfacet
  facet normal 0.318261 -0.466783 0.825121
    outer loop
      vertex 5.53951 -6.55526 25.3704
      vertex 5.4501 -6.53705 25.4152
      vertex 5.06011 -7.72955 24.891
    endloop
  endfacet
  facet normal 0.119425 -0.56277 0.817941
    outer loop
      vertex 2.18766 -7.72322 25.7332
      vertex 2.24947 -9.07631 24.7933
      vertex 3.11167 -7.33259 25.8671
    endloop
  endfacet
  facet normal 0.119426 -0.56277 0.817941
    outer loop
      vertex 2.24947 -9.07631 24.7933
      vertex 2.18766 -7.72322 25.7332
      vertex 1.20933 -8.7932 25.1399
    endloop
  endfacet
  facet normal 0.411712 -0.177195 0.893921
    outer loop
      vertex 5.69602 -2.22742 26.8425
      vertex 5.12039 -3.45956 26.8634
      vertex 6.48733 -3.73806 26.1786
    endloop
  endfacet
  facet normal 0.411712 -0.177194 0.893921
    outer loop
      vertex 5.92844 -1.72991 26.8341
      vertex 6.96923 -1.57879 26.3847
      vertex 6.08335 -1.39831 26.8285
    endloop
  endfacet
  facet normal 0.411712 -0.177198 0.89392
    outer loop
      vertex 5.69602 -2.22742 26.8425
      vertex 6.96923 -1.57879 26.3847
      vertex 5.92844 -1.72991 26.8341
    endloop
  endfacet
  facet normal 0.411712 -0.177195 0.893921
    outer loop
      vertex 6.96923 -1.57879 26.3847
      vertex 5.69602 -2.22742 26.8425
      vertex 6.48733 -3.73806 26.1786
    endloop
  endfacet
  facet normal 0.78151 -0.586262 0.213401
    outer loop
      vertex 10.0289 -9.35234 17.69
      vertex 10.996 -8.20623 17.2969
      vertex 11.0875 -7.61558 18.5845
    endloop
  endfacet
  facet normal 0.78151 -0.586262 0.213401
    outer loop
      vertex 10.996 -8.20623 17.2969
      vertex 10.0289 -9.35234 17.69
      vertex 10.4233 -9.1503 16.8007
    endloop
  endfacet
  facet normal 0.845752 -0.192596 0.497605
    outer loop
      vertex 11.8019 -2.42687 21.4512
      vertex 12.555 -1.47318 20.5402
      vertex 11.8775 -1.64029 21.6271
    endloop
  endfacet
  facet normal 0.845752 -0.192596 0.497605
    outer loop
      vertex 12.555 -1.47318 20.5402
      vertex 11.8019 -2.42687 21.4512
      vertex 12.3663 -3.6269 20.0274
    endloop
  endfacet
  facet normal 0.850633 -0.0383983 0.524356
    outer loop
      vertex 12.512 -0.689885 20.6674
      vertex 12.1565 -0.777558 21.2376
      vertex 12.555 -1.47318 20.5402
    endloop
  endfacet
  facet normal 0.259213 -0.596138 0.759887
    outer loop
      vertex 2.24947 -9.07631 24.7933
      vertex 3.78319 -8.71081 24.5568
      vertex 3.11167 -7.33259 25.8671
    endloop
  endfacet
  facet normal 0.259213 -0.596138 0.759886
    outer loop
      vertex 3.78319 -8.71081 24.5568
      vertex 2.24947 -9.07631 24.7933
      vertex 3.29492 -9.28931 24.2695
    endloop
  endfacet
  facet normal 0.259214 -0.596138 0.759886
    outer loop
      vertex 5.06011 -7.72955 24.891
      vertex 4.16914 -8.25352 24.7839
      vertex 4.72556 -8.36688 24.5052
    endloop
  endfacet
  facet normal 0.259214 -0.596137 0.759887
    outer loop
      vertex 4.16914 -8.25352 24.7839
      vertex 3.11167 -7.33259 25.8671
      vertex 3.78319 -8.71081 24.5568
    endloop
  endfacet
  facet normal 0.259213 -0.596138 0.759887
    outer loop
      vertex 3.11167 -7.33259 25.8671
      vertex 4.16914 -8.25352 24.7839
      vertex 5.06011 -7.72955 24.891
    endloop
  endfacet
  facet normal 0.627853 -0.726336 0.279706
    outer loop
      vertex 9.33254 -9.5241 18.807
      vertex 8.51474 -10.4786 18.1641
      vertex 10.0289 -9.35234 17.69
    endloop
  endfacet
  facet normal 0.627852 -0.726338 0.279706
    outer loop
      vertex 9.01916 -10.5175 16.9309
      vertex 8.51474 -10.4786 18.1641
      vertex 8.33736 -10.6857 18.0246
    endloop
  endfacet
  facet normal 0.627853 -0.726336 0.279706
    outer loop
      vertex 8.51474 -10.4786 18.1641
      vertex 9.01916 -10.5175 16.9309
      vertex 10.0289 -9.35234 17.69
    endloop
  endfacet
  facet normal -0.622601 0.358134 -0.695779
    outer loop
      vertex 7.01072 -5.52411 23.5566
      vertex 7.62306 -3.76227 23.9155
      vertex 7.46958 -5.5404 23.1376
    endloop
  endfacet
  facet normal -0.622601 0.358134 -0.695779
    outer loop
      vertex 7.62306 -3.76227 23.9155
      vertex 7.01072 -5.52411 23.5566
      vertex 7.5571 -3.62689 24.0442
    endloop
  endfacet
  facet normal -0.318247 0.466781 -0.825127
    outer loop
      vertex 5.0774 -5.98175 24.4277
      vertex 4.63128 -7.07451 23.9816
      vertex 4.98799 -5.96354 24.4725
    endloop
  endfacet
  facet normal -0.318251 0.46678 -0.825126
    outer loop
      vertex 3.56697 -4.94998 25.594
      vertex 5.21971 -5.63316 24.57
      vertex 4.98799 -5.96354 24.4725
    endloop
  endfacet
  facet normal -0.318249 0.466783 -0.825125
    outer loop
      vertex 5.21971 -5.63316 24.57
      vertex 3.56697 -4.94998 25.594
      vertex 5.35029 -5.3133 24.7006
    endloop
  endfacet
  facet normal -0.31825 0.466781 -0.825126
    outer loop
      vertex 2.84797 -6.71118 24.875
      vertex 4.98799 -5.96354 24.4725
      vertex 4.63128 -7.07451 23.9816
    endloop
  endfacet
  facet normal -0.31825 0.466781 -0.825126
    outer loop
      vertex 4.98799 -5.96354 24.4725
      vertex 2.84797 -6.71118 24.875
      vertex 3.56697 -4.94998 25.594
    endloop
  endfacet
  facet normal -0.914747 0.167684 -0.367588
    outer loop
      vertex 11.8434 -1.97438 18.8372
      vertex 11.491 -1.34833 19.9995
      vertex 11.923 -1.12706 19.0255
    endloop
  endfacet
  facet normal -0.914746 0.167685 -0.367589
    outer loop
      vertex 11.491 -1.34833 19.9995
      vertex 11.8434 -1.97438 18.8372
      vertex 11.3183 -3.31953 19.5301
    endloop
  endfacet
  facet normal -0.709873 0.612128 -0.348396
    outer loop
      vertex 9.1194 -7.72375 18.9811
      vertex 9.17899 -8.55977 17.3908
      vertex 8.51461 -8.72364 18.4566
    endloop
  endfacet
  facet normal -0.369498 0.326 -0.87017
    outer loop
      vertex 4.36006 -3.38258 25.8444
      vertex 5.93756 -3.42127 25.1601
      vertex 5.35029 -5.3133 24.7006
    endloop
  endfacet
  facet normal -0.369498 0.326 -0.87017
    outer loop
      vertex 5.93756 -3.42127 25.1601
      vertex 4.36006 -3.38258 25.8444
      vertex 4.50684 -3.12979 25.8768
    endloop
  endfacet
  facet normal -0.850633 0.0383975 -0.524356
    outer loop
      vertex 11.42 -0.0570596 20.2092
      vertex 11.491 -1.34833 19.9995
      vertex 10.8341 -0.201591 21.1492
    endloop
  endfacet
  facet normal -0.437595 0.741885 -0.508052
    outer loop
      vertex 5.41778 -8.86713 21.9049
      vertex 4.43542 -10.2173 20.7794
      vertex 4.42064 -10.2168 20.7929
    endloop
  endfacet
  facet normal -0.437582 0.741885 -0.508063
    outer loop
      vertex 6.72554 -8.99976 20.5849
      vertex 5.41778 -8.86713 21.9049
      vertex 6.75814 -8.91469 20.681
    endloop
  endfacet
  facet normal -0.437583 0.741885 -0.508063
    outer loop
      vertex 5.41778 -8.86713 21.9049
      vertex 6.72554 -8.99976 20.5849
      vertex 4.43542 -10.2173 20.7794
    endloop
  endfacet
  facet normal -0.443859 0.0239645 -0.895776
    outer loop
      vertex 5.76013 -0.213765 25.6881
      vertex 6.56158 -0.148925 25.2927
      vertex 6.37862 -1.445 25.3487
    endloop
  endfacet
  facet normal -0.443859 0.0239702 -0.895776
    outer loop
      vertex 6.56158 -0.148925 25.2927
      vertex 5.76013 -0.213765 25.6881
      vertex 5.97359 -0.029131 25.5873
    endloop
  endfacet
  facet normal -0.443859 0.0239644 -0.895776
    outer loop
      vertex 6.37862 -1.445 25.3487
      vertex 5.43404 -1.11633 25.8255
      vertex 5.76013 -0.213765 25.6881
    endloop
  endfacet
  facet normal -0.443861 0.0239591 -0.895775
    outer loop
      vertex 5.43404 -1.11633 25.8255
      vertex 6.37862 -1.445 25.3487
      vertex 5.3882 -1.24322 25.8448
    endloop
  endfacet
  facet normal -0.774492 0.482969 -0.408537
    outer loop
      vertex 9.47478 -7.13622 19.2893
      vertex 10.8669 -5.209 18.9285
      vertex 10.1479 -6.9702 18.2095
    endloop
  endfacet
  facet normal -0.774492 0.482969 -0.408537
    outer loop
      vertex 10.8669 -5.209 18.9285
      vertex 9.47478 -7.13622 19.2893
      vertex 10.1938 -5.37502 20.0083
    endloop
  endfacet
  facet normal -0.512317 0.628272 -0.585496
    outer loop
      vertex 7.04416 -7.81833 21.6072
      vertex 6.75814 -8.91469 20.681
      vertex 5.41778 -8.86713 21.9049
    endloop
  endfacet
  facet normal -0.0591816 0.678798 -0.731936
    outer loop
      vertex 1.20912 -9.67944 22.6881
      vertex 0.31363 -8.52542 23.8308
      vertex 0.518122 -8.34514 23.9815
    endloop
  endfacet
  facet normal -0.0591806 0.678799 -0.731936
    outer loop
      vertex 0.31363 -8.52542 23.8308
      vertex 1.20912 -9.67944 22.6881
      vertex -0.210461 -9.29305 23.1613
    endloop
  endfacet
  facet normal -0.696848 0.701424 -0.149689
    outer loop
      vertex 9.59779 -8.34523 16.4465
      vertex 8.92228 -9.12952 15.9161
      vertex 9.17899 -8.55977 17.3908
    endloop
  endfacet
  facet normal -0.627854 0.726336 -0.279706
    outer loop
      vertex 7.99619 -9.92461 16.5016
      vertex 7.73438 -9.63432 17.8431
      vertex 9.17899 -8.55977 17.3908
    endloop
  endfacet
  facet normal -0.627854 0.726336 -0.279706
    outer loop
      vertex 7.73438 -9.63432 17.8431
      vertex 7.99619 -9.92461 16.5016
      vertex 7.34886 -10.0843 17.5401
    endloop
  endfacet
  facet normal -0.501544 0.348015 -0.792047
    outer loop
      vertex 7.5571 -3.62689 24.0442
      vertex 5.67108 -4.87469 24.6902
      vertex 5.93756 -3.42127 25.1601
    endloop
  endfacet
  facet normal -0.501542 0.34801 -0.79205
    outer loop
      vertex 5.67108 -4.87469 24.6902
      vertex 7.5571 -3.62689 24.0442
      vertex 5.65299 -5.08198 24.6106
    endloop
  endfacet
  facet normal -0.501536 0.348008 -0.792055
    outer loop
      vertex 5.35029 -5.3133 24.7006
      vertex 5.67108 -4.87469 24.6902
      vertex 5.49029 -5.20632 24.659
    endloop
  endfacet
  facet normal -0.501546 0.348015 -0.792046
    outer loop
      vertex 5.67108 -4.87469 24.6902
      vertex 5.35029 -5.3133 24.7006
      vertex 5.93756 -3.42127 25.1601
    endloop
  endfacet
  facet normal -0.369497 0.326 -0.87017
    outer loop
      vertex 5.35029 -5.3133 24.7006
      vertex 3.72678 -4.47321 25.7047
      vertex 4.36006 -3.38258 25.8444
    endloop
  endfacet
  facet normal -0.369497 0.326001 -0.87017
    outer loop
      vertex 3.72678 -4.47321 25.7047
      vertex 5.35029 -5.3133 24.7006
      vertex 3.56697 -4.94998 25.594
    endloop
  endfacet
  facet normal -0.119426 0.56277 -0.817941
    outer loop
      vertex 1.54692 -7.30405 24.657
      vertex 2.84797 -6.71118 24.875
      vertex 2.05883 -8.30713 23.8921
    endloop
  endfacet
  facet normal -0.119426 0.56277 -0.817941
    outer loop
      vertex 2.84797 -6.71118 24.875
      vertex 1.54692 -7.30405 24.657
      vertex 2.24025 -6.54577 25.0775
    endloop
  endfacet
  facet normal -0.411712 0.177196 -0.893921
    outer loop
      vertex 5.10933 -1.84016 25.855
      vertex 5.93756 -3.42127 25.1601
      vertex 4.50684 -3.12979 25.8768
    endloop
  endfacet
  facet normal -0.411712 0.177196 -0.893921
    outer loop
      vertex 5.10933 -1.84016 25.855
      vertex 6.37862 -1.445 25.3487
      vertex 5.93756 -3.42127 25.1601
    endloop
  endfacet
  facet normal -0.411712 0.177195 -0.893921
    outer loop
      vertex 6.37862 -1.445 25.3487
      vertex 5.10933 -1.84016 25.855
      vertex 5.3882 -1.24322 25.8448
    endloop
  endfacet
  facet normal -0.540717 0.739935 -0.400152
    outer loop
      vertex 6.52142 -9.49267 19.9923
      vertex 5.80838 -10.266 19.5257
      vertex 6.64349 -9.21386 20.3429
    endloop
  endfacet
  facet normal -0.540717 0.739935 -0.400153
    outer loop
      vertex 5.80838 -10.266 19.5257
      vertex 6.52142 -9.49267 19.9923
      vertex 5.98999 -10.2512 19.3078
    endloop
  endfacet
  facet normal -0.32099 0.732138 -0.600782
    outer loop
      vertex 5.41778 -8.86713 21.9049
      vertex 4.41482 -10.2161 20.7969
      vertex 4.9253 -8.8046 22.2442
    endloop
  endfacet
  facet normal -0.320972 0.732136 -0.600795
    outer loop
      vertex 4.41482 -10.2161 20.7969
      vertex 5.41778 -8.86713 21.9049
      vertex 4.42064 -10.2168 20.7929
    endloop
  endfacet
  facet normal -0.845752 0.192596 -0.497605
    outer loop
      vertex 11.491 -1.34833 19.9995
      vertex 10.7798 -2.17462 20.8886
      vertex 10.8439 -1.50795 21.0376
    endloop
  endfacet
  facet normal -0.845752 0.192597 -0.497604
    outer loop
      vertex 10.7798 -2.17462 20.8886
      vertex 11.491 -1.34833 19.9995
      vertex 11.3183 -3.31953 19.5301
    endloop
  endfacet
  facet normal -0.850633 0.0383983 -0.524357
    outer loop
      vertex 10.8439 -1.50795 21.0376
      vertex 10.8341 -0.201591 21.1492
      vertex 11.491 -1.34833 19.9995
    endloop
  endfacet
  facet normal -0.850637 0.0383977 -0.52435
    outer loop
      vertex 10.8341 -0.201591 21.1492
      vertex 10.8439 -1.50795 21.0376
      vertex 10.7892 -0.212662 21.2212
    endloop
  endfacet
  facet normal -0.891793 0.316125 -0.323684
    outer loop
      vertex 10.8669 -5.209 18.9285
      vertex 11.5007 -4.08197 18.2831
      vertex 11.279 -4.99786 17.9992
    endloop
  endfacet
  facet normal -0.891792 0.316124 -0.323684
    outer loop
      vertex 11.5007 -4.08197 18.2831
      vertex 10.8669 -5.209 18.9285
      vertex 11.3183 -3.31953 19.5301
    endloop
  endfacet
  facet normal -0.891792 0.316124 -0.323684
    outer loop
      vertex 11.7371 -3.10499 18.5858
      vertex 11.5007 -4.08197 18.2831
      vertex 11.3183 -3.31953 19.5301
    endloop
  endfacet
  facet normal -0.193814 0.710935 -0.676023
    outer loop
      vertex 2.14059 -9.32799 22.7951
      vertex 2.05883 -8.30713 23.8921
      vertex 3.0035 -8.49959 23.4189
    endloop
  endfacet
  facet normal -0.193813 0.710936 -0.676023
    outer loop
      vertex 1.24511 -9.68804 22.6732
      vertex 2.05883 -8.30713 23.8921
      vertex 2.14059 -9.32799 22.7951
    endloop
  endfacet
  facet normal -0.193871 0.710946 -0.675996
    outer loop
      vertex 2.05883 -8.30713 23.8921
      vertex 1.24511 -9.68804 22.6732
      vertex 1.22751 -9.68445 22.682
    endloop
  endfacet
  facet normal -0.451933 0.489069 -0.746035
    outer loop
      vertex 5.51729 -6.0376 24.1246
      vertex 7.01072 -5.52411 23.5566
      vertex 6.29171 -7.28532 22.8376
    endloop
  endfacet
  facet normal -0.451933 0.489068 -0.746036
    outer loop
      vertex 7.01072 -5.52411 23.5566
      vertex 5.51729 -6.0376 24.1246
      vertex 5.62972 -5.34878 24.5081
    endloop
  endfacet
  facet normal -0.451933 0.489069 -0.746035
    outer loop
      vertex 4.63128 -7.07451 23.9816
      vertex 5.51729 -6.0376 24.1246
      vertex 6.29171 -7.28532 22.8376
    endloop
  endfacet
  facet normal -0.451933 0.489069 -0.746035
    outer loop
      vertex 5.51729 -6.0376 24.1246
      vertex 4.63128 -7.07451 23.9816
      vertex 5.0774 -5.98175 24.4277
    endloop
  endfacet
  facet normal -0.451934 0.48907 -0.746034
    outer loop
      vertex 5.35029 -5.3133 24.7006
      vertex 5.42668 -5.323 24.648
      vertex 5.21971 -5.63316 24.57
    endloop
  endfacet
  facet normal -0.627854 0.726336 -0.279707
    outer loop
      vertex 8.51461 -8.72364 18.4566
      vertex 9.17899 -8.55977 17.3908
      vertex 7.73438 -9.63432 17.8431
    endloop
  endfacet
  facet normal -0.709873 0.612129 -0.348395
    outer loop
      vertex 10.1479 -6.9702 18.2095
      vertex 9.1194 -7.72375 18.9811
      vertex 9.47478 -7.13622 19.2893
    endloop
  endfacet
  facet normal -0.709873 0.612128 -0.348396
    outer loop
      vertex 9.1194 -7.72375 18.9811
      vertex 10.1479 -6.9702 18.2095
      vertex 9.17899 -8.55977 17.3908
    endloop
  endfacet
  facet normal -0.845752 0.192596 -0.497604
    outer loop
      vertex 11.3183 -3.31953 19.5301
      vertex 10.6539 -3.4834 20.5959
      vertex 10.7798 -2.17462 20.8886
    endloop
  endfacet
  facet normal -0.259215 0.596137 -0.759887
    outer loop
      vertex 3.70127 -7.67286 23.8295
      vertex 4.63128 -7.07451 23.9816
      vertex 4.25769 -7.78622 23.5507
    endloop
  endfacet
  facet normal -0.259212 0.596134 -0.75989
    outer loop
      vertex 3.70127 -7.67286 23.8295
      vertex 2.05883 -8.30713 23.8921
      vertex 4.63128 -7.07451 23.9816
    endloop
  endfacet
  facet normal -0.259213 0.596138 -0.759886
    outer loop
      vertex 2.05883 -8.30713 23.8921
      vertex 3.70127 -7.67286 23.8295
      vertex 3.0035 -8.49959 23.4189
    endloop
  endfacet
  facet normal -0.501545 0.348014 -0.792047
    outer loop
      vertex 7.01072 -5.52411 23.5566
      vertex 5.65299 -5.08198 24.6106
      vertex 7.5571 -3.62689 24.0442
    endloop
  endfacet
  facet normal -0.501542 0.34802 -0.792046
    outer loop
      vertex 5.65299 -5.08198 24.6106
      vertex 7.01072 -5.52411 23.5566
      vertex 5.62972 -5.34878 24.5081
    endloop
  endfacet
  facet normal -0.501544 0.348022 -0.792045
    outer loop
      vertex 5.49029 -5.20632 24.659
      vertex 5.42668 -5.323 24.648
      vertex 5.35029 -5.3133 24.7006
    endloop
  endfacet
  facet normal -0.176732 0.433001 -0.883898
    outer loop
      vertex 3.56697 -4.94998 25.594
      vertex 2.99391 -5.53672 25.4211
      vertex 3.45493 -4.91948 25.6313
    endloop
  endfacet
  facet normal -0.176732 0.433001 -0.883898
    outer loop
      vertex 2.84797 -6.71118 24.875
      vertex 2.99391 -5.53672 25.4211
      vertex 3.56697 -4.94998 25.594
    endloop
  endfacet
  facet normal -0.176731 0.433001 -0.883899
    outer loop
      vertex 2.84797 -6.71118 24.875
      vertex 2.35135 -6.39703 25.1282
      vertex 2.99391 -5.53672 25.4211
    endloop
  endfacet
  facet normal -0.176729 0.433003 -0.883898
    outer loop
      vertex 2.35135 -6.39703 25.1282
      vertex 2.84797 -6.71118 24.875
      vertex 2.24025 -6.54577 25.0775
    endloop
  endfacet
  facet normal -0.229711 0.292634 -0.928223
    outer loop
      vertex 3.72678 -4.47321 25.7047
      vertex 3.56697 -4.94998 25.594
      vertex 3.45493 -4.91948 25.6313
    endloop
  endfacet
  facet normal -0.53889 0.198396 -0.818679
    outer loop
      vertex 7.6445 -1.88583 24.4086
      vertex 6.37862 -1.445 25.3487
      vertex 7.64509 -1.60579 24.4761
    endloop
  endfacet
  facet normal -0.538889 0.198399 -0.818679
    outer loop
      vertex 6.37862 -1.445 25.3487
      vertex 7.6445 -1.88583 24.4086
      vertex 5.93756 -3.42127 25.1601
    endloop
  endfacet
  facet normal -0.563048 0.0438375 -0.825261
    outer loop
      vertex 6.37862 -1.445 25.3487
      vertex 7.63684 -1.46995 24.4889
      vertex 7.64509 -1.60579 24.4761
    endloop
  endfacet
  facet normal -0.563048 0.0438354 -0.825261
    outer loop
      vertex 7.63684 -1.46995 24.4889
      vertex 6.37862 -1.445 25.3487
      vertex 7.61489 -1.10824 24.5231
    endloop
  endfacet
  facet normal -0.563048 0.0438355 -0.825261
    outer loop
      vertex 7.61489 -1.10824 24.5231
      vertex 6.37862 -1.445 25.3487
      vertex 7.10905 -0.218432 24.9155
    endloop
  endfacet
  facet normal -0.563048 0.0438354 -0.825261
    outer loop
      vertex 7.10905 -0.218432 24.9155
      vertex 6.37862 -1.445 25.3487
      vertex 6.56158 -0.148925 25.2927
    endloop
  endfacet
  facet normal -0.78151 0.586262 -0.213401
    outer loop
      vertex 10.0944 -7.52656 16.8768
      vertex 10.1479 -6.9702 18.2095
      vertex 10.56 -6.75906 17.2802
    endloop
  endfacet
  facet normal -0.781509 0.586262 -0.213401
    outer loop
      vertex 10.1479 -6.9702 18.2095
      vertex 10.0944 -7.52656 16.8768
      vertex 9.17899 -8.55977 17.3908
    endloop
  endfacet
  facet normal -0.820157 0.34199 -0.458678
    outer loop
      vertex 11.3183 -3.31953 19.5301
      vertex 10.3641 -4.6749 20.2258
      vertex 10.6539 -3.4834 20.5959
    endloop
  endfacet
  facet normal -0.820157 0.34199 -0.458678
    outer loop
      vertex 10.8669 -5.209 18.9285
      vertex 10.3641 -4.6749 20.2258
      vertex 11.3183 -3.31953 19.5301
    endloop
  endfacet
  facet normal -0.820156 0.341992 -0.458678
    outer loop
      vertex 10.3641 -4.6749 20.2258
      vertex 10.8669 -5.209 18.9285
      vertex 10.1938 -5.37502 20.0083
    endloop
  endfacet
  facet normal -0.437583 0.741886 -0.508062
    outer loop
      vertex 6.64349 -9.21386 20.3429
      vertex 4.43542 -10.2173 20.7794
      vertex 6.72554 -8.99976 20.5849
    endloop
  endfacet
  facet normal -0.437583 0.741885 -0.508063
    outer loop
      vertex 4.43542 -10.2173 20.7794
      vertex 6.64349 -9.21386 20.3429
      vertex 5.80838 -10.266 19.5257
    endloop
  endfacet
  facet normal -0.193813 0.710935 -0.676023
    outer loop
      vertex 2.14059 -9.32799 22.7951
      vertex 1.67444 -9.7755 22.4581
      vertex 1.24511 -9.68804 22.6732
    endloop
  endfacet
  facet normal -0.119426 0.56277 -0.817941
    outer loop
      vertex 1.54692 -7.30405 24.657
      vertex 2.05883 -8.30713 23.8921
      vertex 0.914544 -7.99567 24.2735
    endloop
  endfacet
  facet normal -0.0591236 0.678781 -0.731956
    outer loop
      vertex 1.20912 -9.67944 22.6881
      vertex 2.05883 -8.30713 23.8921
      vertex 1.22751 -9.68445 22.682
    endloop
  endfacet
  facet normal -0.059181 0.678799 -0.731936
    outer loop
      vertex 1.20912 -9.67944 22.6881
      vertex 0.914544 -7.99567 24.2735
      vertex 2.05883 -8.30713 23.8921
    endloop
  endfacet
  facet normal -0.0591811 0.678799 -0.731936
    outer loop
      vertex 0.914544 -7.99567 24.2735
      vertex 1.20912 -9.67944 22.6881
      vertex 0.518122 -8.34514 23.9815
    endloop
  endfacet
  facet normal -0.696848 0.701424 -0.149689
    outer loop
      vertex 8.92228 -9.12952 15.9161
      vertex 7.99619 -9.92461 16.5016
      vertex 9.17899 -8.55977 17.3908
    endloop
  endfacet
  facet normal -0.696848 0.701424 -0.149691
    outer loop
      vertex 7.99619 -9.92461 16.5016
      vertex 8.92228 -9.12952 15.9161
      vertex 8.42799 -9.70341 15.528
    endloop
  endfacet
  facet normal -0.574489 0.499312 -0.648575
    outer loop
      vertex 6.29171 -7.28532 22.8376
      vertex 7.20198 -7.1542 22.1322
      vertex 7.17504 -7.31666 22.031
    endloop
  endfacet
  facet normal -0.574489 0.499313 -0.648574
    outer loop
      vertex 7.35779 -6.21456 22.7176
      vertex 7.01072 -5.52411 23.5566
      vertex 7.46958 -5.5404 23.1376
    endloop
  endfacet
  facet normal -0.574489 0.499313 -0.648575
    outer loop
      vertex 7.20198 -7.1542 22.1322
      vertex 6.29171 -7.28532 22.8376
      vertex 7.35779 -6.21456 22.7176
    endloop
  endfacet
  facet normal -0.574489 0.499314 -0.648574
    outer loop
      vertex 7.35779 -6.21456 22.7176
      vertex 6.29171 -7.28532 22.8376
      vertex 7.01072 -5.52411 23.5566
    endloop
  endfacet
  facet normal -0.259214 0.596138 -0.759887
    outer loop
      vertex 4.63128 -7.07451 23.9816
      vertex 2.05883 -8.30713 23.8921
      vertex 2.84797 -6.71118 24.875
    endloop
  endfacet
  facet normal -0.563048 0.0438353 -0.825261
    outer loop
      vertex 7.56439 -0.276244 24.6018
      vertex 7.61489 -1.10824 24.5231
      vertex 7.10905 -0.218432 24.9155
    endloop
  endfacet
  facet normal -0.53889 0.198398 -0.818679
    outer loop
      vertex 5.93756 -3.42127 25.1601
      vertex 7.64186 -3.15957 24.1017
      vertex 7.5571 -3.62689 24.0442
    endloop
  endfacet
  facet normal -0.53889 0.198399 -0.818679
    outer loop
      vertex 7.64186 -3.15957 24.1017
      vertex 5.93756 -3.42127 25.1601
      vertex 7.6445 -1.88583 24.4086
    endloop
  endfacet
  facet normal -0.655479 0.208145 -0.725964
    outer loop
      vertex 7.63451 -3.62964 23.9735
      vertex 7.5571 -3.62689 24.0442
      vertex 7.64186 -3.15957 24.1017
    endloop
  endfacet
  facet normal -0.622597 0.358138 -0.695781
    outer loop
      vertex 7.63451 -3.62964 23.9735
      vertex 7.62306 -3.76227 23.9155
      vertex 7.5571 -3.62689 24.0442
    endloop
  endfacet
  facet normal -0.914746 0.167685 -0.367589
    outer loop
      vertex 11.8434 -1.97438 18.8372
      vertex 11.7371 -3.10499 18.5858
      vertex 11.3183 -3.31953 19.5301
    endloop
  endfacet
  facet normal -0.39126 0.618153 -0.681765
    outer loop
      vertex 5.41778 -8.86713 21.9049
      vertex 4.9253 -8.8046 22.2442
      vertex 5.09307 -8.12703 22.7623
    endloop
  endfacet
  facet normal -0.391262 0.618152 -0.681764
    outer loop
      vertex 4.984 -7.87843 23.0503
      vertex 4.25769 -7.78622 23.5507
      vertex 4.63128 -7.07451 23.9816
    endloop
  endfacet
  facet normal -0.847016 0.456783 -0.271869
    outer loop
      vertex 10.1479 -6.9702 18.2095
      vertex 11.279 -4.99786 17.9992
      vertex 10.56 -6.75906 17.2802
    endloop
  endfacet
  facet normal -0.847016 0.456783 -0.271869
    outer loop
      vertex 11.279 -4.99786 17.9992
      vertex 10.1479 -6.9702 18.2095
      vertex 10.8669 -5.209 18.9285
    endloop
  endfacet
  facet normal -0.915292 0.0150506 -0.402509
    outer loop
      vertex 11.8635 0.170089 19.2094
      vertex 11.491 -1.34833 19.9995
      vertex 11.42 -0.0570596 20.2092
    endloop
  endfacet
  facet normal -0.915252 0.0150663 -0.4026
    outer loop
      vertex 11.923 -1.12706 19.0255
      vertex 11.8635 0.170089 19.2094
      vertex 11.8644 0.170585 19.2072
    endloop
  endfacet
  facet normal -0.915293 0.0150514 -0.402507
    outer loop
      vertex 11.8635 0.170089 19.2094
      vertex 11.923 -1.12706 19.0255
      vertex 11.491 -1.34833 19.9995
    endloop
  endfacet
  facet normal -0.512316 0.628273 -0.585496
    outer loop
      vertex 7.04416 -7.81833 21.6072
      vertex 6.29171 -7.28532 22.8376
      vertex 7.17504 -7.31666 22.031
    endloop
  endfacet
  facet normal -0.512317 0.628272 -0.585496
    outer loop
      vertex 6.29171 -7.28532 22.8376
      vertex 7.04416 -7.81833 21.6072
      vertex 5.41778 -8.86713 21.9049
    endloop
  endfacet
  facet normal -0.391256 0.618155 -0.681765
    outer loop
      vertex 5.41778 -8.86713 21.9049
      vertex 5.09307 -8.12703 22.7623
      vertex 5.14942 -7.89944 22.9363
    endloop
  endfacet
  facet normal -0.391261 0.618152 -0.681764
    outer loop
      vertex 5.14942 -7.89944 22.9363
      vertex 6.29171 -7.28532 22.8376
      vertex 5.41778 -8.86713 21.9049
    endloop
  endfacet
  facet normal -0.391255 0.618156 -0.681764
    outer loop
      vertex 4.63128 -7.07451 23.9816
      vertex 5.14942 -7.89944 22.9363
      vertex 4.984 -7.87843 23.0503
    endloop
  endfacet
  facet normal -0.391261 0.618152 -0.681764
    outer loop
      vertex 5.14942 -7.89944 22.9363
      vertex 4.63128 -7.07451 23.9816
      vertex 6.29171 -7.28532 22.8376
    endloop
  endfacet
  facet normal -0.44386 0.0239713 -0.895775
    outer loop
      vertex 5.8369 -0.00128245 25.6557
      vertex 5.97359 -0.029131 25.5873
      vertex 5.76013 -0.213765 25.6881
    endloop
  endfacet
  facet normal -0.781509 0.586263 -0.2134
    outer loop
      vertex 10.0944 -7.52656 16.8768
      vertex 9.59779 -8.34523 16.4465
      vertex 9.17899 -8.55977 17.3908
    endloop
  endfacet
endsolid OpenSCAD_Model
