solid OpenSCAD_Model
  facet normal 0.922683 0.0831174 -0.376493
    outer loop
      vertex 6.62717 -1.4396 21.0723
      vertex 6.16113 -1.29909 19.9611
      vertex 6.13382 -0.802054 20.0039
    endloop
  endfacet
  facet normal 0.922683 0.0831189 -0.376493
    outer loop
      vertex 6.62717 -1.4396 21.0723
      vertex 6.16081 -1.36055 19.9468
      vertex 6.16113 -1.29909 19.9611
    endloop
  endfacet
  facet normal 0.922683 0.083117 -0.376493
    outer loop
      vertex 6.62717 -1.4396 21.0723
      vertex 6.15938 -1.6401 19.8816
      vertex 6.16081 -1.36055 19.9468
    endloop
  endfacet
  facet normal 0.922683 0.0831169 -0.376493
    outer loop
      vertex 6.61832 -3.16327 20.6701
      vertex 6.15938 -1.6401 19.8816
      vertex 6.62717 -1.4396 21.0723
    endloop
  endfacet
  facet normal 0.922683 0.083117 -0.376493
    outer loop
      vertex 6.15938 -1.6401 19.8816
      vertex 6.61832 -3.16327 20.6701
      vertex 6.1407 -2.67239 19.6079
    endloop
  endfacet
  facet normal 0.922683 0.0831176 -0.376493
    outer loop
      vertex 6.1407 -2.67239 19.6079
      vertex 6.61832 -3.16327 20.6701
      vertex 6.13627 -2.9173 19.543
    endloop
  endfacet
  facet normal 0.922683 0.0831176 -0.376493
    outer loop
      vertex 6.6169 -3.24169 20.6493
      vertex 6.13627 -2.9173 19.543
      vertex 6.61832 -3.16327 20.6701
    endloop
  endfacet
  facet normal 0.922683 0.0831171 -0.376493
    outer loop
      vertex 6.6169 -3.24169 20.6493
      vertex 6.05021 -3.92232 19.1102
      vertex 6.13627 -2.9173 19.543
    endloop
  endfacet
  facet normal 0.922683 0.0831166 -0.376493
    outer loop
      vertex 6.50124 -4.59234 20.0676
      vertex 6.05021 -3.92232 19.1102
      vertex 6.6169 -3.24169 20.6493
    endloop
  endfacet
  facet normal 0.922683 0.0831156 -0.376493
    outer loop
      vertex 6.05021 -3.92232 19.1102
      vertex 6.50124 -4.59234 20.0676
      vertex 6.00413 -4.46043 18.8785
    endloop
  endfacet
  facet normal 0.922683 0.0831173 -0.376493
    outer loop
      vertex 6.46957 -4.96219 19.9084
      vertex 6.00413 -4.46043 18.8785
      vertex 6.50124 -4.59234 20.0676
    endloop
  endfacet
  facet normal 0.922683 0.0831171 -0.376493
    outer loop
      vertex 6.37057 -5.57522 19.5304
      vertex 6.00413 -4.46043 18.8785
      vertex 6.46957 -4.96219 19.9084
    endloop
  endfacet
  facet normal 0.922683 0.0831168 -0.376494
    outer loop
      vertex 6.00413 -4.46043 18.8785
      vertex 6.37057 -5.57522 19.5304
      vertex 5.91845 -4.99095 18.5514
    endloop
  endfacet
  facet normal -0.92018 -0.0652044 0.386027
    outer loop
      vertex 4.38702 -4.28453 20.0647
      vertex 4.87557 -4.38097 21.213
      vertex 4.42909 -3.80398 20.2461
    endloop
  endfacet
  facet normal -0.92018 -0.0652063 0.386027
    outer loop
      vertex 4.38702 -4.28453 20.0647
      vertex 4.86147 -4.54207 21.1521
      vertex 4.87557 -4.38097 21.213
    endloop
  endfacet
  facet normal -0.92018 -0.065206 0.386027
    outer loop
      vertex 4.38702 -4.28453 20.0647
      vertex 4.8415 -4.77015 21.066
      vertex 4.86147 -4.54207 21.1521
    endloop
  endfacet
  facet normal -0.92018 -0.0652058 0.386027
    outer loop
      vertex 4.74123 -5.39621 20.7213
      vertex 4.38702 -4.28453 20.0647
      vertex 4.30024 -4.82633 19.7663
    endloop
  endfacet
  facet normal -0.92018 -0.0652056 0.386027
    outer loop
      vertex 4.38702 -4.28453 20.0647
      vertex 4.74123 -5.39621 20.7213
      vertex 4.8415 -4.77015 21.066
    endloop
  endfacet
  facet normal -0.353553 -0.866026 -0.353554
    outer loop
      vertex 2.70625 -6.23827 19.4822
      vertex 3.64171 -6.91946 20.2153
      vertex 3.15273 -6.81526 20.449
    endloop
  endfacet
  facet normal -0.353554 -0.866025 -0.353553
    outer loop
      vertex 3.64171 -6.91946 20.2153
      vertex 3.19523 -6.34247 19.2484
      vertex 4.26118 -7.00477 19.8048
    endloop
  endfacet
  facet normal -0.353553 -0.866026 -0.353554
    outer loop
      vertex 3.64171 -6.91946 20.2153
      vertex 2.70625 -6.23827 19.4822
      vertex 3.19523 -6.34247 19.2484
    endloop
  endfacet
  facet normal -0.353554 -0.866025 -0.353553
    outer loop
      vertex 3.83392 -6.43043 18.8252
      vertex 4.26118 -7.00477 19.8048
      vertex 3.19523 -6.34247 19.2484
    endloop
  endfacet
  facet normal -0.353553 -0.866026 -0.353554
    outer loop
      vertex 4.26118 -7.00477 19.8048
      vertex 3.83392 -6.43043 18.8252
      vertex 4.42841 -7.0278 19.694
    endloop
  endfacet
  facet normal -0.353554 -0.866025 -0.353553
    outer loop
      vertex 4.42841 -7.0278 19.694
      vertex 3.83392 -6.43043 18.8252
      vertex 3.98192 -6.45081 18.7271
    endloop
  endfacet
  facet normal 0.353554 0.866025 0.353553
    outer loop
      vertex 3.91217 -4.77288 20.0235
      vertex 4.35316 -5.34277 20.9784
      vertex 4.74123 -5.39621 20.7213
    endloop
  endfacet
  facet normal 0.353547 0.866027 0.353557
    outer loop
      vertex 3.83359 -4.75614 20.061
      vertex 4.35316 -5.34277 20.9784
      vertex 3.91217 -4.77288 20.0235
    endloop
  endfacet
  facet normal 0.353547 0.866027 0.353557
    outer loop
      vertex 4.35316 -5.34277 20.9784
      vertex 3.83359 -4.75614 20.061
      vertex 4.27458 -5.32602 21.016
    endloop
  endfacet
  facet normal 0.353554 0.866025 0.353553
    outer loop
      vertex 3.91217 -4.77288 20.0235
      vertex 4.74123 -5.39621 20.7213
      vertex 4.30024 -4.82633 19.7663
    endloop
  endfacet
  facet normal 0.922683 0.0831174 -0.376493
    outer loop
      vertex 6.23773 -6.39776 19.0233
      vertex 5.91845 -4.99095 18.5514
      vertex 6.37057 -5.57522 19.5304
    endloop
  endfacet
  facet normal 0.922683 0.0831177 -0.376493
    outer loop
      vertex 5.91845 -4.99095 18.5514
      vertex 6.23773 -6.39776 19.0233
      vertex 5.78561 -5.81349 18.0442
    endloop
  endfacet
  facet normal -0.74413 0.363429 0.560526
    outer loop
      vertex 1.51261 -5.1031 20.5771
      vertex 2.5262 -4.93899 21.8163
      vertex 2.07408 -4.35472 20.8373
    endloop
  endfacet
  facet normal -0.74413 0.363429 0.560526
    outer loop
      vertex 2.5262 -4.93899 21.8163
      vertex 1.51261 -5.1031 20.5771
      vertex 1.96473 -5.68737 21.5562
    endloop
  endfacet
  facet normal -0.744129 0.36343 0.560527
    outer loop
      vertex 1.45623 -5.17824 20.551
      vertex 1.96473 -5.68737 21.5562
      vertex 1.51261 -5.1031 20.5771
    endloop
  endfacet
  facet normal -0.74413 0.36343 0.560527
    outer loop
      vertex 1.45623 -5.17824 20.551
      vertex 1.85203 -5.83758 21.504
      vertex 1.96473 -5.68737 21.5562
    endloop
  endfacet
  facet normal -0.74413 0.363429 0.560526
    outer loop
      vertex 0.793833 -5.90296 20.1415
      vertex 1.85203 -5.83758 21.504
      vertex 1.45623 -5.17824 20.551
    endloop
  endfacet
  facet normal -0.74413 0.363429 0.560526
    outer loop
      vertex 1.34851 -6.38847 21.1927
      vertex 0.793833 -5.90296 20.1415
      vertex 0.391457 -6.3432 19.8928
    endloop
  endfacet
  facet normal -0.74413 0.363429 0.560526
    outer loop
      vertex 0.793833 -5.90296 20.1415
      vertex 1.34851 -6.38847 21.1927
      vertex 1.85203 -5.83758 21.504
    endloop
  endfacet
  facet normal -0.74413 0.363429 0.560526
    outer loop
      vertex 0.277127 -7.47989 20.478
      vertex 0.391457 -6.3432 19.8928
      vertex -0.2752 -6.9337 19.3906
    endloop
  endfacet
  facet normal -0.74413 0.363429 0.560526
    outer loop
      vertex 0.391457 -6.3432 19.8928
      vertex 0.664869 -7.13644 20.7701
      vertex 1.34851 -6.38847 21.1927
    endloop
  endfacet
  facet normal -0.744131 0.363429 0.560526
    outer loop
      vertex 0.391457 -6.3432 19.8928
      vertex 0.277127 -7.47989 20.478
      vertex 0.664869 -7.13644 20.7701
    endloop
  endfacet
  facet normal -0.744129 0.363431 0.560527
    outer loop
      vertex 0.277127 -7.47989 20.478
      vertex -0.2752 -6.9337 19.3906
      vertex 0.200189 -7.54804 20.4201
    endloop
  endfacet
  facet normal -0.859715 0.151895 0.487666
    outer loop
      vertex -0.251487 -8.21874 19.8327
      vertex -0.585681 -7.39163 18.9859
      vertex -0.637411 -7.45009 18.9129
    endloop
  endfacet
  facet normal -0.859717 0.151891 0.487663
    outer loop
      vertex -0.251487 -8.21874 19.8327
      vertex -0.2752 -6.9337 19.3906
      vertex -0.567633 -7.36794 19.0103
    endloop
  endfacet
  facet normal -0.859723 0.151882 0.487656
    outer loop
      vertex -0.251487 -8.21874 19.8327
      vertex -0.567633 -7.36794 19.0103
      vertex -0.576927 -7.38174 18.9982
    endloop
  endfacet
  facet normal -0.859713 0.151898 0.487669
    outer loop
      vertex -0.585681 -7.39163 18.9859
      vertex -0.251487 -8.21874 19.8327
      vertex -0.576927 -7.38174 18.9982
    endloop
  endfacet
  facet normal -0.859718 0.151888 0.487662
    outer loop
      vertex -0.251487 -8.21874 19.8327
      vertex -0.637411 -7.45009 18.9129
      vertex -0.7509 -7.57335 18.7512
    endloop
  endfacet
  facet normal -0.859717 0.151891 0.487663
    outer loop
      vertex -0.2752 -6.9337 19.3906
      vertex -0.251487 -8.21874 19.8327
      vertex 0.200189 -7.54804 20.4201
    endloop
  endfacet
  facet normal -0.353553 -0.866025 -0.353554
    outer loop
      vertex -0.440636 -7.66256 18.6595
      vertex 0.819905 -8.51958 19.4982
      vertex -0.251487 -8.21874 19.8327
    endloop
  endfacet
  facet normal -0.353553 -0.866025 -0.353553
    outer loop
      vertex 0.653915 -7.96991 18.3178
      vertex 0.819905 -8.51958 19.4982
      vertex -0.440636 -7.66256 18.6595
    endloop
  endfacet
  facet normal -0.353558 -0.866025 -0.353551
    outer loop
      vertex -0.718376 -7.58457 18.7462
      vertex -0.251487 -8.21874 19.8327
      vertex -0.7509 -7.57335 18.7512
    endloop
  endfacet
  facet normal -0.353553 -0.866025 -0.353554
    outer loop
      vertex -0.440636 -7.66256 18.6595
      vertex -0.251487 -8.21874 19.8327
      vertex -0.718376 -7.58457 18.7462
    endloop
  endfacet
  facet normal -0.353558 -0.866024 -0.353552
    outer loop
      vertex 0.819905 -8.51958 19.4982
      vertex 0.653915 -7.96991 18.3178
      vertex 0.956061 -8.55781 19.4557
    endloop
  endfacet
  facet normal -0.353553 -0.866025 -0.353554
    outer loop
      vertex 0.956061 -8.55781 19.4557
      vertex 0.653915 -7.96991 18.3178
      vertex 1.39732 -8.65184 19.2448
    endloop
  endfacet
  facet normal -0.353553 -0.866025 -0.353554
    outer loop
      vertex 1.39732 -8.65184 19.2448
      vertex 0.653915 -7.96991 18.3178
      vertex 0.912219 -8.02495 18.1943
    endloop
  endfacet
  facet normal 0.7515 -0.352711 -0.557533
    outer loop
      vertex 3.15273 -6.81526 20.449
      vertex 2.59629 -6.36849 19.4163
      vertex 2.70625 -6.23827 19.4822
    endloop
  endfacet
  facet normal 0.751501 -0.352708 -0.557533
    outer loop
      vertex 3.15273 -6.81526 20.449
      vertex 2.22592 -6.80707 19.1946
      vertex 2.59629 -6.36849 19.4163
    endloop
  endfacet
  facet normal 0.751502 -0.352708 -0.557533
    outer loop
      vertex 2.4963 -7.59259 20.056
      vertex 2.22592 -6.80707 19.1946
      vertex 3.15273 -6.81526 20.449
    endloop
  endfacet
  facet normal 0.751501 -0.352708 -0.557533
    outer loop
      vertex 2.22592 -6.80707 19.1946
      vertex 2.4963 -7.59259 20.056
      vertex 1.52459 -7.48305 18.6769
    endloop
  endfacet
  facet normal 0.751501 -0.352709 -0.557532
    outer loop
      vertex 1.9687 -8.10112 19.6665
      vertex 1.52459 -7.48305 18.6769
      vertex 2.4963 -7.59259 20.056
    endloop
  endfacet
  facet normal 0.751501 -0.352709 -0.557532
    outer loop
      vertex 1.52459 -7.48305 18.6769
      vertex 1.9687 -8.10112 19.6665
      vertex 1.15085 -7.84328 18.401
    endloop
  endfacet
  facet normal 0.751502 -0.352707 -0.557532
    outer loop
      vertex 1.39732 -8.65184 19.2448
      vertex 1.15085 -7.84328 18.401
      vertex 1.9687 -8.10112 19.6665
    endloop
  endfacet
  facet normal 0.751502 -0.352707 -0.557532
    outer loop
      vertex 1.15085 -7.84328 18.401
      vertex 1.39732 -8.65184 19.2448
      vertex 0.912219 -8.02495 18.1943
    endloop
  endfacet
  facet normal 0.859718 -0.15189 -0.487663
    outer loop
      vertex 5.67574 -8.46463 17.1897
      vertex 5.09057 -7.94087 15.9949
      vertex 5.1754 -7.81805 16.1062
    endloop
  endfacet
  facet normal 0.859717 -0.151891 -0.487663
    outer loop
      vertex 5.09057 -7.94087 15.9949
      vertex 5.67574 -8.46463 17.1897
      vertex 5.21795 -9.12743 16.5891
    endloop
  endfacet
  facet normal 0.859717 -0.151891 -0.487663
    outer loop
      vertex 5.09057 -7.94087 15.9949
      vertex 5.21795 -9.12743 16.5891
      vertex 4.86959 -8.26081 15.705
    endloop
  endfacet
  facet normal 0.859717 -0.151891 -0.487664
    outer loop
      vertex 4.86959 -8.26081 15.705
      vertex 5.21795 -9.12743 16.5891
      vertex 4.6945 -8.45097 15.4556
    endloop
  endfacet
  facet normal 0.922683 0.0831139 -0.376495
    outer loop
      vertex 6.23773 -6.39776 19.0233
      vertex 5.77227 -5.89608 17.9933
      vertex 5.78561 -5.81349 18.0442
    endloop
  endfacet
  facet normal 0.922684 0.0831198 -0.376492
    outer loop
      vertex 6.21107 -6.56285 18.9215
      vertex 5.77227 -5.89608 17.9933
      vertex 6.23773 -6.39776 19.0233
    endloop
  endfacet
  facet normal 0.922683 0.0831173 -0.376494
    outer loop
      vertex 5.91388 -7.74193 17.9328
      vertex 5.77227 -5.89608 17.9933
      vertex 6.21107 -6.56285 18.9215
    endloop
  endfacet
  facet normal 0.922683 0.0831173 -0.376493
    outer loop
      vertex 5.77227 -5.89608 17.9933
      vertex 5.91388 -7.74193 17.9328
      vertex 5.48849 -7.02198 17.0493
    endloop
  endfacet
  facet normal 0.922683 0.0831174 -0.376493
    outer loop
      vertex 5.48849 -7.02198 17.0493
      vertex 5.91388 -7.74193 17.9328
      vertex 5.45404 -7.14169 16.9384
    endloop
  endfacet
  facet normal 0.922683 0.0831168 -0.376494
    outer loop
      vertex 5.84776 -8.00426 17.7129
      vertex 5.45404 -7.14169 16.9384
      vertex 5.91388 -7.74193 17.9328
    endloop
  endfacet
  facet normal 0.922684 0.0831194 -0.376491
    outer loop
      vertex 5.45404 -7.14169 16.9384
      vertex 5.84776 -8.00426 17.7129
      vertex 5.44208 -7.18327 16.8999
    endloop
  endfacet
  facet normal 0.922684 0.0831184 -0.376492
    outer loop
      vertex 5.80453 -8.12165 17.581
      vertex 5.44208 -7.18327 16.8999
      vertex 5.84776 -8.00426 17.7129
    endloop
  endfacet
  facet normal 0.922683 0.083117 -0.376494
    outer loop
      vertex 5.69571 -8.41708 17.2491
      vertex 5.44208 -7.18327 16.8999
      vertex 5.80453 -8.12165 17.581
    endloop
  endfacet
  facet normal 0.922683 0.0831172 -0.376493
    outer loop
      vertex 5.44208 -7.18327 16.8999
      vertex 5.69571 -8.41708 17.2491
      vertex 5.1754 -7.81805 16.1062
    endloop
  endfacet
  facet normal 0.922684 0.0831198 -0.376492
    outer loop
      vertex 5.1754 -7.81805 16.1062
      vertex 5.69571 -8.41708 17.2491
      vertex 5.67574 -8.46463 17.1897
    endloop
  endfacet
  facet normal -0.35354 -0.866028 -0.353561
    outer loop
      vertex 3.31707 -8.42609 16.772
      vertex 3.86127 -9.07109 17.8078
      vertex 3.8108 -9.06414 17.8412
    endloop
  endfacet
  facet normal -0.353557 -0.866025 -0.353551
    outer loop
      vertex 3.86127 -9.07109 17.8078
      vertex 3.31707 -8.42609 16.772
      vertex 3.97201 -9.07648 17.7102
    endloop
  endfacet
  facet normal -0.353554 -0.866025 -0.353553
    outer loop
      vertex 4.09539 -8.46396 16.0865
      vertex 3.97201 -9.07648 17.7102
      vertex 3.31707 -8.42609 16.772
    endloop
  endfacet
  facet normal -0.353553 -0.866025 -0.353553
    outer loop
      vertex 3.97201 -9.07648 17.7102
      vertex 4.09539 -8.46396 16.0865
      vertex 5.13226 -9.13293 16.6882
    endloop
  endfacet
  facet normal -0.353553 -0.866025 -0.353553
    outer loop
      vertex 4.32129 -8.47495 15.8875
      vertex 5.13226 -9.13293 16.6882
      vertex 4.09539 -8.46396 16.0865
    endloop
  endfacet
  facet normal -0.353554 -0.866025 -0.353552
    outer loop
      vertex 5.13226 -9.13293 16.6882
      vertex 4.32129 -8.47495 15.8875
      vertex 5.21795 -9.12743 16.5891
    endloop
  endfacet
  facet normal -0.353552 -0.866025 -0.353555
    outer loop
      vertex 4.51805 -8.46231 15.6598
      vertex 5.21795 -9.12743 16.5891
      vertex 4.32129 -8.47495 15.8875
    endloop
  endfacet
  facet normal -0.353554 -0.866025 -0.353553
    outer loop
      vertex 5.21795 -9.12743 16.5891
      vertex 4.51805 -8.46231 15.6598
      vertex 4.6945 -8.45097 15.4556
    endloop
  endfacet
  facet normal -0.920852 -0.0697518 0.383624
    outer loop
      vertex 4.37351 -7.25619 19.5206
      vertex 3.98192 -6.45081 18.7271
      vertex 3.83129 -7.07749 18.2516
    endloop
  endfacet
  facet normal -0.920852 -0.0697522 0.383623
    outer loop
      vertex 3.98192 -6.45081 18.7271
      vertex 4.37351 -7.25619 19.5206
      vertex 4.42841 -7.0278 19.694
    endloop
  endfacet
  facet normal -0.920852 -0.0697504 0.383624
    outer loop
      vertex 3.83129 -7.07749 18.2516
      vertex 4.22255 -7.88423 19.0441
      vertex 4.37351 -7.25619 19.5206
    endloop
  endfacet
  facet normal -0.920852 -0.069751 0.383623
    outer loop
      vertex 4.11056 -8.20515 18.7169
      vertex 3.83129 -7.07749 18.2516
      vertex 3.46077 -8.13925 17.1691
    endloop
  endfacet
  facet normal -0.920852 -0.069751 0.383623
    outer loop
      vertex 3.83129 -7.07749 18.2516
      vertex 4.11056 -8.20515 18.7169
      vertex 4.22255 -7.88423 19.0441
    endloop
  endfacet
  facet normal -0.920851 -0.0697503 0.383625
    outer loop
      vertex 3.8108 -9.06414 17.8412
      vertex 3.46077 -8.13925 17.1691
      vertex 3.4262 -8.22876 17.0699
    endloop
  endfacet
  facet normal -0.920851 -0.0697504 0.383625
    outer loop
      vertex 3.8108 -9.06414 17.8412
      vertex 3.4262 -8.22876 17.0699
      vertex 3.31707 -8.42609 16.772
    endloop
  endfacet
  facet normal -0.920852 -0.0697514 0.383623
    outer loop
      vertex 3.46077 -8.13925 17.1691
      vertex 3.8108 -9.06414 17.8412
      vertex 4.11056 -8.20515 18.7169
    endloop
  endfacet
  facet normal -0.744129 0.363429 0.560527
    outer loop
      vertex 4.02157 -0.933098 21.2042
      vertex 4.68712 -1.10862 22.2016
      vertex 4.19377 -0.471074 21.1333
    endloop
  endfacet
  facet normal -0.74413 0.363428 0.560527
    outer loop
      vertex 3.85397 -1.28488 21.2098
      vertex 4.68712 -1.10862 22.2016
      vertex 4.02157 -0.933098 21.2042
    endloop
  endfacet
  facet normal -0.74413 0.36343 0.560526
    outer loop
      vertex 3.85397 -1.28488 21.2098
      vertex 4.12215 -2.29442 22.2204
      vertex 4.68712 -1.10862 22.2016
    endloop
  endfacet
  facet normal -0.74413 0.363429 0.560526
    outer loop
      vertex 3.30008 -2.44743 21.2282
      vertex 4.12215 -2.29442 22.2204
      vertex 3.85397 -1.28488 21.2098
    endloop
  endfacet
  facet normal -0.744131 0.363428 0.560526
    outer loop
      vertex 3.30008 -2.44743 21.2282
      vertex 3.89348 -2.77437 22.228
      vertex 4.12215 -2.29442 22.2204
    endloop
  endfacet
  facet normal -0.74413 0.363429 0.560526
    outer loop
      vertex 3.02777 -2.91089 21.1672
      vertex 3.89348 -2.77437 22.228
      vertex 3.30008 -2.44743 21.2282
    endloop
  endfacet
  facet normal -0.74413 0.363431 0.560526
    outer loop
      vertex 3.02777 -2.91089 21.1672
      vertex 3.73442 -3.04508 22.1924
      vertex 3.89348 -2.77437 22.228
    endloop
  endfacet
  facet normal -0.744131 0.363428 0.560526
    outer loop
      vertex 2.5521 -3.68374 21.0368
      vertex 3.73442 -3.04508 22.1924
      vertex 3.02777 -2.91089 21.1672
    endloop
  endfacet
  facet normal -0.744131 0.363428 0.560526
    outer loop
      vertex 3.04818 -4.21304 22.0386
      vertex 2.5521 -3.68374 21.0368
      vertex 2.43622 -3.87203 21.0051
    endloop
  endfacet
  facet normal -0.744131 0.363429 0.560526
    outer loop
      vertex 2.5521 -3.68374 21.0368
      vertex 3.04818 -4.21304 22.0386
      vertex 3.73442 -3.04508 22.1924
    endloop
  endfacet
  facet normal -0.744131 0.363428 0.560526
    outer loop
      vertex 2.43622 -3.87203 21.0051
      vertex 2.96494 -4.34828 22.0158
      vertex 3.04818 -4.21304 22.0386
    endloop
  endfacet
  facet normal -0.74413 0.36343 0.560526
    outer loop
      vertex 2.94466 -4.38123 22.0102
      vertex 2.43622 -3.87203 21.0051
      vertex 2.07408 -4.35472 20.8373
    endloop
  endfacet
  facet normal -0.744124 0.36344 0.560528
    outer loop
      vertex 2.43622 -3.87203 21.0051
      vertex 2.94466 -4.38123 22.0102
      vertex 2.96494 -4.34828 22.0158
    endloop
  endfacet
  facet normal -0.744131 0.363428 0.560526
    outer loop
      vertex 2.94466 -4.38123 22.0102
      vertex 2.07408 -4.35472 20.8373
      vertex 2.5262 -4.93899 21.8163
    endloop
  endfacet
  facet normal 0.74739 -0.358721 -0.559221
    outer loop
      vertex 4.87557 -4.38097 21.213
      vertex 4.17936 -4.25593 20.2023
      vertex 4.42909 -3.80398 20.2461
    endloop
  endfacet
  facet normal 0.74739 -0.358719 -0.559221
    outer loop
      vertex 4.73394 -4.6373 21.1881
      vertex 4.17936 -4.25593 20.2023
      vertex 4.87557 -4.38097 21.213
    endloop
  endfacet
  facet normal 0.74739 -0.358719 -0.559221
    outer loop
      vertex 4.17936 -4.25593 20.2023
      vertex 4.73394 -4.6373 21.1881
      vertex 4.03633 -4.46875 20.1476
    endloop
  endfacet
  facet normal 0.747389 -0.358721 -0.559221
    outer loop
      vertex 4.67333 -4.74699 21.1775
      vertex 4.03633 -4.46875 20.1476
      vertex 4.73394 -4.6373 21.1881
    endloop
  endfacet
  facet normal 0.74739 -0.35872 -0.559221
    outer loop
      vertex 4.47732 -5.03863 21.1026
      vertex 4.03633 -4.46875 20.1476
      vertex 4.67333 -4.74699 21.1775
    endloop
  endfacet
  facet normal 0.747389 -0.35872 -0.559222
    outer loop
      vertex 4.03633 -4.46875 20.1476
      vertex 4.47732 -5.03863 21.1026
      vertex 3.83359 -4.75614 20.061
    endloop
  endfacet
  facet normal 0.747389 -0.358721 -0.559221
    outer loop
      vertex 3.83359 -4.75614 20.061
      vertex 4.47732 -5.03863 21.1026
      vertex 4.27458 -5.32602 21.016
    endloop
  endfacet
  facet normal 0.353554 0.866025 0.353553
    outer loop
      vertex 5.19183 0.362382 20.68
      vertex 5.68676 -0.277213 21.7517
      vertex 6.31906 -0.364289 21.3327
    endloop
  endfacet
  facet normal 0.353552 0.866026 0.353554
    outer loop
      vertex 6.07653 0.240547 20.0937
      vertex 6.31906 -0.364289 21.3327
      vertex 6.57146 -0.399047 21.1655
    endloop
  endfacet
  facet normal 0.353553 0.866025 0.353554
    outer loop
      vertex 4.55498 0.498089 20.9844
      vertex 5.68676 -0.277213 21.7517
      vertex 5.19183 0.362382 20.68
    endloop
  endfacet
  facet normal 0.353553 0.866025 0.353553
    outer loop
      vertex 5.68676 -0.277213 21.7517
      vertex 4.55498 0.498089 20.9844
      vertex 5.04992 -0.141505 22.0562
    endloop
  endfacet
  facet normal 0.353553 0.866025 0.353554
    outer loop
      vertex 6.31906 -0.364289 21.3327
      vertex 6.07653 0.240547 20.0937
      vertex 5.19183 0.362382 20.68
    endloop
  endfacet
  facet normal 0.922683 0.0831179 -0.376493
    outer loop
      vertex 6.57146 -0.399047 21.1655
      vertex 6.08791 0.0334645 20.0759
      vertex 6.07653 0.240547 20.0937
    endloop
  endfacet
  facet normal 0.922683 0.0831166 -0.376493
    outer loop
      vertex 6.57146 -0.399047 21.1655
      vertex 6.13382 -0.802054 20.0039
      vertex 6.08791 0.0334645 20.0759
    endloop
  endfacet
  facet normal 0.922683 0.083118 -0.376494
    outer loop
      vertex 6.59655 -0.85562 21.1261
      vertex 6.13382 -0.802054 20.0039
      vertex 6.57146 -0.399047 21.1655
    endloop
  endfacet
  facet normal 0.922683 0.0831169 -0.376494
    outer loop
      vertex 6.62729 -1.41508 21.078
      vertex 6.13382 -0.802054 20.0039
      vertex 6.59655 -0.85562 21.1261
    endloop
  endfacet
  facet normal 0.922683 0.0831152 -0.376494
    outer loop
      vertex 6.13382 -0.802054 20.0039
      vertex 6.62729 -1.41508 21.078
      vertex 6.62717 -1.4396 21.0723
    endloop
  endfacet
  facet normal -0.74413 0.363429 0.560526
    outer loop
      vertex 4.36868 -0.00178493 21.0612
      vertex 5.04992 -0.141505 22.0562
      vertex 4.55498 0.498089 20.9844
    endloop
  endfacet
  facet normal -0.74413 0.363429 0.560526
    outer loop
      vertex 4.19377 -0.471074 21.1333
      vertex 5.04992 -0.141505 22.0562
      vertex 4.36868 -0.00178493 21.0612
    endloop
  endfacet
  facet normal -0.74413 0.363429 0.560526
    outer loop
      vertex 4.19377 -0.471074 21.1333
      vertex 4.69791 -1.08597 22.2012
      vertex 5.04992 -0.141505 22.0562
    endloop
  endfacet
  facet normal -0.744145 0.363407 0.560521
    outer loop
      vertex 4.69791 -1.08597 22.2012
      vertex 4.19377 -0.471074 21.1333
      vertex 4.68712 -1.10862 22.2016
    endloop
  endfacet
  facet normal 0.353553 0.866025 0.353554
    outer loop
      vertex 9.39315 -2.93655 17.7736
      vertex 8.48658 -2.31646 17.1613
      vertex 8.38988 -2.33783 17.3103
    endloop
  endfacet
  facet normal 0.353553 0.866025 0.353554
    outer loop
      vertex 9.95656 -2.81208 16.9053
      vertex 8.48658 -2.31646 17.1613
      vertex 9.39315 -2.93655 17.7736
    endloop
  endfacet
  facet normal 0.353554 0.866026 0.353552
    outer loop
      vertex 9.06608 -2.18843 16.2682
      vertex 9.95656 -2.81208 16.9053
      vertex 10.0768 -2.78551 16.7199
    endloop
  endfacet
  facet normal 0.353553 0.866026 0.353553
    outer loop
      vertex 9.95656 -2.81208 16.9053
      vertex 9.06608 -2.18843 16.2682
      vertex 8.48658 -2.31646 17.1613
    endloop
  endfacet
  facet normal 0.353553 0.866025 0.353554
    outer loop
      vertex 9.27104 -2.09252 15.8283
      vertex 10.0768 -2.78551 16.7199
      vertex 10.3307 -2.66674 16.1752
    endloop
  endfacet
  facet normal 0.353553 0.866025 0.353554
    outer loop
      vertex 10.0768 -2.78551 16.7199
      vertex 9.27104 -2.09252 15.8283
      vertex 9.06608 -2.18843 16.2682
    endloop
  endfacet
  facet normal 0.353553 0.866025 0.353555
    outer loop
      vertex 9.27104 -2.09252 15.8283
      vertex 10.3307 -2.66674 16.1752
      vertex 9.32565 -2.06697 15.7111
    endloop
  endfacet
  facet normal -0.487662 -0.151889 0.859718
    outer loop
      vertex 8.34181 -2.8576 17.1912
      vertex 9.37152 -3.1704 17.72
      vertex 9.39315 -2.93655 17.7736
    endloop
  endfacet
  facet normal -0.487662 -0.151889 0.859718
    outer loop
      vertex 9.37152 -3.1704 17.72
      vertex 8.34181 -2.8576 17.1912
      vertex 9.25399 -3.65735 17.5673
    endloop
  endfacet
  facet normal -0.487661 -0.151885 0.85972
    outer loop
      vertex 8.3733 -2.51708 17.2692
      vertex 9.39315 -2.93655 17.7736
      vertex 8.38988 -2.33783 17.3103
    endloop
  endfacet
  facet normal -0.487662 -0.15189 0.859718
    outer loop
      vertex 8.34181 -2.8576 17.1912
      vertex 9.39315 -2.93655 17.7736
      vertex 8.3733 -2.51708 17.2692
    endloop
  endfacet
  facet normal -0.487664 -0.151891 0.859717
    outer loop
      vertex 9.25399 -3.65735 17.5673
      vertex 8.34181 -2.8576 17.1912
      vertex 8.05923 -4.02836 16.8241
    endloop
  endfacet
  facet normal -0.487664 -0.15189 0.859717
    outer loop
      vertex 9.25399 -3.65735 17.5673
      vertex 8.05923 -4.02836 16.8241
      vertex 8.96159 -4.86875 17.1875
    endloop
  endfacet
  facet normal -0.487664 -0.15189 0.859717
    outer loop
      vertex 7.97414 -4.38087 16.7135
      vertex 8.96159 -4.86875 17.1875
      vertex 8.05923 -4.02836 16.8241
    endloop
  endfacet
  facet normal -0.487664 -0.151889 0.859717
    outer loop
      vertex 7.39494 -5.79961 16.1343
      vertex 8.96159 -4.86875 17.1875
      vertex 7.97414 -4.38087 16.7135
    endloop
  endfacet
  facet normal -0.487663 -0.151891 0.859717
    outer loop
      vertex 8.96159 -4.86875 17.1875
      vertex 7.39494 -5.79961 16.1343
      vertex 8.31582 -6.45057 16.5417
    endloop
  endfacet
  facet normal -0.487663 -0.151891 0.859717
    outer loop
      vertex 7.21525 -6.09566 15.9801
      vertex 8.31582 -6.45057 16.5417
      vertex 7.39494 -5.79961 16.1343
    endloop
  endfacet
  facet normal -0.487663 -0.15189 0.859717
    outer loop
      vertex 8.31582 -6.45057 16.5417
      vertex 7.21525 -6.09566 15.9801
      vertex 7.69832 -7.46795 16.0117
    endloop
  endfacet
  facet normal -0.487663 -0.151891 0.859717
    outer loop
      vertex 6.61847 -7.0789 15.4679
      vertex 7.69832 -7.46795 16.0117
      vertex 7.21525 -6.09566 15.9801
    endloop
  endfacet
  facet normal -0.487663 -0.151891 0.859717
    outer loop
      vertex 7.69832 -7.46795 16.0117
      vertex 6.61847 -7.0789 15.4679
      vertex 7.4501 -7.87691 15.7986
    endloop
  endfacet
  facet normal -0.487663 -0.15189 0.859718
    outer loop
      vertex 6.41406 -7.31623 15.31
      vertex 7.4501 -7.87691 15.7986
      vertex 6.61847 -7.0789 15.4679
    endloop
  endfacet
  facet normal -0.487663 -0.15189 0.859718
    outer loop
      vertex 7.4501 -7.87691 15.7986
      vertex 6.41406 -7.31623 15.31
      vertex 6.65457 -8.80053 15.1842
    endloop
  endfacet
  facet normal -0.487663 -0.15189 0.859717
    outer loop
      vertex 5.66384 -8.18725 14.7306
      vertex 6.65457 -8.80053 15.1842
      vertex 6.41406 -7.31623 15.31
    endloop
  endfacet
  facet normal -0.487664 -0.151892 0.859717
    outer loop
      vertex 6.65457 -8.80053 15.1842
      vertex 5.66384 -8.18725 14.7306
      vertex 6.47424 -9.0099 15.0449
    endloop
  endfacet
  facet normal -0.487663 -0.15189 0.859717
    outer loop
      vertex 6.47424 -9.0099 15.0449
      vertex 5.66384 -8.18725 14.7306
      vertex 5.42462 -8.38351 14.5602
    endloop
  endfacet
  facet normal 0.353553 0.866026 0.353553
    outer loop
      vertex 10.6686 -2.36981 15.5117
      vertex 9.5288 -1.83313 15.3369
      vertex 10.5338 -2.43289 15.801
    endloop
  endfacet
  facet normal 0.353553 0.866026 0.353553
    outer loop
      vertex 9.72546 -1.7411 14.9148
      vertex 10.6686 -2.36981 15.5117
      vertex 10.818 -2.2999 15.1911
    endloop
  endfacet
  facet normal 0.353553 0.866025 0.353553
    outer loop
      vertex 9.72546 -1.7411 14.9148
      vertex 10.818 -2.2999 15.1911
      vertex 10.894 -2.22787 14.9387
    endloop
  endfacet
  facet normal 0.353553 0.866026 0.353553
    outer loop
      vertex 10.6686 -2.36981 15.5117
      vertex 9.72546 -1.7411 14.9148
      vertex 9.5288 -1.83313 15.3369
    endloop
  endfacet
  facet normal 0.353553 0.866025 0.353554
    outer loop
      vertex 9.72546 -1.7411 14.9148
      vertex 10.894 -2.22787 14.9387
      vertex 9.86178 -1.61187 14.462
    endloop
  endfacet
  facet normal 0.334165 -0.158945 -0.929016
    outer loop
      vertex 9.72785 -3.37378 13.1226
      vertex 10.8707 -3.49564 13.5546
      vertex 10.7218 -3.96694 13.5816
    endloop
  endfacet
  facet normal 0.334166 -0.158944 -0.929016
    outer loop
      vertex 10.8707 -3.49564 13.5546
      vertex 9.72785 -3.37378 13.1226
      vertex 10.9707 -3.17892 13.5364
    endloop
  endfacet
  facet normal 0.334166 -0.158945 -0.929016
    outer loop
      vertex 10.9707 -3.17892 13.5364
      vertex 9.72785 -3.37378 13.1226
      vertex 9.97682 -2.58577 13.0774
    endloop
  endfacet
  facet normal 0.483151 0.871835 0.0804261
    outer loop
      vertex 10.9112 -2.23113 14.8708
      vertex 9.86178 -1.61187 14.462
      vertex 10.894 -2.22787 14.9387
    endloop
  endfacet
  facet normal 0.483153 0.871835 0.0804216
    outer loop
      vertex 10.9112 -2.23113 14.8708
      vertex 10.0252 -1.64291 13.8165
      vertex 9.86178 -1.61187 14.462
    endloop
  endfacet
  facet normal 0.483153 0.871835 0.080421
    outer loop
      vertex 11.179 -2.28201 13.813
      vertex 10.0252 -1.64291 13.8165
      vertex 10.9112 -2.23113 14.8708
    endloop
  endfacet
  facet normal 0.483153 0.871835 0.0804212
    outer loop
      vertex 11.179 -2.28201 13.813
      vertex 10.1399 -1.66469 13.3635
      vertex 10.0252 -1.64291 13.8165
    endloop
  endfacet
  facet normal 0.483154 0.871834 0.0804197
    outer loop
      vertex 10.1399 -1.66469 13.3635
      vertex 11.179 -2.28201 13.813
      vertex 10.1432 -1.66386 13.3347
    endloop
  endfacet
  facet normal 0.192601 0.781721 0.593141
    outer loop
      vertex 9.5288 -1.83313 15.3369
      vertex 10.3307 -2.66674 16.1752
      vertex 10.5338 -2.43289 15.801
    endloop
  endfacet
  facet normal 0.192601 0.781722 0.593141
    outer loop
      vertex 10.3307 -2.66674 16.1752
      vertex 9.5288 -1.83313 15.3369
      vertex 9.32565 -2.06697 15.7111
    endloop
  endfacet
  facet normal 0.487663 0.15189 -0.859717
    outer loop
      vertex 9.97682 -2.58577 13.0774
      vertex 11.1767 -2.30977 13.8068
      vertex 10.9707 -3.17892 13.5364
    endloop
  endfacet
  facet normal 0.487663 0.151891 -0.859717
    outer loop
      vertex 10.1186 -1.98723 13.2636
      vertex 11.1767 -2.30977 13.8068
      vertex 9.97682 -2.58577 13.0774
    endloop
  endfacet
  facet normal 0.487663 0.15189 -0.859717
    outer loop
      vertex 11.179 -2.28201 13.813
      vertex 10.1253 -1.91989 13.2792
      vertex 10.1432 -1.66386 13.3347
    endloop
  endfacet
  facet normal 0.487662 0.151882 -0.85972
    outer loop
      vertex 11.179 -2.28201 13.813
      vertex 10.1206 -1.97488 13.2669
      vertex 10.1253 -1.91989 13.2792
    endloop
  endfacet
  facet normal 0.487657 0.151854 -0.859727
    outer loop
      vertex 11.179 -2.28201 13.813
      vertex 10.1201 -1.98094 13.2655
      vertex 10.1206 -1.97488 13.2669
    endloop
  endfacet
  facet normal 0.487669 0.151933 -0.859706
    outer loop
      vertex 11.179 -2.28201 13.813
      vertex 10.1186 -1.98723 13.2636
      vertex 10.1201 -1.98094 13.2655
    endloop
  endfacet
  facet normal 0.487664 0.151897 -0.859716
    outer loop
      vertex 11.1767 -2.30977 13.8068
      vertex 10.1186 -1.98723 13.2636
      vertex 11.179 -2.28201 13.813
    endloop
  endfacet
  facet normal 0.334166 -0.158943 -0.929016
    outer loop
      vertex 9.72576 -3.38038 13.123
      vertex 10.7218 -3.96694 13.5816
      vertex 10.7197 -3.97353 13.582
    endloop
  endfacet
  facet normal 0.334101 -0.159057 -0.92902
    outer loop
      vertex 10.7218 -3.96694 13.5816
      vertex 9.72576 -3.38038 13.123
      vertex 9.72785 -3.37378 13.1226
    endloop
  endfacet
  facet normal 0.432859 0.0280947 -0.901024
    outer loop
      vertex 8.40273 -5.49568 14.3821
      vertex 9.31967 -6.15024 14.8022
      vertex 9.26911 -6.22694 14.7755
    endloop
  endfacet
  facet normal 0.432861 0.0280981 -0.901023
    outer loop
      vertex 9.31967 -6.15024 14.8022
      vertex 8.40273 -5.49568 14.3821
      vertex 9.7958 -5.11955 15.0631
    endloop
  endfacet
  facet normal 0.432861 0.0280978 -0.901023
    outer loop
      vertex 9.7958 -5.11955 15.0631
      vertex 8.40273 -5.49568 14.3821
      vertex 8.83998 -4.54913 14.6217
    endloop
  endfacet
  facet normal 0.432862 0.0281001 -0.901022
    outer loop
      vertex 8.40273 -5.49568 14.3821
      vertex 9.26911 -6.22694 14.7755
      vertex 8.30138 -5.64942 14.3286
    endloop
  endfacet
  facet normal -0.353553 -0.866025 -0.353553
    outer loop
      vertex 5.93504 -8.27075 13.7736
      vertex 6.47424 -9.0099 15.0449
      vertex 5.42462 -8.38351 14.5602
    endloop
  endfacet
  facet normal -0.353554 -0.866025 -0.353553
    outer loop
      vertex 6.47424 -9.0099 15.0449
      vertex 5.93504 -8.27075 13.7736
      vertex 7.15529 -8.85944 13.9953
    endloop
  endfacet
  facet normal -0.353554 -0.866026 -0.353552
    outer loop
      vertex 6.09783 -8.23478 13.5227
      vertex 7.15529 -8.85944 13.9953
      vertex 5.93504 -8.27075 13.7736
    endloop
  endfacet
  facet normal -0.353553 -0.866025 -0.353555
    outer loop
      vertex 7.15529 -8.85944 13.9953
      vertex 6.09783 -8.23478 13.5227
      vertex 7.21648 -8.83081 13.864
    endloop
  endfacet
  facet normal -0.353553 -0.866026 -0.353553
    outer loop
      vertex 6.22264 -8.17638 13.2548
      vertex 7.21648 -8.83081 13.864
      vertex 6.09783 -8.23478 13.5227
    endloop
  endfacet
  facet normal -0.353554 -0.866026 -0.353553
    outer loop
      vertex 7.21648 -8.83081 13.864
      vertex 6.22264 -8.17638 13.2548
      vertex 7.47142 -8.71151 13.3168
    endloop
  endfacet
  facet normal -0.353553 -0.866025 -0.353553
    outer loop
      vertex 7.47142 -8.71151 13.3168
      vertex 6.22264 -8.17638 13.2548
      vertex 6.41998 -8.08404 12.8313
    endloop
  endfacet
  facet normal 0.487663 0.151891 -0.859717
    outer loop
      vertex 7.61475 -6.77998 13.7394
      vertex 8.9457 -6.75945 14.498
      vertex 8.44799 -7.57894 14.0709
    endloop
  endfacet
  facet normal 0.487663 0.15189 -0.859718
    outer loop
      vertex 8.30138 -5.64942 14.3286
      vertex 8.9457 -6.75945 14.498
      vertex 7.98045 -6.17784 14.0532
    endloop
  endfacet
  facet normal 0.487663 0.151891 -0.859717
    outer loop
      vertex 8.9457 -6.75945 14.498
      vertex 8.30138 -5.64942 14.3286
      vertex 9.26911 -6.22694 14.7755
    endloop
  endfacet
  facet normal 0.487663 0.15189 -0.859718
    outer loop
      vertex 7.12683 -7.34584 13.3626
      vertex 8.44799 -7.57894 14.0709
      vertex 7.83915 -8.28504 13.6007
    endloop
  endfacet
  facet normal 0.487663 0.151891 -0.859717
    outer loop
      vertex 8.9457 -6.75945 14.498
      vertex 7.61475 -6.77998 13.7394
      vertex 7.98045 -6.17784 14.0532
    endloop
  endfacet
  facet normal 0.487663 0.15189 -0.859718
    outer loop
      vertex 6.65943 -7.8879 13.0017
      vertex 7.83915 -8.28504 13.6007
      vertex 7.47142 -8.71151 13.3168
    endloop
  endfacet
  facet normal 0.487663 0.15189 -0.859718
    outer loop
      vertex 8.44799 -7.57894 14.0709
      vertex 7.12683 -7.34584 13.3626
      vertex 7.61475 -6.77998 13.7394
    endloop
  endfacet
  facet normal 0.487663 0.151891 -0.859717
    outer loop
      vertex 7.83915 -8.28504 13.6007
      vertex 6.65943 -7.8879 13.0017
      vertex 7.12683 -7.34584 13.3626
    endloop
  endfacet
  facet normal 0.487664 0.151892 -0.859717
    outer loop
      vertex 6.65943 -7.8879 13.0017
      vertex 7.47142 -8.71151 13.3168
      vertex 6.41998 -8.08404 12.8313
    endloop
  endfacet
  facet normal 0.204511 -0.361294 -0.909748
    outer loop
      vertex 9.20857 -3.97088 14.4749
      vertex 10.1681 -4.53545 14.9148
      vertex 9.7958 -5.11955 15.0631
    endloop
  endfacet
  facet normal 0.204539 -0.361253 -0.909758
    outer loop
      vertex 10.1681 -4.53545 14.9148
      vertex 9.20857 -3.97088 14.4749
      vertex 9.21155 -3.9646 14.473
    endloop
  endfacet
  facet normal 0.20451 -0.361294 -0.909748
    outer loop
      vertex 9.20857 -3.97088 14.4749
      vertex 9.7958 -5.11955 15.0631
      vertex 8.83998 -4.54913 14.6217
    endloop
  endfacet
  facet normal -0.180911 -0.773343 -0.607628
    outer loop
      vertex 9.30266 -3.87029 14.3259
      vertex 10.1681 -4.53545 14.9148
      vertex 9.21155 -3.9646 14.473
    endloop
  endfacet
  facet normal -0.18091 -0.773342 -0.607629
    outer loop
      vertex 10.1681 -4.53545 14.9148
      vertex 9.30266 -3.87029 14.3259
      vertex 10.267 -4.44582 14.7712
    endloop
  endfacet
  facet normal 0.334165 -0.158947 -0.929016
    outer loop
      vertex 9.6474 -3.62099 13.136
      vertex 10.6794 -4.10111 13.5893
      vertex 10.6291 -4.20684 13.5893
    endloop
  endfacet
  facet normal 0.334165 -0.158946 -0.929016
    outer loop
      vertex 10.6794 -4.10111 13.5893
      vertex 9.6474 -3.62099 13.136
      vertex 10.7197 -3.97353 13.582
    endloop
  endfacet
  facet normal 0.334166 -0.158944 -0.929016
    outer loop
      vertex 10.7197 -3.97353 13.582
      vertex 9.65439 -3.6063 13.136
      vertex 9.72576 -3.38038 13.123
    endloop
  endfacet
  facet normal 0.334175 -0.158918 -0.929017
    outer loop
      vertex 10.7197 -3.97353 13.582
      vertex 9.6474 -3.62099 13.136
      vertex 9.65439 -3.6063 13.136
    endloop
  endfacet
  facet normal -0.477187 -0.873586 -0.0956032
    outer loop
      vertex 9.31922 -3.87425 14.2794
      vertex 10.267 -4.44582 14.7712
      vertex 9.30266 -3.87029 14.3259
    endloop
  endfacet
  facet normal -0.47719 -0.873585 -0.0955974
    outer loop
      vertex 10.267 -4.44582 14.7712
      vertex 9.31922 -3.87425 14.2794
      vertex 10.3545 -4.46296 14.4913
    endloop
  endfacet
  facet normal -0.47719 -0.873585 -0.0955961
    outer loop
      vertex 9.33774 -3.87867 14.2274
      vertex 10.3545 -4.46296 14.4913
      vertex 9.31922 -3.87425 14.2794
    endloop
  endfacet
  facet normal -0.477191 -0.873585 -0.095591
    outer loop
      vertex 9.34403 -3.87887 14.1978
      vertex 10.3545 -4.46296 14.4913
      vertex 9.33774 -3.87867 14.2274
    endloop
  endfacet
  facet normal -0.477189 -0.873585 -0.0955984
    outer loop
      vertex 9.36616 -3.87955 14.0936
      vertex 10.3545 -4.46296 14.4913
      vertex 9.34403 -3.87887 14.1978
    endloop
  endfacet
  facet normal -0.477191 -0.873585 -0.0955931
    outer loop
      vertex 10.3545 -4.46296 14.4913
      vertex 9.36616 -3.87955 14.0936
      vertex 9.37554 -3.87872 14.0392
    endloop
  endfacet
  facet normal -0.353554 -0.866025 -0.353553
    outer loop
      vertex 9.37554 -3.87872 14.0392
      vertex 10.3632 -4.45889 14.4726
      vertex 10.3545 -4.46296 14.4913
    endloop
  endfacet
  facet normal -0.353553 -0.866025 -0.353553
    outer loop
      vertex 9.37554 -3.87872 14.0392
      vertex 10.6291 -4.20684 13.5893
      vertex 10.3632 -4.45889 14.4726
    endloop
  endfacet
  facet normal -0.353553 -0.866026 -0.353553
    outer loop
      vertex 10.6291 -4.20684 13.5893
      vertex 9.37554 -3.87872 14.0392
      vertex 9.6474 -3.62099 13.136
    endloop
  endfacet
  facet normal 0.210961 -0.287452 0.934274
    outer loop
      vertex 3.04818 -4.21304 22.0386
      vertex 2.96494 -4.34828 22.0158
      vertex 2.98718 -4.39317 21.9969
    endloop
  endfacet
  facet normal 0.427623 -0.0205796 0.903723
    outer loop
      vertex 5.04992 -0.141505 22.0562
      vertex 5.53908 -1.26522 21.7991
      vertex 5.68676 -0.277213 21.7517
    endloop
  endfacet
  facet normal 0.427621 -0.0205803 0.903724
    outer loop
      vertex 5.53908 -1.26522 21.7991
      vertex 5.04992 -0.141505 22.0562
      vertex 4.69791 -1.08597 22.2012
    endloop
  endfacet
  facet normal 0.906785 -0.171582 0.385097
    outer loop
      vertex 10.7915 -2.67492 15.0863
      vertex 10.5338 -2.43289 15.801
      vertex 10.3307 -2.66674 16.1752
    endloop
  endfacet
  facet normal 0.906786 -0.171581 0.385097
    outer loop
      vertex 10.5338 -2.43289 15.801
      vertex 10.7915 -2.67492 15.0863
      vertex 10.6686 -2.36981 15.5117
    endloop
  endfacet
  facet normal 0.906785 -0.171583 0.385098
    outer loop
      vertex 10.0557 -3.01926 16.6657
      vertex 10.3307 -2.66674 16.1752
      vertex 10.0768 -2.78551 16.7199
    endloop
  endfacet
  facet normal 0.906785 -0.171584 0.385097
    outer loop
      vertex 10.3307 -2.66674 16.1752
      vertex 10.0557 -3.01926 16.6657
      vertex 10.7915 -2.67492 15.0863
    endloop
  endfacet
  facet normal 0.100674 -0.557585 0.823993
    outer loop
      vertex 1.85203 -5.83758 21.504
      vertex 1.34851 -6.38847 21.1927
      vertex 2.34141 -5.97499 21.3512
    endloop
  endfacet
  facet normal 0.617402 -0.728779 0.296135
    outer loop
      vertex 7.15529 -8.85944 13.9953
      vertex 6.65457 -8.80053 15.1842
      vertex 6.47424 -9.0099 15.0449
    endloop
  endfacet
  facet normal 0.617403 -0.728777 0.296136
    outer loop
      vertex 6.65457 -8.80053 15.1842
      vertex 7.15529 -8.85944 13.9953
      vertex 8.13423 -7.72577 14.7443
    endloop
  endfacet
  facet normal 0.607439 -0.357496 0.709376
    outer loop
      vertex 6.50124 -4.59234 20.0676
      vertex 6.10845 -4.94462 20.2265
      vertex 6.46957 -4.96219 19.9084
    endloop
  endfacet
  facet normal 0.835301 -0.195039 0.514035
    outer loop
      vertex 9.37152 -3.1704 17.72
      vertex 9.95656 -2.81208 16.9053
      vertex 9.39315 -2.93655 17.7736
    endloop
  endfacet
  facet normal 0.835301 -0.195041 0.514034
    outer loop
      vertex 9.95656 -2.81208 16.9053
      vertex 9.37152 -3.1704 17.72
      vertex 10.0557 -3.01926 16.6657
    endloop
  endfacet
  facet normal 0.93735 -0.284609 0.200928
    outer loop
      vertex 10.4019 -4.3642 14.5113
      vertex 10.8707 -3.49564 13.5546
      vertex 10.7915 -2.67492 15.0863
    endloop
  endfacet
  facet normal 0.93735 -0.284609 0.200928
    outer loop
      vertex 10.8707 -3.49564 13.5546
      vertex 10.4019 -4.3642 14.5113
      vertex 10.7218 -3.96694 13.5816
    endloop
  endfacet
  facet normal 0.937337 -0.284677 0.200895
    outer loop
      vertex 10.7218 -3.96694 13.5816
      vertex 10.4019 -4.3642 14.5113
      vertex 10.7197 -3.97353 13.582
    endloop
  endfacet
  facet normal 0.93735 -0.284608 0.200928
    outer loop
      vertex 10.7197 -3.97353 13.582
      vertex 10.4019 -4.3642 14.5113
      vertex 10.6794 -4.10111 13.5893
    endloop
  endfacet
  facet normal 0.773244 -0.590309 0.23158
    outer loop
      vertex 9.00166 -6.29905 15.4847
      vertex 9.26911 -6.22694 14.7755
      vertex 9.31967 -6.15024 14.8022
    endloop
  endfacet
  facet normal 0.773244 -0.590309 0.23158
    outer loop
      vertex 9.26911 -6.22694 14.7755
      vertex 9.00166 -6.29905 15.4847
      vertex 8.9457 -6.75945 14.498
    endloop
  endfacet
  facet normal 0.37448 -0.615931 0.693105
    outer loop
      vertex 4.68239 -7.94756 18.7394
      vertex 4.37351 -7.25619 19.5206
      vertex 4.22255 -7.88423 19.0441
    endloop
  endfacet
  facet normal 0.37448 -0.61593 0.693105
    outer loop
      vertex 4.26118 -7.00477 19.8048
      vertex 3.95471 -6.31877 20.58
      vertex 3.64171 -6.91946 20.2153
    endloop
  endfacet
  facet normal 0.497155 -0.627634 0.599094
    outer loop
      vertex 4.68239 -7.94756 18.7394
      vertex 5.91388 -7.74193 17.9328
      vertex 5.46267 -6.52644 19.5807
    endloop
  endfacet
  facet normal 0.497155 -0.627633 0.599094
    outer loop
      vertex 5.91388 -7.74193 17.9328
      vertex 4.68239 -7.94756 18.7394
      vertex 5.84776 -8.00426 17.7129
    endloop
  endfacet
  facet normal 0.522726 -0.19626 0.829602
    outer loop
      vertex 5.53908 -1.26522 21.7991
      vertex 5.13298 -3.0385 21.6355
      vertex 6.60381 -3.24105 20.6608
    endloop
  endfacet
  facet normal 0.838647 -0.460883 0.290272
    outer loop
      vertex 9.64743 -4.71723 16.1305
      vertex 10.267 -4.44582 14.7712
      vertex 10.4019 -4.3642 14.5113
    endloop
  endfacet
  facet normal 0.838647 -0.460883 0.290272
    outer loop
      vertex 9.64743 -4.71723 16.1305
      vertex 10.1681 -4.53545 14.9148
      vertex 10.267 -4.44582 14.7712
    endloop
  endfacet
  facet normal 0.838648 -0.46088 0.290273
    outer loop
      vertex 9.64743 -4.71723 16.1305
      vertex 9.7958 -5.11955 15.0631
      vertex 10.1681 -4.53545 14.9148
    endloop
  endfacet
  facet normal 0.838648 -0.46088 0.290273
    outer loop
      vertex 9.00166 -6.29905 15.4847
      vertex 9.7958 -5.11955 15.0631
      vertex 9.64743 -4.71723 16.1305
    endloop
  endfacet
  facet normal 0.838648 -0.46088 0.290274
    outer loop
      vertex 9.7958 -5.11955 15.0631
      vertex 9.00166 -6.29905 15.4847
      vertex 9.31967 -6.15024 14.8022
    endloop
  endfacet
  facet normal 0.838648 -0.460881 0.290273
    outer loop
      vertex 10.3545 -4.46296 14.4913
      vertex 10.4019 -4.3642 14.5113
      vertex 10.267 -4.44582 14.7712
    endloop
  endfacet
  facet normal 0.838646 -0.460881 0.290278
    outer loop
      vertex 10.4019 -4.3642 14.5113
      vertex 10.3545 -4.46296 14.4913
      vertex 10.3632 -4.45889 14.4726
    endloop
  endfacet
  facet normal 0.937351 -0.284608 0.200928
    outer loop
      vertex 10.7915 -2.67492 15.0863
      vertex 10.9707 -3.17892 13.5364
      vertex 11.1767 -2.30977 13.8068
    endloop
  endfacet
  facet normal 0.937351 -0.284608 0.200928
    outer loop
      vertex 10.9707 -3.17892 13.5364
      vertex 10.7915 -2.67492 15.0863
      vertex 10.8707 -3.49564 13.5546
    endloop
  endfacet
  facet normal 0.422979 -0.741269 0.52116
    outer loop
      vertex 3.97201 -9.07648 17.7102
      vertex 5.69571 -8.41708 17.2491
      vertex 5.80453 -8.12165 17.581
    endloop
  endfacet
  facet normal 0.422979 -0.74127 0.521159
    outer loop
      vertex 5.69571 -8.41708 17.2491
      vertex 3.97201 -9.07648 17.7102
      vertex 5.13226 -9.13293 16.6882
    endloop
  endfacet
  facet normal 0.617403 -0.728777 0.296136
    outer loop
      vertex 7.4501 -7.87691 15.7986
      vertex 6.65457 -8.80053 15.1842
      vertex 8.13423 -7.72577 14.7443
    endloop
  endfacet
  facet normal 0.241224 -0.592387 0.768693
    outer loop
      vertex 3.95471 -6.31877 20.58
      vertex 3.15273 -6.81526 20.449
      vertex 3.64171 -6.91946 20.2153
    endloop
  endfacet
  facet normal 0.241226 -0.592389 0.768691
    outer loop
      vertex 3.15273 -6.81526 20.449
      vertex 1.63798 -7.40969 20.4663
      vertex 2.4963 -7.59259 20.056
    endloop
  endfacet
  facet normal 0.241226 -0.592389 0.768691
    outer loop
      vertex 1.63798 -7.40969 20.4663
      vertex 3.15273 -6.81526 20.449
      vertex 3.95471 -6.31877 20.58
    endloop
  endfacet
  facet normal 0.210975 -0.287444 0.934273
    outer loop
      vertex 2.96494 -4.34828 22.0158
      vertex 2.94466 -4.38123 22.0102
      vertex 2.98718 -4.39317 21.9969
    endloop
  endfacet
  facet normal 0.484759 -0.345793 0.803391
    outer loop
      vertex 4.60048 -4.73695 21.2257
      vertex 4.87557 -4.38097 21.213
      vertex 5.13298 -3.0385 21.6355
    endloop
  endfacet
  facet normal 0.484758 -0.345792 0.803391
    outer loop
      vertex 4.87557 -4.38097 21.213
      vertex 4.60048 -4.73695 21.2257
      vertex 4.73394 -4.6373 21.1881
    endloop
  endfacet
  facet normal 0.484763 -0.345793 0.803388
    outer loop
      vertex 4.87557 -4.38097 21.213
      vertex 6.60381 -3.24105 20.6608
      vertex 5.13298 -3.0385 21.6355
    endloop
  endfacet
  facet normal 0.484764 -0.345796 0.803386
    outer loop
      vertex 6.60381 -3.24105 20.6608
      vertex 4.87557 -4.38097 21.213
      vertex 4.86147 -4.54207 21.1521
    endloop
  endfacet
  facet normal 0.0411205 -0.673805 0.737764
    outer loop
      vertex 1.63798 -7.40969 20.4663
      vertex 0.819905 -8.51958 19.4982
      vertex 0.956061 -8.55781 19.4557
    endloop
  endfacet
  facet normal 0.0411191 -0.673805 0.737765
    outer loop
      vertex 0.664869 -7.13644 20.7701
      vertex 0.819905 -8.51958 19.4982
      vertex 1.63798 -7.40969 20.4663
    endloop
  endfacet
  facet normal 0.0411173 -0.673805 0.737765
    outer loop
      vertex 0.819905 -8.51958 19.4982
      vertex 0.664869 -7.13644 20.7701
      vertex 0.277127 -7.47989 20.478
    endloop
  endfacet
  facet normal 0.176487 -0.707325 0.684503
    outer loop
      vertex 0.956061 -8.55781 19.4557
      vertex 1.9687 -8.10112 19.6665
      vertex 1.63798 -7.40969 20.4663
    endloop
  endfacet
  facet normal 0.176488 -0.707326 0.684502
    outer loop
      vertex 1.9687 -8.10112 19.6665
      vertex 0.956061 -8.55781 19.4557
      vertex 1.39732 -8.65184 19.2448
    endloop
  endfacet
  facet normal 0.547901 -0.0418301 0.835497
    outer loop
      vertex 5.53908 -1.26522 21.7991
      vertex 6.59655 -0.85562 21.1261
      vertex 6.31906 -0.364289 21.3327
    endloop
  endfacet
  facet normal 0.547901 -0.0418299 0.835497
    outer loop
      vertex 5.53908 -1.26522 21.7991
      vertex 6.31906 -0.364289 21.3327
      vertex 5.68676 -0.277213 21.7517
    endloop
  endfacet
  facet normal 0.547901 -0.0418306 0.835497
    outer loop
      vertex 6.59655 -0.85562 21.1261
      vertex 5.53908 -1.26522 21.7991
      vertex 6.62729 -1.41508 21.078
    endloop
  endfacet
  facet normal 0.522736 -0.196217 0.829606
    outer loop
      vertex 5.53908 -1.26522 21.7991
      vertex 6.62717 -1.4396 21.0723
      vertex 6.62729 -1.41508 21.078
    endloop
  endfacet
  facet normal 0.522727 -0.196259 0.829602
    outer loop
      vertex 6.62717 -1.4396 21.0723
      vertex 5.53908 -1.26522 21.7991
      vertex 6.61832 -3.16327 20.6701
    endloop
  endfacet
  facet normal 0.522721 -0.196264 0.829604
    outer loop
      vertex 6.61832 -3.16327 20.6701
      vertex 5.53908 -1.26522 21.7991
      vertex 6.60381 -3.24105 20.6608
    endloop
  endfacet
  facet normal 0.640828 -0.207531 0.739101
    outer loop
      vertex 6.6169 -3.24169 20.6493
      vertex 6.61832 -3.16327 20.6701
      vertex 6.60381 -3.24105 20.6608
    endloop
  endfacet
  facet normal 0.883527 -0.320172 0.341863
    outer loop
      vertex 10.7915 -2.67492 15.0863
      vertex 9.64743 -4.71723 16.1305
      vertex 10.4019 -4.3642 14.5113
    endloop
  endfacet
  facet normal 0.699023 -0.614663 0.365454
    outer loop
      vertex 7.69832 -7.46795 16.0117
      vertex 8.13423 -7.72577 14.7443
      vertex 9.00166 -6.29905 15.4847
    endloop
  endfacet
  facet normal 0.699023 -0.614663 0.365454
    outer loop
      vertex 8.13423 -7.72577 14.7443
      vertex 7.69832 -7.46795 16.0117
      vertex 7.4501 -7.87691 15.7986
    endloop
  endfacet
  facet normal 0.30483 -0.729999 0.611702
    outer loop
      vertex 3.86127 -9.07109 17.8078
      vertex 4.11056 -8.20515 18.7169
      vertex 3.8108 -9.06414 17.8412
    endloop
  endfacet
  facet normal 0.304829 -0.729999 0.611703
    outer loop
      vertex 4.11056 -8.20515 18.7169
      vertex 3.86127 -9.07109 17.8078
      vertex 4.68239 -7.94756 18.7394
    endloop
  endfacet
  facet normal 0.89314 -0.424873 0.147594
    outer loop
      vertex 10.4019 -4.3642 14.5113
      vertex 10.6291 -4.20684 13.5893
      vertex 10.6794 -4.10111 13.5893
    endloop
  endfacet
  facet normal 0.893138 -0.424877 0.147593
    outer loop
      vertex 10.6291 -4.20684 13.5893
      vertex 10.4019 -4.3642 14.5113
      vertex 10.3632 -4.45889 14.4726
    endloop
  endfacet
  facet normal 0.699023 -0.614663 0.365454
    outer loop
      vertex 8.31582 -6.45057 16.5417
      vertex 7.69832 -7.46795 16.0117
      vertex 9.00166 -6.29905 15.4847
    endloop
  endfacet
  facet normal 0.773243 -0.59031 0.23158
    outer loop
      vertex 8.13423 -7.72577 14.7443
      vertex 8.9457 -6.75945 14.498
      vertex 9.00166 -6.29905 15.4847
    endloop
  endfacet
  facet normal 0.773243 -0.59031 0.231581
    outer loop
      vertex 8.9457 -6.75945 14.498
      vertex 8.13423 -7.72577 14.7443
      vertex 8.44799 -7.57894 14.0709
    endloop
  endfacet
  facet normal 0.39438 -0.173606 0.9024
    outer loop
      vertex 4.68712 -1.10862 22.2016
      vertex 5.53908 -1.26522 21.7991
      vertex 4.69791 -1.08597 22.2012
    endloop
  endfacet
  facet normal 0.394385 -0.173583 0.902402
    outer loop
      vertex 5.53908 -1.26522 21.7991
      vertex 4.68712 -1.10862 22.2016
      vertex 4.12215 -2.29442 22.2204
    endloop
  endfacet
  facet normal 0.157758 -0.427759 0.890019
    outer loop
      vertex 2.5262 -4.93899 21.8163
      vertex 2.98718 -4.39317 21.9969
      vertex 2.94466 -4.38123 22.0102
    endloop
  endfacet
  facet normal 0.157746 -0.427751 0.890025
    outer loop
      vertex 2.5262 -4.93899 21.8163
      vertex 2.34141 -5.97499 21.3512
      vertex 2.98718 -4.39317 21.9969
    endloop
  endfacet
  facet normal 0.157744 -0.427751 0.890026
    outer loop
      vertex 1.96473 -5.68737 21.5562
      vertex 2.34141 -5.97499 21.3512
      vertex 2.5262 -4.93899 21.8163
    endloop
  endfacet
  facet normal 0.157746 -0.427749 0.890026
    outer loop
      vertex 2.34141 -5.97499 21.3512
      vertex 1.96473 -5.68737 21.5562
      vertex 1.85203 -5.83758 21.504
    endloop
  endfacet
  facet normal 0.241225 -0.592388 0.768692
    outer loop
      vertex 3.95471 -6.31877 20.58
      vertex 2.34141 -5.97499 21.3512
      vertex 1.63798 -7.40969 20.4663
    endloop
  endfacet
  facet normal 0.100673 -0.557585 0.823993
    outer loop
      vertex 1.34851 -6.38847 21.1927
      vertex 1.63798 -7.40969 20.4663
      vertex 2.34141 -5.97499 21.3512
    endloop
  endfacet
  facet normal 0.100673 -0.557585 0.823993
    outer loop
      vertex 1.63798 -7.40969 20.4663
      vertex 1.34851 -6.38847 21.1927
      vertex 0.664869 -7.13644 20.7701
    endloop
  endfacet
  facet normal 0.300038 -0.462985 0.83404
    outer loop
      vertex 2.98718 -4.39317 21.9969
      vertex 4.47732 -5.03863 21.1026
      vertex 4.60048 -4.73695 21.2257
    endloop
  endfacet
  facet normal 0.300038 -0.462986 0.834039
    outer loop
      vertex 4.47732 -5.03863 21.1026
      vertex 2.98718 -4.39317 21.9969
      vertex 4.27458 -5.32602 21.016
    endloop
  endfacet
  facet normal 0.300038 -0.462985 0.834039
    outer loop
      vertex 2.34141 -5.97499 21.3512
      vertex 4.27458 -5.32602 21.016
      vertex 2.98718 -4.39317 21.9969
    endloop
  endfacet
  facet normal 0.300038 -0.462985 0.834039
    outer loop
      vertex 4.27458 -5.32602 21.016
      vertex 2.34141 -5.97499 21.3512
      vertex 3.95471 -6.31877 20.58
    endloop
  endfacet
  facet normal 0.300024 -0.462983 0.834045
    outer loop
      vertex 4.35316 -5.34277 20.9784
      vertex 4.27458 -5.32602 21.016
      vertex 3.95471 -6.31877 20.58
    endloop
  endfacet
  facet normal 0.351508 -0.322251 0.878974
    outer loop
      vertex 3.04818 -4.21304 22.0386
      vertex 4.60048 -4.73695 21.2257
      vertex 3.73442 -3.04508 22.1924
    endloop
  endfacet
  facet normal 0.351507 -0.322253 0.878974
    outer loop
      vertex 4.60048 -4.73695 21.2257
      vertex 3.04818 -4.21304 22.0386
      vertex 2.98718 -4.39317 21.9969
    endloop
  endfacet
  facet normal 0.906785 -0.171582 0.385097
    outer loop
      vertex 10.818 -2.2999 15.1911
      vertex 10.6686 -2.36981 15.5117
      vertex 10.7915 -2.67492 15.0863
    endloop
  endfacet
  facet normal 0.422984 -0.74127 0.521156
    outer loop
      vertex 3.97201 -9.07648 17.7102
      vertex 4.68239 -7.94756 18.7394
      vertex 3.86127 -9.07109 17.8078
    endloop
  endfacet
  facet normal 0.42298 -0.74127 0.521159
    outer loop
      vertex 5.80453 -8.12165 17.581
      vertex 4.68239 -7.94756 18.7394
      vertex 3.97201 -9.07648 17.7102
    endloop
  endfacet
  facet normal 0.422977 -0.741274 0.521157
    outer loop
      vertex 4.68239 -7.94756 18.7394
      vertex 5.80453 -8.12165 17.581
      vertex 5.84776 -8.00426 17.7129
    endloop
  endfacet
  facet normal 0.497156 -0.627633 0.599094
    outer loop
      vertex 6.21107 -6.56285 18.9215
      vertex 5.46267 -6.52644 19.5807
      vertex 5.91388 -7.74193 17.9328
    endloop
  endfacet
  facet normal 0.0411241 -0.673803 0.737766
    outer loop
      vertex 0.200189 -7.54804 20.4201
      vertex 0.819905 -8.51958 19.4982
      vertex 0.277127 -7.47989 20.478
    endloop
  endfacet
  facet normal 0.0411192 -0.673805 0.737765
    outer loop
      vertex 0.819905 -8.51958 19.4982
      vertex 0.200189 -7.54804 20.4201
      vertex -0.251487 -8.21874 19.8327
    endloop
  endfacet
  facet normal 0.559139 -0.498667 0.66234
    outer loop
      vertex 6.10845 -4.94462 20.2265
      vertex 6.37057 -5.57522 19.5304
      vertex 6.46957 -4.96219 19.9084
    endloop
  endfacet
  facet normal 0.559139 -0.498667 0.66234
    outer loop
      vertex 5.46267 -6.52644 19.5807
      vertex 6.37057 -5.57522 19.5304
      vertex 6.10845 -4.94462 20.2265
    endloop
  endfacet
  facet normal 0.559139 -0.498667 0.66234
    outer loop
      vertex 6.37057 -5.57522 19.5304
      vertex 5.46267 -6.52644 19.5807
      vertex 6.23773 -6.39776 19.0233
    endloop
  endfacet
  facet normal 0.559138 -0.49867 0.662339
    outer loop
      vertex 6.23773 -6.39776 19.0233
      vertex 5.46267 -6.52644 19.5807
      vertex 6.21107 -6.56285 18.9215
    endloop
  endfacet
  facet normal 0.547898 -0.0418325 0.835498
    outer loop
      vertex 6.57146 -0.399047 21.1655
      vertex 6.31906 -0.364289 21.3327
      vertex 6.59655 -0.85562 21.1261
    endloop
  endfacet
  facet normal 0.835302 -0.195039 0.514033
    outer loop
      vertex 10.0768 -2.78551 16.7199
      vertex 9.95656 -2.81208 16.9053
      vertex 10.0557 -3.01926 16.6657
    endloop
  endfacet
  facet normal 0.809306 -0.344525 0.475738
    outer loop
      vertex 9.64743 -4.71723 16.1305
      vertex 9.25399 -3.65735 17.5673
      vertex 8.96159 -4.86875 17.1875
    endloop
  endfacet
  facet normal 0.763507 -0.485535 0.425807
    outer loop
      vertex 8.31582 -6.45057 16.5417
      vertex 9.64743 -4.71723 16.1305
      vertex 8.96159 -4.86875 17.1875
    endloop
  endfacet
  facet normal 0.763508 -0.485536 0.425807
    outer loop
      vertex 9.64743 -4.71723 16.1305
      vertex 8.31582 -6.45057 16.5417
      vertex 9.00166 -6.29905 15.4847
    endloop
  endfacet
  facet normal 0.434943 -0.48682 0.757516
    outer loop
      vertex 4.74123 -5.39621 20.7213
      vertex 6.10845 -4.94462 20.2265
      vertex 4.8415 -4.77015 21.066
    endloop
  endfacet
  facet normal 0.434943 -0.48682 0.757516
    outer loop
      vertex 6.10845 -4.94462 20.2265
      vertex 4.74123 -5.39621 20.7213
      vertex 5.46267 -6.52644 19.5807
    endloop
  endfacet
  facet normal 0.434944 -0.486821 0.757515
    outer loop
      vertex 3.95471 -6.31877 20.58
      vertex 4.74123 -5.39621 20.7213
      vertex 4.35316 -5.34277 20.9784
    endloop
  endfacet
  facet normal 0.434943 -0.48682 0.757516
    outer loop
      vertex 4.74123 -5.39621 20.7213
      vertex 3.95471 -6.31877 20.58
      vertex 5.46267 -6.52644 19.5807
    endloop
  endfacet
  facet normal 0.434943 -0.486819 0.757517
    outer loop
      vertex 4.60048 -4.73695 21.2257
      vertex 4.47732 -5.03863 21.1026
      vertex 4.67333 -4.74699 21.1775
    endloop
  endfacet
  facet normal 0.374479 -0.615931 0.693105
    outer loop
      vertex 5.46267 -6.52644 19.5807
      vertex 4.42841 -7.0278 19.694
      vertex 4.68239 -7.94756 18.7394
    endloop
  endfacet
  facet normal 0.374479 -0.615931 0.693105
    outer loop
      vertex 3.95471 -6.31877 20.58
      vertex 4.42841 -7.0278 19.694
      vertex 5.46267 -6.52644 19.5807
    endloop
  endfacet
  facet normal 0.374481 -0.61593 0.693105
    outer loop
      vertex 4.42841 -7.0278 19.694
      vertex 3.95471 -6.31877 20.58
      vertex 4.26118 -7.00477 19.8048
    endloop
  endfacet
  facet normal 0.374478 -0.615932 0.693105
    outer loop
      vertex 4.68239 -7.94756 18.7394
      vertex 4.42841 -7.0278 19.694
      vertex 4.37351 -7.25619 19.5206
    endloop
  endfacet
  facet normal 0.176489 -0.707324 0.684503
    outer loop
      vertex 2.4963 -7.59259 20.056
      vertex 1.63798 -7.40969 20.4663
      vertex 1.9687 -8.10112 19.6665
    endloop
  endfacet
  facet normal 0.304829 -0.729999 0.611704
    outer loop
      vertex 4.68239 -7.94756 18.7394
      vertex 4.22255 -7.88423 19.0441
      vertex 4.11056 -8.20515 18.7169
    endloop
  endfacet
  facet normal 0.958624 -0.13733 0.24936
    outer loop
      vertex 10.7915 -2.67492 15.0863
      vertex 10.894 -2.22787 14.9387
      vertex 10.818 -2.2999 15.1911
    endloop
  endfacet
  facet normal 0.958623 -0.137328 0.249365
    outer loop
      vertex 10.894 -2.22787 14.9387
      vertex 10.7915 -2.67492 15.0863
      vertex 10.9112 -2.23113 14.8708
    endloop
  endfacet
  facet normal 0.958625 -0.137327 0.249358
    outer loop
      vertex 10.9112 -2.23113 14.8708
      vertex 11.1767 -2.30977 13.8068
      vertex 11.179 -2.28201 13.813
    endloop
  endfacet
  facet normal 0.958624 -0.137332 0.249358
    outer loop
      vertex 11.1767 -2.30977 13.8068
      vertex 10.9112 -2.23113 14.8708
      vertex 10.7915 -2.67492 15.0863
    endloop
  endfacet
  facet normal 0.394387 -0.173586 0.902401
    outer loop
      vertex 4.12215 -2.29442 22.2204
      vertex 5.13298 -3.0385 21.6355
      vertex 5.53908 -1.26522 21.7991
    endloop
  endfacet
  facet normal 0.394386 -0.173586 0.902401
    outer loop
      vertex 5.13298 -3.0385 21.6355
      vertex 4.12215 -2.29442 22.2204
      vertex 3.89348 -2.77437 22.228
    endloop
  endfacet
  facet normal 0.351509 -0.322249 0.878975
    outer loop
      vertex 3.73442 -3.04508 22.1924
      vertex 5.13298 -3.0385 21.6355
      vertex 3.89348 -2.77437 22.228
    endloop
  endfacet
  facet normal 0.351509 -0.322251 0.878974
    outer loop
      vertex 5.13298 -3.0385 21.6355
      vertex 3.73442 -3.04508 22.1924
      vertex 4.60048 -4.73695 21.2257
    endloop
  endfacet
  facet normal 0.528036 -0.740859 0.415097
    outer loop
      vertex 5.13226 -9.13293 16.6882
      vertex 5.67574 -8.46463 17.1897
      vertex 5.69571 -8.41708 17.2491
    endloop
  endfacet
  facet normal 0.528031 -0.74086 0.415103
    outer loop
      vertex 5.67574 -8.46463 17.1897
      vertex 5.13226 -9.13293 16.6882
      vertex 5.21795 -9.12743 16.5891
    endloop
  endfacet
  facet normal 0.688887 -0.705322 0.167199
    outer loop
      vertex 7.83915 -8.28504 13.6007
      vertex 8.13423 -7.72577 14.7443
      vertex 7.15529 -8.85944 13.9953
    endloop
  endfacet
  facet normal 0.688888 -0.70532 0.167205
    outer loop
      vertex 7.83915 -8.28504 13.6007
      vertex 7.15529 -8.85944 13.9953
      vertex 7.21648 -8.83081 13.864
    endloop
  endfacet
  facet normal 0.688887 -0.705322 0.167199
    outer loop
      vertex 8.13423 -7.72577 14.7443
      vertex 7.83915 -8.28504 13.6007
      vertex 8.44799 -7.57894 14.0709
    endloop
  endfacet
  facet normal 0.688887 -0.705322 0.167198
    outer loop
      vertex 7.83915 -8.28504 13.6007
      vertex 7.21648 -8.83081 13.864
      vertex 7.47142 -8.71151 13.3168
    endloop
  endfacet
  facet normal 0.883527 -0.320171 0.341864
    outer loop
      vertex 10.7915 -2.67492 15.0863
      vertex 10.0557 -3.01926 16.6657
      vertex 9.64743 -4.71723 16.1305
    endloop
  endfacet
  facet normal 0.809306 -0.344524 0.475738
    outer loop
      vertex 9.25399 -3.65735 17.5673
      vertex 10.0557 -3.01926 16.6657
      vertex 9.37152 -3.1704 17.72
    endloop
  endfacet
  facet normal 0.809306 -0.344525 0.475738
    outer loop
      vertex 10.0557 -3.01926 16.6657
      vertex 9.25399 -3.65735 17.5673
      vertex 9.64743 -4.71723 16.1305
    endloop
  endfacet
  facet normal 0.607387 -0.357508 0.709415
    outer loop
      vertex 6.60381 -3.24105 20.6608
      vertex 6.50124 -4.59234 20.0676
      vertex 6.6169 -3.24169 20.6493
    endloop
  endfacet
  facet normal 0.607438 -0.357495 0.709377
    outer loop
      vertex 6.50124 -4.59234 20.0676
      vertex 6.60381 -3.24105 20.6608
      vertex 6.10845 -4.94462 20.2265
    endloop
  endfacet
  facet normal 0.484762 -0.345793 0.803388
    outer loop
      vertex 4.86147 -4.54207 21.1521
      vertex 6.10845 -4.94462 20.2265
      vertex 6.60381 -3.24105 20.6608
    endloop
  endfacet
  facet normal 0.484763 -0.345793 0.803388
    outer loop
      vertex 6.10845 -4.94462 20.2265
      vertex 4.86147 -4.54207 21.1521
      vertex 4.8415 -4.77015 21.066
    endloop
  endfacet
  facet normal 0.484761 -0.345798 0.803387
    outer loop
      vertex 4.73394 -4.6373 21.1881
      vertex 4.60048 -4.73695 21.2257
      vertex 4.67333 -4.74699 21.1775
    endloop
  endfacet
  facet normal -0.300025 0.462983 -0.834046
    outer loop
      vertex 3.91217 -4.77288 20.0235
      vertex 3.547 -5.66735 19.6583
      vertex 3.83359 -4.75614 20.061
    endloop
  endfacet
  facet normal -0.300038 0.462985 -0.834039
    outer loop
      vertex 2.67923 -3.94027 20.9292
      vertex 4.03633 -4.46875 20.1476
      vertex 3.83359 -4.75614 20.061
    endloop
  endfacet
  facet normal -0.300038 0.462986 -0.834039
    outer loop
      vertex 4.03633 -4.46875 20.1476
      vertex 2.67923 -3.94027 20.9292
      vertex 4.1262 -4.24861 20.2375
    endloop
  endfacet
  facet normal -0.300038 0.462984 -0.83404
    outer loop
      vertex 2.10003 -5.35901 20.35
      vertex 3.83359 -4.75614 20.061
      vertex 3.547 -5.66735 19.6583
    endloop
  endfacet
  facet normal -0.300038 0.462985 -0.834039
    outer loop
      vertex 3.83359 -4.75614 20.061
      vertex 2.10003 -5.35901 20.35
      vertex 2.67923 -3.94027 20.9292
    endloop
  endfacet
  facet normal -0.351509 0.32225 -0.878975
    outer loop
      vertex 4.6038 -2.72525 20.605
      vertex 3.02777 -2.91089 21.1672
      vertex 3.30008 -2.44743 21.2282
    endloop
  endfacet
  facet normal -0.351509 0.322251 -0.878974
    outer loop
      vertex 3.02777 -2.91089 21.1672
      vertex 4.6038 -2.72525 20.605
      vertex 2.67923 -3.94027 20.9292
    endloop
  endfacet
  facet normal -0.0411188 0.673805 -0.737764
    outer loop
      vertex 1.46912 -6.6458 19.5564
      vertex -0.2752 -6.9337 19.3906
      vertex 0.391457 -6.3432 19.8928
    endloop
  endfacet
  facet normal -0.0411186 0.673804 -0.737765
    outer loop
      vertex -0.2752 -6.9337 19.3906
      vertex 1.46912 -6.6458 19.5564
      vertex -0.567633 -7.36794 19.0103
    endloop
  endfacet
  facet normal -0.773243 0.59031 -0.231579
    outer loop
      vertex 7.98045 -6.17784 14.0532
      vertex 7.61475 -6.77998 13.7394
      vertex 7.29565 -6.92929 14.4242
    endloop
  endfacet
  facet normal -0.809306 0.344525 -0.475738
    outer loop
      vertex 8.65285 -4.23092 15.6675
      vertex 8.05923 -4.02836 16.8241
      vertex 9.01899 -2.70799 16.1476
    endloop
  endfacet
  facet normal -0.809306 0.344525 -0.475738
    outer loop
      vertex 8.05923 -4.02836 16.8241
      vertex 8.65285 -4.23092 15.6675
      vertex 7.97414 -4.38087 16.7135
    endloop
  endfacet
  facet normal -0.100673 0.557585 -0.823992
    outer loop
      vertex 1.45623 -5.17824 20.551
      vertex 2.10003 -5.35901 20.35
      vertex 0.793833 -5.90296 20.1415
    endloop
  endfacet
  facet normal -0.522727 0.196259 -0.829602
    outer loop
      vertex 4.6038 -2.72525 20.605
      vertex 6.15938 -1.6401 19.8816
      vertex 5.92301 -2.90692 19.7308
    endloop
  endfacet
  facet normal -0.522728 0.196262 -0.8296
    outer loop
      vertex 6.15938 -1.6401 19.8816
      vertex 4.6038 -2.72525 20.605
      vertex 6.16081 -1.36055 19.9468
    endloop
  endfacet
  facet normal -0.587598 0.803113 -0.0986843
    outer loop
      vertex 6.33801 -8.0383 13.6916
      vertex 6.22264 -8.17638 13.2548
      vertex 6.09783 -8.23478 13.5227
    endloop
  endfacet
  facet normal -0.338395 0.836803 -0.430407
    outer loop
      vertex 4.53142 -8.28254 16.0964
      vertex 4.32129 -8.47495 15.8875
      vertex 4.09539 -8.46396 16.0865
    endloop
  endfacet
  facet normal -0.763508 0.485536 -0.425806
    outer loop
      vertex 7.39494 -5.79961 16.1343
      vertex 8.65285 -4.23092 15.6675
      vertex 8.07365 -5.64966 15.0883
    endloop
  endfacet
  facet normal -0.763508 0.485535 -0.425807
    outer loop
      vertex 8.65285 -4.23092 15.6675
      vertex 7.39494 -5.79961 16.1343
      vertex 7.97414 -4.38087 16.7135
    endloop
  endfacet
  facet normal -0.497155 0.627633 -0.599093
    outer loop
      vertex 5.48849 -7.02198 17.0493
      vertex 4.89951 -5.85361 18.7621
      vertex 5.77227 -5.89608 17.9933
    endloop
  endfacet
  facet normal -0.497157 0.627633 -0.599093
    outer loop
      vertex 4.89951 -5.85361 18.7621
      vertex 5.48849 -7.02198 17.0493
      vertex 5.39424 -7.18634 16.9553
    endloop
  endfacet
  facet normal -0.688887 0.705322 -0.167199
    outer loop
      vertex 7.12683 -7.34584 13.3626
      vertex 6.33801 -8.0383 13.6916
      vertex 7.29565 -6.92929 14.4242
    endloop
  endfacet
  facet normal -0.688887 0.705323 -0.167198
    outer loop
      vertex 6.33801 -8.0383 13.6916
      vertex 7.12683 -7.34584 13.3626
      vertex 6.65943 -7.8879 13.0017
    endloop
  endfacet
  facet normal -0.838648 0.460881 -0.290274
    outer loop
      vertex 8.83998 -4.54913 14.6217
      vertex 8.65285 -4.23092 15.6675
      vertex 9.20857 -3.97088 14.4749
    endloop
  endfacet
  facet normal -0.838648 0.46088 -0.290274
    outer loop
      vertex 8.07365 -5.64966 15.0883
      vertex 8.83998 -4.54913 14.6217
      vertex 8.40273 -5.49568 14.3821
    endloop
  endfacet
  facet normal -0.838648 0.460881 -0.290274
    outer loop
      vertex 8.83998 -4.54913 14.6217
      vertex 8.07365 -5.64966 15.0883
      vertex 8.65285 -4.23092 15.6675
    endloop
  endfacet
  facet normal -0.157746 0.427751 -0.890025
    outer loop
      vertex 2.07408 -4.35472 20.8373
      vertex 2.67923 -3.94027 20.9292
      vertex 2.10003 -5.35901 20.35
    endloop
  endfacet
  facet normal -0.157743 0.427748 -0.890027
    outer loop
      vertex 2.67923 -3.94027 20.9292
      vertex 2.07408 -4.35472 20.8373
      vertex 2.43622 -3.87203 21.0051
    endloop
  endfacet
  facet normal -0.157745 0.427751 -0.890026
    outer loop
      vertex 2.10003 -5.35901 20.35
      vertex 1.51261 -5.1031 20.5771
      vertex 2.07408 -4.35472 20.8373
    endloop
  endfacet
  facet normal -0.157747 0.427747 -0.890027
    outer loop
      vertex 1.51261 -5.1031 20.5771
      vertex 2.10003 -5.35901 20.35
      vertex 1.45623 -5.17824 20.551
    endloop
  endfacet
  facet normal -0.176488 0.707325 -0.684503
    outer loop
      vertex 1.52459 -7.48305 18.6769
      vertex 1.46912 -6.6458 19.5564
      vertex 2.22592 -6.80707 19.1946
    endloop
  endfacet
  facet normal -0.176487 0.707325 -0.684503
    outer loop
      vertex 1.46912 -6.6458 19.5564
      vertex 1.52459 -7.48305 18.6769
      vertex 0.802034 -7.76895 18.5678
    endloop
  endfacet
  facet normal -0.906786 0.171582 -0.385096
    outer loop
      vertex 9.679 -2.39915 14.731
      vertex 9.5288 -1.83313 15.3369
      vertex 9.72546 -1.7411 14.9148
    endloop
  endfacet
  facet normal -0.906786 0.171581 -0.385096
    outer loop
      vertex 9.5288 -1.83313 15.3369
      vertex 9.679 -2.39915 14.731
      vertex 9.32565 -2.06697 15.7111
    endloop
  endfacet
  facet normal -0.906786 0.171583 -0.385096
    outer loop
      vertex 9.01899 -2.70799 16.1476
      vertex 9.32565 -2.06697 15.7111
      vertex 9.679 -2.39915 14.731
    endloop
  endfacet
  facet normal -0.906784 0.17158 -0.3851
    outer loop
      vertex 9.32565 -2.06697 15.7111
      vertex 9.01899 -2.70799 16.1476
      vertex 9.27104 -2.09252 15.8283
    endloop
  endfacet
  facet normal -0.989542 0.0931239 -0.11016
    outer loop
      vertex 10.1432 -1.66386 13.3347
      vertex 10.1253 -1.91989 13.2792
      vertex 10.1399 -1.66469 13.3635
    endloop
  endfacet
  facet normal -0.883515 0.320193 -0.341875
    outer loop
      vertex 9.01899 -2.70799 16.1476
      vertex 9.31922 -3.87425 14.2794
      vertex 9.30266 -3.87029 14.3259
    endloop
  endfacet
  facet normal -0.883528 0.32017 -0.341862
    outer loop
      vertex 9.21155 -3.9646 14.473
      vertex 9.01899 -2.70799 16.1476
      vertex 9.30266 -3.87029 14.3259
    endloop
  endfacet
  facet normal -0.883529 0.320161 -0.341867
    outer loop
      vertex 8.65285 -4.23092 15.6675
      vertex 9.21155 -3.9646 14.473
      vertex 9.20857 -3.97088 14.4749
    endloop
  endfacet
  facet normal -0.883527 0.320172 -0.341863
    outer loop
      vertex 9.21155 -3.9646 14.473
      vertex 8.65285 -4.23092 15.6675
      vertex 9.01899 -2.70799 16.1476
    endloop
  endfacet
  facet normal -0.617403 0.728778 -0.296136
    outer loop
      vertex 6.41406 -7.31623 15.31
      vertex 6.33801 -8.0383 13.6916
      vertex 5.66384 -8.18725 14.7306
    endloop
  endfacet
  facet normal -0.699022 0.614663 -0.365455
    outer loop
      vertex 7.21525 -6.09566 15.9801
      vertex 7.29565 -6.92929 14.4242
      vertex 6.61847 -7.0789 15.4679
    endloop
  endfacet
  facet normal -0.0411193 0.673805 -0.737764
    outer loop
      vertex 0.802034 -7.76895 18.5678
      vertex -0.567633 -7.36794 19.0103
      vertex 1.46912 -6.6458 19.5564
    endloop
  endfacet
  facet normal -0.0411097 0.673822 -0.73775
    outer loop
      vertex -0.567633 -7.36794 19.0103
      vertex 0.802034 -7.76895 18.5678
      vertex -0.576927 -7.38174 18.9982
    endloop
  endfacet
  facet normal -0.338395 0.836802 -0.430407
    outer loop
      vertex 4.09539 -8.46396 16.0865
      vertex 3.4262 -8.22876 17.0699
      vertex 4.53142 -8.28254 16.0964
    endloop
  endfacet
  facet normal -0.338399 0.8368 -0.430409
    outer loop
      vertex 3.4262 -8.22876 17.0699
      vertex 4.09539 -8.46396 16.0865
      vertex 3.31707 -8.42609 16.772
    endloop
  endfacet
  facet normal -0.43685 0.836417 -0.331011
    outer loop
      vertex 4.86959 -8.26081 15.705
      vertex 4.51805 -8.46231 15.6598
      vertex 4.53142 -8.28254 16.0964
    endloop
  endfacet
  facet normal -0.436851 0.836417 -0.331009
    outer loop
      vertex 4.51805 -8.46231 15.6598
      vertex 4.86959 -8.26081 15.705
      vertex 4.6945 -8.45097 15.4556
    endloop
  endfacet
  facet normal -0.617403 0.728777 -0.296137
    outer loop
      vertex 7.29565 -6.92929 14.4242
      vertex 6.41406 -7.31623 15.31
      vertex 6.61847 -7.0789 15.4679
    endloop
  endfacet
  facet normal -0.617403 0.728778 -0.296136
    outer loop
      vertex 6.41406 -7.31623 15.31
      vertex 7.29565 -6.92929 14.4242
      vertex 6.33801 -8.0383 13.6916
    endloop
  endfacet
  facet normal -0.241225 0.592389 -0.768691
    outer loop
      vertex 1.46912 -6.6458 19.5564
      vertex 2.59629 -6.36849 19.4163
      vertex 2.22592 -6.80707 19.1946
    endloop
  endfacet
  facet normal -0.241225 0.592388 -0.768692
    outer loop
      vertex 2.59629 -6.36849 19.4163
      vertex 1.46912 -6.6458 19.5564
      vertex 2.10003 -5.35901 20.35
    endloop
  endfacet
  facet normal -0.100673 0.557585 -0.823993
    outer loop
      vertex 1.46912 -6.6458 19.5564
      vertex 0.793833 -5.90296 20.1415
      vertex 2.10003 -5.35901 20.35
    endloop
  endfacet
  facet normal -0.100673 0.557585 -0.823993
    outer loop
      vertex 0.793833 -5.90296 20.1415
      vertex 1.46912 -6.6458 19.5564
      vertex 0.391457 -6.3432 19.8928
    endloop
  endfacet
  facet normal -0.5479 0.0418314 -0.835497
    outer loop
      vertex 6.13382 -0.802054 20.0039
      vertex 4.96804 -1.13478 20.7518
      vertex 6.08791 0.0334645 20.0759
    endloop
  endfacet
  facet normal -0.5479 0.0418303 -0.835497
    outer loop
      vertex 4.96804 -1.13478 20.7518
      vertex 6.13382 -0.802054 20.0039
      vertex 6.16113 -1.29909 19.9611
    endloop
  endfacet
  facet normal -0.5479 0.0418295 -0.835497
    outer loop
      vertex 6.08791 0.0334645 20.0759
      vertex 5.19183 0.362382 20.68
      vertex 6.07653 0.240547 20.0937
    endloop
  endfacet
  facet normal -0.5479 0.0418304 -0.835498
    outer loop
      vertex 5.19183 0.362382 20.68
      vertex 6.08791 0.0334645 20.0759
      vertex 4.96804 -1.13478 20.7518
    endloop
  endfacet
  facet normal -0.434943 0.48682 -0.757516
    outer loop
      vertex 4.30024 -4.82633 19.7663
      vertex 5.47871 -4.43487 19.3413
      vertex 4.89951 -5.85361 18.7621
    endloop
  endfacet
  facet normal -0.434943 0.486821 -0.757516
    outer loop
      vertex 5.47871 -4.43487 19.3413
      vertex 4.30024 -4.82633 19.7663
      vertex 4.38702 -4.28453 20.0647
    endloop
  endfacet
  facet normal -0.434944 0.486819 -0.757516
    outer loop
      vertex 3.547 -5.66735 19.6583
      vertex 4.30024 -4.82633 19.7663
      vertex 4.89951 -5.85361 18.7621
    endloop
  endfacet
  facet normal -0.434945 0.48682 -0.757515
    outer loop
      vertex 4.30024 -4.82633 19.7663
      vertex 3.547 -5.66735 19.6583
      vertex 3.91217 -4.77288 20.0235
    endloop
  endfacet
  facet normal -0.434942 0.48682 -0.757517
    outer loop
      vertex 4.1262 -4.24861 20.2375
      vertex 4.17936 -4.25593 20.2023
      vertex 4.03633 -4.46875 20.1476
    endloop
  endfacet
  facet normal -0.351508 0.32225 -0.878975
    outer loop
      vertex 4.6038 -2.72525 20.605
      vertex 4.1262 -4.24861 20.2375
      vertex 2.67923 -3.94027 20.9292
    endloop
  endfacet
  facet normal -0.436849 0.836418 -0.331011
    outer loop
      vertex 4.53142 -8.28254 16.0964
      vertex 4.51805 -8.46231 15.6598
      vertex 4.32129 -8.47495 15.8875
    endloop
  endfacet
  facet normal -0.937359 0.284571 -0.200942
    outer loop
      vertex 10.1186 -1.98723 13.2636
      vertex 9.679 -2.39915 14.731
      vertex 10.1201 -1.98094 13.2655
    endloop
  endfacet
  facet normal -0.93735 0.284608 -0.200929
    outer loop
      vertex 9.34403 -3.87887 14.1978
      vertex 9.679 -2.39915 14.731
      vertex 10.1186 -1.98723 13.2636
    endloop
  endfacet
  facet normal -0.937354 0.284604 -0.200916
    outer loop
      vertex 9.679 -2.39915 14.731
      vertex 9.34403 -3.87887 14.1978
      vertex 9.33774 -3.87867 14.2274
    endloop
  endfacet
  facet normal -0.906785 0.171581 -0.385098
    outer loop
      vertex 9.27104 -2.09252 15.8283
      vertex 9.01899 -2.70799 16.1476
      vertex 9.06608 -2.18843 16.2682
    endloop
  endfacet
  facet normal -0.64088 0.207532 -0.739056
    outer loop
      vertex 6.1407 -2.67239 19.6079
      vertex 6.13627 -2.9173 19.543
      vertex 5.92301 -2.90692 19.7308
    endloop
  endfacet
  facet normal -0.835302 0.195036 -0.514035
    outer loop
      vertex 9.01899 -2.70799 16.1476
      vertex 8.48658 -2.31646 17.1613
      vertex 9.06608 -2.18843 16.2682
    endloop
  endfacet
  facet normal -0.835301 0.195038 -0.514035
    outer loop
      vertex 8.34181 -2.8576 17.1912
      vertex 8.48658 -2.31646 17.1613
      vertex 9.01899 -2.70799 16.1476
    endloop
  endfacet
  facet normal -0.835304 0.195039 -0.514031
    outer loop
      vertex 8.48658 -2.31646 17.1613
      vertex 8.34181 -2.8576 17.1912
      vertex 8.3733 -2.51708 17.2692
    endloop
  endfacet
  facet normal -0.809306 0.344525 -0.475738
    outer loop
      vertex 9.01899 -2.70799 16.1476
      vertex 8.05923 -4.02836 16.8241
      vertex 8.34181 -2.8576 17.1912
    endloop
  endfacet
  facet normal -0.937351 0.284609 -0.200927
    outer loop
      vertex 9.36616 -3.87955 14.0936
      vertex 9.97682 -2.58577 13.0774
      vertex 9.72785 -3.37378 13.1226
    endloop
  endfacet
  facet normal -0.937343 0.284649 -0.200903
    outer loop
      vertex 9.36616 -3.87955 14.0936
      vertex 9.72785 -3.37378 13.1226
      vertex 9.72576 -3.38038 13.123
    endloop
  endfacet
  facet normal -0.937351 0.284607 -0.200928
    outer loop
      vertex 9.36616 -3.87955 14.0936
      vertex 9.72576 -3.38038 13.123
      vertex 9.65439 -3.6063 13.136
    endloop
  endfacet
  facet normal -0.937351 0.284605 -0.200931
    outer loop
      vertex 9.34403 -3.87887 14.1978
      vertex 9.97682 -2.58577 13.0774
      vertex 9.36616 -3.87955 14.0936
    endloop
  endfacet
  facet normal -0.937351 0.284609 -0.200928
    outer loop
      vertex 9.97682 -2.58577 13.0774
      vertex 9.34403 -3.87887 14.1978
      vertex 10.1186 -1.98723 13.2636
    endloop
  endfacet
  facet normal -0.958624 0.137329 -0.249359
    outer loop
      vertex 10.1253 -1.91989 13.2792
      vertex 10.0252 -1.64291 13.8165
      vertex 10.1399 -1.66469 13.3635
    endloop
  endfacet
  facet normal -0.958621 0.137341 -0.249365
    outer loop
      vertex 10.0252 -1.64291 13.8165
      vertex 10.1253 -1.91989 13.2792
      vertex 10.1206 -1.97488 13.2669
    endloop
  endfacet
  facet normal -0.5876 0.803111 -0.0986835
    outer loop
      vertex 6.65943 -7.8879 13.0017
      vertex 6.22264 -8.17638 13.2548
      vertex 6.33801 -8.0383 13.6916
    endloop
  endfacet
  facet normal -0.5876 0.803111 -0.0986841
    outer loop
      vertex 6.22264 -8.17638 13.2548
      vertex 6.65943 -7.8879 13.0017
      vertex 6.41998 -8.08404 12.8313
    endloop
  endfacet
  facet normal -0.60623 0.627205 -0.488978
    outer loop
      vertex 5.45404 -7.14169 16.9384
      vertex 5.44208 -7.18327 16.8999
      vertex 5.39424 -7.18634 16.9553
    endloop
  endfacet
  facet normal -0.528034 0.740859 -0.4151
    outer loop
      vertex 5.09057 -7.94087 15.9949
      vertex 4.86959 -8.26081 15.705
      vertex 4.53142 -8.28254 16.0964
    endloop
  endfacet
  facet normal -0.52803 0.740861 -0.415102
    outer loop
      vertex 5.1754 -7.81805 16.1062
      vertex 5.39424 -7.18634 16.9553
      vertex 5.44208 -7.18327 16.8999
    endloop
  endfacet
  facet normal -0.528034 0.740859 -0.415099
    outer loop
      vertex 5.1754 -7.81805 16.1062
      vertex 4.53142 -8.28254 16.0964
      vertex 5.39424 -7.18634 16.9553
    endloop
  endfacet
  facet normal -0.528034 0.740859 -0.4151
    outer loop
      vertex 4.53142 -8.28254 16.0964
      vertex 5.1754 -7.81805 16.1062
      vertex 5.09057 -7.94087 15.9949
    endloop
  endfacet
  facet normal -0.42298 0.74127 -0.521159
    outer loop
      vertex 4.53142 -8.28254 16.0964
      vertex 3.46077 -8.13925 17.1691
      vertex 4.19967 -7.12822 18.0075
    endloop
  endfacet
  facet normal -0.422979 0.741271 -0.521159
    outer loop
      vertex 3.46077 -8.13925 17.1691
      vertex 4.53142 -8.28254 16.0964
      vertex 3.4262 -8.22876 17.0699
    endloop
  endfacet
  facet normal -0.176487 0.707324 -0.684504
    outer loop
      vertex 1.52459 -7.48305 18.6769
      vertex 1.15085 -7.84328 18.401
      vertex 0.802034 -7.76895 18.5678
    endloop
  endfacet
  facet normal -0.374478 0.615932 -0.693105
    outer loop
      vertex 4.19967 -7.12822 18.0075
      vertex 3.83129 -7.07749 18.2516
      vertex 3.98192 -6.45081 18.7271
    endloop
  endfacet
  facet normal -0.374479 0.615931 -0.693105
    outer loop
      vertex 3.98192 -6.45081 18.7271
      vertex 4.89951 -5.85361 18.7621
      vertex 4.19967 -7.12822 18.0075
    endloop
  endfacet
  facet normal -0.37448 0.615933 -0.693102
    outer loop
      vertex 4.89951 -5.85361 18.7621
      vertex 3.98192 -6.45081 18.7271
      vertex 3.83392 -6.43043 18.8252
    endloop
  endfacet
  facet normal -0.304828 0.729999 -0.611704
    outer loop
      vertex 4.19967 -7.12822 18.0075
      vertex 3.46077 -8.13925 17.1691
      vertex 3.83129 -7.07749 18.2516
    endloop
  endfacet
  facet normal -0.394386 0.173585 -0.902401
    outer loop
      vertex 3.85397 -1.28488 21.2098
      vertex 4.96804 -1.13478 20.7518
      vertex 4.6038 -2.72525 20.605
    endloop
  endfacet
  facet normal -0.394386 0.173586 -0.902401
    outer loop
      vertex 4.96804 -1.13478 20.7518
      vertex 3.85397 -1.28488 21.2098
      vertex 4.02157 -0.933098 21.2042
    endloop
  endfacet
  facet normal -0.522727 0.19626 -0.829602
    outer loop
      vertex 6.16081 -1.36055 19.9468
      vertex 4.96804 -1.13478 20.7518
      vertex 6.16113 -1.29909 19.9611
    endloop
  endfacet
  facet normal -0.522727 0.196259 -0.829602
    outer loop
      vertex 4.96804 -1.13478 20.7518
      vertex 6.16081 -1.36055 19.9468
      vertex 4.6038 -2.72525 20.605
    endloop
  endfacet
  facet normal -0.55914 0.498666 -0.66234
    outer loop
      vertex 5.91845 -4.99095 18.5514
      vertex 5.47871 -4.43487 19.3413
      vertex 6.00413 -4.46043 18.8785
    endloop
  endfacet
  facet normal -0.55914 0.498668 -0.662339
    outer loop
      vertex 4.89951 -5.85361 18.7621
      vertex 5.91845 -4.99095 18.5514
      vertex 5.78561 -5.81349 18.0442
    endloop
  endfacet
  facet normal -0.559142 0.49866 -0.662343
    outer loop
      vertex 4.89951 -5.85361 18.7621
      vertex 5.78561 -5.81349 18.0442
      vertex 5.77227 -5.89608 17.9933
    endloop
  endfacet
  facet normal -0.559139 0.498667 -0.66234
    outer loop
      vertex 5.91845 -4.99095 18.5514
      vertex 4.89951 -5.85361 18.7621
      vertex 5.47871 -4.43487 19.3413
    endloop
  endfacet
  facet normal -0.210954 0.287447 -0.934276
    outer loop
      vertex 3.02777 -2.91089 21.1672
      vertex 2.67923 -3.94027 20.9292
      vertex 2.5521 -3.68374 21.0368
    endloop
  endfacet
  facet normal -0.210954 0.287447 -0.934277
    outer loop
      vertex 2.5521 -3.68374 21.0368
      vertex 2.67923 -3.94027 20.9292
      vertex 2.43622 -3.87203 21.0051
    endloop
  endfacet
  facet normal -0.241223 0.592389 -0.768692
    outer loop
      vertex 2.70625 -6.23827 19.4822
      vertex 3.547 -5.66735 19.6583
      vertex 3.19523 -6.34247 19.2484
    endloop
  endfacet
  facet normal -0.241224 0.592389 -0.768691
    outer loop
      vertex 2.70625 -6.23827 19.4822
      vertex 2.10003 -5.35901 20.35
      vertex 3.547 -5.66735 19.6583
    endloop
  endfacet
  facet normal -0.241229 0.592386 -0.768692
    outer loop
      vertex 2.10003 -5.35901 20.35
      vertex 2.70625 -6.23827 19.4822
      vertex 2.59629 -6.36849 19.4163
    endloop
  endfacet
  facet normal -0.374479 0.615931 -0.693104
    outer loop
      vertex 3.83392 -6.43043 18.8252
      vertex 3.547 -5.66735 19.6583
      vertex 4.89951 -5.85361 18.7621
    endloop
  endfacet
  facet normal -0.374479 0.615932 -0.693105
    outer loop
      vertex 3.547 -5.66735 19.6583
      vertex 3.83392 -6.43043 18.8252
      vertex 3.19523 -6.34247 19.2484
    endloop
  endfacet
  facet normal -0.699023 0.614663 -0.365454
    outer loop
      vertex 8.07365 -5.64966 15.0883
      vertex 7.21525 -6.09566 15.9801
      vertex 7.39494 -5.79961 16.1343
    endloop
  endfacet
  facet normal -0.699023 0.614662 -0.365454
    outer loop
      vertex 7.21525 -6.09566 15.9801
      vertex 8.07365 -5.64966 15.0883
      vertex 7.29565 -6.92929 14.4242
    endloop
  endfacet
  facet normal -0.688888 0.705322 -0.167198
    outer loop
      vertex 7.61475 -6.77998 13.7394
      vertex 7.12683 -7.34584 13.3626
      vertex 7.29565 -6.92929 14.4242
    endloop
  endfacet
  facet normal -0.520604 0.825095 -0.21952
    outer loop
      vertex 5.66384 -8.18725 14.7306
      vertex 5.93504 -8.27075 13.7736
      vertex 5.42462 -8.38351 14.5602
    endloop
  endfacet
  facet normal -0.520605 0.825095 -0.21952
    outer loop
      vertex 5.93504 -8.27075 13.7736
      vertex 5.66384 -8.18725 14.7306
      vertex 6.33801 -8.0383 13.6916
    endloop
  endfacet
  facet normal -0.606231 0.627206 -0.488975
    outer loop
      vertex 5.48849 -7.02198 17.0493
      vertex 5.45404 -7.14169 16.9384
      vertex 5.39424 -7.18634 16.9553
    endloop
  endfacet
  facet normal -0.773243 0.59031 -0.23158
    outer loop
      vertex 8.30138 -5.64942 14.3286
      vertex 8.07365 -5.64966 15.0883
      vertex 8.40273 -5.49568 14.3821
    endloop
  endfacet
  facet normal -0.773244 0.590308 -0.23158
    outer loop
      vertex 7.98045 -6.17784 14.0532
      vertex 8.07365 -5.64966 15.0883
      vertex 8.30138 -5.64942 14.3286
    endloop
  endfacet
  facet normal -0.773243 0.590309 -0.231581
    outer loop
      vertex 8.07365 -5.64966 15.0883
      vertex 7.98045 -6.17784 14.0532
      vertex 7.29565 -6.92929 14.4242
    endloop
  endfacet
  facet normal -0.607441 0.357495 -0.709375
    outer loop
      vertex 6.05021 -3.92232 19.1102
      vertex 5.92301 -2.90692 19.7308
      vertex 6.13627 -2.9173 19.543
    endloop
  endfacet
  facet normal -0.60744 0.357495 -0.709376
    outer loop
      vertex 5.92301 -2.90692 19.7308
      vertex 6.05021 -3.92232 19.1102
      vertex 5.47871 -4.43487 19.3413
    endloop
  endfacet
  facet normal -0.607439 0.357495 -0.709376
    outer loop
      vertex 6.05021 -3.92232 19.1102
      vertex 6.00413 -4.46043 18.8785
      vertex 5.47871 -4.43487 19.3413
    endloop
  endfacet
  facet normal -0.835301 0.195034 -0.514036
    outer loop
      vertex 8.48658 -2.31646 17.1613
      vertex 8.3733 -2.51708 17.2692
      vertex 8.38988 -2.33783 17.3103
    endloop
  endfacet
  facet normal -0.958624 0.13733 -0.249361
    outer loop
      vertex 9.679 -2.39915 14.731
      vertex 9.86178 -1.61187 14.462
      vertex 10.0252 -1.64291 13.8165
    endloop
  endfacet
  facet normal -0.958613 0.137369 -0.24938
    outer loop
      vertex 10.1201 -1.98094 13.2655
      vertex 10.0252 -1.64291 13.8165
      vertex 10.1206 -1.97488 13.2669
    endloop
  endfacet
  facet normal -0.958624 0.137332 -0.249359
    outer loop
      vertex 10.0252 -1.64291 13.8165
      vertex 10.1201 -1.98094 13.2655
      vertex 9.679 -2.39915 14.731
    endloop
  endfacet
  facet normal -0.958624 0.137331 -0.24936
    outer loop
      vertex 9.86178 -1.61187 14.462
      vertex 9.679 -2.39915 14.731
      vertex 9.72546 -1.7411 14.9148
    endloop
  endfacet
  facet normal -0.883527 0.320171 -0.341863
    outer loop
      vertex 9.679 -2.39915 14.731
      vertex 9.31922 -3.87425 14.2794
      vertex 9.01899 -2.70799 16.1476
    endloop
  endfacet
  facet normal -0.883527 0.320171 -0.341864
    outer loop
      vertex 9.31922 -3.87425 14.2794
      vertex 9.679 -2.39915 14.731
      vertex 9.33774 -3.87867 14.2274
    endloop
  endfacet
  facet normal 0.0194738 0.773573 -0.633408
    outer loop
      vertex -0.576927 -7.38174 18.9982
      vertex -0.440636 -7.66256 18.6595
      vertex -0.585681 -7.39163 18.9859
    endloop
  endfacet
  facet normal 0.0194749 0.773573 -0.633407
    outer loop
      vertex 0.802034 -7.76895 18.5678
      vertex -0.440636 -7.66256 18.6595
      vertex -0.576927 -7.38174 18.9982
    endloop
  endfacet
  facet normal 0.0194751 0.773575 -0.633406
    outer loop
      vertex -0.440636 -7.66256 18.6595
      vertex 0.802034 -7.76895 18.5678
      vertex 0.653915 -7.96991 18.3178
    endloop
  endfacet
  facet normal -0.107387 0.80499 -0.583489
    outer loop
      vertex 0.912219 -8.02495 18.1943
      vertex 0.802034 -7.76895 18.5678
      vertex 1.15085 -7.84328 18.401
    endloop
  endfacet
  facet normal -0.10739 0.804989 -0.58349
    outer loop
      vertex 0.802034 -7.76895 18.5678
      vertex 0.912219 -8.02495 18.1943
      vertex 0.653915 -7.96991 18.3178
    endloop
  endfacet
  facet normal -0.42298 0.74127 -0.521159
    outer loop
      vertex 5.39424 -7.18634 16.9553
      vertex 4.53142 -8.28254 16.0964
      vertex 4.19967 -7.12822 18.0075
    endloop
  endfacet
  facet normal -0.497155 0.627634 -0.599094
    outer loop
      vertex 4.89951 -5.85361 18.7621
      vertex 5.39424 -7.18634 16.9553
      vertex 4.19967 -7.12822 18.0075
    endloop
  endfacet
  facet normal -0.484763 0.345793 -0.803388
    outer loop
      vertex 5.47871 -4.43487 19.3413
      vertex 4.42909 -3.80398 20.2461
      vertex 4.6038 -2.72525 20.605
    endloop
  endfacet
  facet normal -0.484763 0.345793 -0.803388
    outer loop
      vertex 4.42909 -3.80398 20.2461
      vertex 5.47871 -4.43487 19.3413
      vertex 4.38702 -4.28453 20.0647
    endloop
  endfacet
  facet normal -0.484761 0.345793 -0.803389
    outer loop
      vertex 4.1262 -4.24861 20.2375
      vertex 4.42909 -3.80398 20.2461
      vertex 4.17936 -4.25593 20.2023
    endloop
  endfacet
  facet normal -0.48476 0.345793 -0.80339
    outer loop
      vertex 4.42909 -3.80398 20.2461
      vertex 4.1262 -4.24861 20.2375
      vertex 4.6038 -2.72525 20.605
    endloop
  endfacet
  facet normal -0.484763 0.345793 -0.803388
    outer loop
      vertex 5.92301 -2.90692 19.7308
      vertex 5.47871 -4.43487 19.3413
      vertex 4.6038 -2.72525 20.605
    endloop
  endfacet
  facet normal -0.394387 0.173585 -0.902401
    outer loop
      vertex 3.85397 -1.28488 21.2098
      vertex 4.6038 -2.72525 20.605
      vertex 3.30008 -2.44743 21.2282
    endloop
  endfacet
  facet normal -0.893128 0.424902 -0.147582
    outer loop
      vertex 9.37554 -3.87872 14.0392
      vertex 9.65439 -3.6063 13.136
      vertex 9.6474 -3.62099 13.136
    endloop
  endfacet
  facet normal -0.89313 0.424898 -0.147583
    outer loop
      vertex 9.65439 -3.6063 13.136
      vertex 9.37554 -3.87872 14.0392
      vertex 9.36616 -3.87955 14.0936
    endloop
  endfacet
  facet normal 0.0194648 0.773571 -0.63341
    outer loop
      vertex -0.440636 -7.66256 18.6595
      vertex -0.637411 -7.45009 18.9129
      vertex -0.585681 -7.39163 18.9859
    endloop
  endfacet
  facet normal 0.0194813 0.773577 -0.633402
    outer loop
      vertex -0.637411 -7.45009 18.9129
      vertex -0.440636 -7.66256 18.6595
      vertex -0.718376 -7.58457 18.7462
    endloop
  endfacet
  facet normal 0.149796 0.732777 -0.663776
    outer loop
      vertex -0.637411 -7.45009 18.9129
      vertex -0.718376 -7.58457 18.7462
      vertex -0.7509 -7.57335 18.7512
    endloop
  endfacet
  facet normal -0.640878 0.207529 -0.739058
    outer loop
      vertex 6.1407 -2.67239 19.6079
      vertex 5.92301 -2.90692 19.7308
      vertex 6.15938 -1.6401 19.8816
    endloop
  endfacet
  facet normal -0.520605 0.825094 -0.219522
    outer loop
      vertex 6.33801 -8.0383 13.6916
      vertex 6.09783 -8.23478 13.5227
      vertex 5.93504 -8.27075 13.7736
    endloop
  endfacet
  facet normal -0.427623 0.0205805 -0.903723
    outer loop
      vertex 4.96804 -1.13478 20.7518
      vertex 4.19377 -0.471074 21.1333
      vertex 4.36868 -0.00178493 21.0612
    endloop
  endfacet
  facet normal -0.427622 0.0205813 -0.903723
    outer loop
      vertex 4.19377 -0.471074 21.1333
      vertex 4.96804 -1.13478 20.7518
      vertex 4.02157 -0.933098 21.2042
    endloop
  endfacet
  facet normal -0.427623 0.0205804 -0.903723
    outer loop
      vertex 4.36868 -0.00178493 21.0612
      vertex 5.19183 0.362382 20.68
      vertex 4.96804 -1.13478 20.7518
    endloop
  endfacet
  facet normal -0.427623 0.0205796 -0.903723
    outer loop
      vertex 5.19183 0.362382 20.68
      vertex 4.36868 -0.00178493 21.0612
      vertex 4.55498 0.498089 20.9844
    endloop
  endfacet
endsolid OpenSCAD_Model
