solid OpenSCAD_Model
  facet normal 0.353553 0.866025 0.353554
    outer loop
      vertex 17.7678 -2.24141 36.7807
      vertex 17.8275 -2.95827 38.477
      vertex 18.7105 -2.90553 37.4648
    endloop
  endfacet
  facet normal 0.353545 0.866024 0.353565
    outer loop
      vertex 17.7678 -2.24141 36.7807
      vertex 18.7105 -2.90553 37.4648
      vertex 18.7284 -2.90447 37.4443
    endloop
  endfacet
  facet normal 0.353552 0.866025 0.353554
    outer loop
      vertex 17.8275 -2.95827 38.477
      vertex 17.7678 -2.24141 36.7807
      vertex 17.0053 -2.28695 37.6548
    endloop
  endfacet
  facet normal 0.353554 0.866025 0.353553
    outer loop
      vertex 19.9825 -2.63568 35.5318
      vertex 17.7678 -2.24141 36.7807
      vertex 18.7284 -2.90447 37.4443
    endloop
  endfacet
  facet normal 0.353554 0.866025 0.353553
    outer loop
      vertex 17.7678 -2.24141 36.7807
      vertex 19.9825 -2.63568 35.5318
      vertex 19.1396 -1.94741 34.6888
    endloop
  endfacet
  facet normal -0.348319 0.524721 0.776751
    outer loop
      vertex 17.0053 -2.28695 37.6548
      vertex 17.812 -2.99096 38.4922
      vertex 17.8275 -2.95827 38.477
    endloop
  endfacet
  facet normal -0.348307 0.524733 0.776748
    outer loop
      vertex 16.7403 -2.84809 37.9151
      vertex 17.812 -2.99096 38.4922
      vertex 17.0053 -2.28695 37.6548
    endloop
  endfacet
  facet normal -0.348306 0.524734 0.776748
    outer loop
      vertex 16.129 -3.8337 38.3068
      vertex 17.812 -2.99096 38.4922
      vertex 16.7403 -2.84809 37.9151
    endloop
  endfacet
  facet normal -0.348305 0.524732 0.77675
    outer loop
      vertex 16.129 -3.8337 38.3068
      vertex 16.0813 -5.78162 39.6013
      vertex 17.812 -2.99096 38.4922
    endloop
  endfacet
  facet normal -0.348308 0.524731 0.776749
    outer loop
      vertex 15.311 -5.15269 38.831
      vertex 16.0813 -5.78162 39.6013
      vertex 16.129 -3.8337 38.3068
    endloop
  endfacet
  facet normal -0.348305 0.524734 0.776748
    outer loop
      vertex 16.0813 -5.78162 39.6013
      vertex 15.311 -5.15269 38.831
      vertex 15.7244 -6.26987 39.7711
    endloop
  endfacet
  facet normal -0.348306 0.524734 0.776748
    outer loop
      vertex 14.469 -6.30465 39.2317
      vertex 15.7244 -6.26987 39.7711
      vertex 15.311 -5.15269 38.831
    endloop
  endfacet
  facet normal -0.348307 0.524729 0.776751
    outer loop
      vertex 15.7244 -6.26987 39.7711
      vertex 14.469 -6.30465 39.2317
      vertex 15.4438 -6.65386 39.9047
    endloop
  endfacet
  facet normal -0.348305 0.524732 0.77675
    outer loop
      vertex 14.469 -6.30465 39.2317
      vertex 14.0703 -8.16504 40.3097
      vertex 15.4438 -6.65386 39.9047
    endloop
  endfacet
  facet normal -0.348305 0.524732 0.77675
    outer loop
      vertex 14.0703 -8.16504 40.3097
      vertex 14.469 -6.30465 39.2317
      vertex 13.3286 -7.55944 39.568
    endloop
  endfacet
  facet normal 0.707107 -2.44193e-06 -0.707107
    outer loop
      vertex 19.9825 -2.63568 35.5318
      vertex 19.1231 -2.49707 34.6724
      vertex 19.1396 -1.94741 34.6888
    endloop
  endfacet
  facet normal 0.70711 4.19212e-05 -0.707103
    outer loop
      vertex 19.9816 -2.6677 35.5308
      vertex 19.1231 -2.49707 34.6724
      vertex 19.9825 -2.63568 35.5318
    endloop
  endfacet
  facet normal 0.707106 1.76277e-06 -0.707107
    outer loop
      vertex 19.9816 -2.6677 35.5308
      vertex 19 -3.34747 34.5492
      vertex 19.1231 -2.49707 34.6724
    endloop
  endfacet
  facet normal 0.707107 0 -0.707107
    outer loop
      vertex 19.8011 -3.91391 35.3503
      vertex 19 -3.34747 34.5492
      vertex 19.9816 -2.6677 35.5308
    endloop
  endfacet
  facet normal 0.707107 0 -0.707107
    outer loop
      vertex 19 -3.34747 34.5492
      vertex 19.8011 -3.91391 35.3503
      vertex 18.9565 -3.64735 34.5058
    endloop
  endfacet
  facet normal 0.707106 -3.40978e-06 -0.707107
    outer loop
      vertex 18.9565 -3.64735 34.5058
      vertex 19.8011 -3.91391 35.3503
      vertex 19.7463 -4.29216 35.2955
    endloop
  endfacet
  facet normal 0.336984 -0.535613 -0.774313
    outer loop
      vertex 17.6477 -6.14607 35.6646
      vertex 19.7463 -4.29216 35.2955
      vertex 18.6028 -6.47515 36.3079
    endloop
  endfacet
  facet normal 0.336983 -0.535615 -0.774312
    outer loop
      vertex 17.6477 -6.14607 35.6646
      vertex 18.6028 -6.47515 36.3079
      vertex 18.3958 -6.78537 36.4324
    endloop
  endfacet
  facet normal 0.336986 -0.535613 -0.774312
    outer loop
      vertex 17.4554 -6.43425 35.7803
      vertex 18.3958 -6.78537 36.4324
      vertex 18.1456 -7.16042 36.583
    endloop
  endfacet
  facet normal 0.336986 -0.535614 -0.774311
    outer loop
      vertex 19.7463 -4.29216 35.2955
      vertex 17.6477 -6.14607 35.6646
      vertex 18.9565 -3.64735 34.5058
    endloop
  endfacet
  facet normal 0.336987 -0.535612 -0.774313
    outer loop
      vertex 18.3958 -6.78537 36.4324
      vertex 17.4554 -6.43425 35.7803
      vertex 17.6477 -6.14607 35.6646
    endloop
  endfacet
  facet normal 0.336985 -0.535614 -0.774312
    outer loop
      vertex 18.1456 -7.16042 36.583
      vertex 17.223 -6.78264 35.9201
      vertex 17.4554 -6.43425 35.7803
    endloop
  endfacet
  facet normal 0.336985 -0.535613 -0.774313
    outer loop
      vertex 16.0147 -8.30433 36.4468
      vertex 18.1456 -7.16042 36.583
      vertex 16.0534 -9.79523 37.495
    endloop
  endfacet
  facet normal 0.336985 -0.535614 -0.774312
    outer loop
      vertex 18.1456 -7.16042 36.583
      vertex 16.0147 -8.30433 36.4468
      vertex 17.223 -6.78264 35.9201
    endloop
  endfacet
  facet normal 0.336983 -0.535613 -0.774313
    outer loop
      vertex 16.0147 -8.30433 36.4468
      vertex 16.0534 -9.79523 37.495
      vertex 15.3117 -9.18962 36.7533
    endloop
  endfacet
  facet normal 0.789709 0.42299 -0.444341
    outer loop
      vertex 16.0534 -9.79523 37.495
      vertex 15.353 -9.52991 36.5029
      vertex 15.3117 -9.18962 36.7533
    endloop
  endfacet
  facet normal 0.78971 0.422987 -0.444342
    outer loop
      vertex 16.0858 -10.0614 37.2991
      vertex 15.353 -9.52991 36.5029
      vertex 16.0534 -9.79523 37.495
    endloop
  endfacet
  facet normal 0.78971 0.422987 -0.444342
    outer loop
      vertex 15.353 -9.52991 36.5029
      vertex 16.0858 -10.0614 37.2991
      vertex 16.087 -10.1292 37.2368
    endloop
  endfacet
  facet normal -0.707103 4.19219e-05 0.70711
    outer loop
      vertex 11.6915 -2.57284 42.2896
      vertex 12.5499 -2.74346 43.148
      vertex 12.5509 -2.71144 43.149
    endloop
  endfacet
  facet normal -0.707108 6.41451e-07 0.707106
    outer loop
      vertex 12.5499 -2.74346 43.148
      vertex 11.4627 -4.15245 42.0608
      vertex 12.2638 -4.71889 42.8619
    endloop
  endfacet
  facet normal -0.707107 -3.6629e-06 0.707106
    outer loop
      vertex 11.6915 -2.57284 42.2896
      vertex 12.5509 -2.71144 43.149
      vertex 11.7079 -2.02318 42.306
    endloop
  endfacet
  facet normal -0.707108 2.21198e-07 0.707106
    outer loop
      vertex 12.5499 -2.74346 43.148
      vertex 11.6915 -2.57284 42.2896
      vertex 11.4627 -4.15245 42.0608
    endloop
  endfacet
  facet normal -0.707108 1.31845e-06 0.707106
    outer loop
      vertex 11.1933 -6.01237 41.7915
      vertex 12.2638 -4.71889 42.8619
      vertex 11.4627 -4.15245 42.0608
    endloop
  endfacet
  facet normal -0.707106 -9.91378e-07 0.707107
    outer loop
      vertex 12.2638 -4.71889 42.8619
      vertex 11.1933 -6.01237 41.7915
      vertex 12.0249 -6.36792 42.6231
    endloop
  endfacet
  facet normal -0.707106 -1.18871e-06 0.707107
    outer loop
      vertex 10.7868 -7.52781 41.3849
      vertex 12.0249 -6.36792 42.6231
      vertex 11.1933 -6.01237 41.7915
    endloop
  endfacet
  facet normal -0.707107 1.34073e-06 0.707106
    outer loop
      vertex 12.0249 -6.36792 42.6231
      vertex 10.7868 -7.52781 41.3849
      vertex 11.6645 -7.71153 42.2626
    endloop
  endfacet
  facet normal -0.707108 2.77898e-08 0.707106
    outer loop
      vertex 10.3143 -9.28908 40.9124
      vertex 11.6645 -7.71153 42.2626
      vertex 10.7868 -7.52781 41.3849
    endloop
  endfacet
  facet normal -0.707107 -8.11539e-07 0.707107
    outer loop
      vertex 11.6645 -7.71153 42.2626
      vertex 10.3143 -9.28908 40.9124
      vertex 11.0986 -9.82079 41.6968
    endloop
  endfacet
  facet normal -0.707107 3.48267e-07 0.707107
    outer loop
      vertex 9.07597 -12.3223 39.6741
      vertex 11.0986 -9.82079 41.6968
      vertex 10.3143 -9.28908 40.9124
    endloop
  endfacet
  facet normal -0.707107 3.02446e-07 0.707107
    outer loop
      vertex 11.0986 -9.82079 41.6968
      vertex 9.07597 -12.3223 39.6741
      vertex 9.79376 -13.017 40.3919
    endloop
  endfacet
  facet normal -0.707107 2.96465e-07 0.707107
    outer loop
      vertex 8.23367 -13.7816 38.8318
      vertex 9.79376 -13.017 40.3919
      vertex 9.07597 -12.3223 39.6741
    endloop
  endfacet
  facet normal -0.707107 1.90156e-07 0.707107
    outer loop
      vertex 9.79376 -13.017 40.3919
      vertex 8.23367 -13.7816 38.8318
      vertex 8.78504 -14.7647 39.3832
    endloop
  endfacet
  facet normal -0.707107 -1.32334e-07 0.707107
    outer loop
      vertex 7.50894 -15.0372 38.1071
      vertex 8.78504 -14.7647 39.3832
      vertex 8.23367 -13.7816 38.8318
    endloop
  endfacet
  facet normal -0.707107 -1.20785e-06 0.707107
    outer loop
      vertex 8.78504 -14.7647 39.3832
      vertex 7.50894 -15.0372 38.1071
      vertex 8.14248 -15.878 38.7406
    endloop
  endfacet
  facet normal -0.707107 -1.00861e-06 0.707107
    outer loop
      vertex 6.50467 -16.2971 37.1028
      vertex 8.14248 -15.878 38.7406
      vertex 7.50894 -15.0372 38.1071
    endloop
  endfacet
  facet normal -0.707107 7.584e-07 0.707107
    outer loop
      vertex 8.14248 -15.878 38.7406
      vertex 6.50467 -16.2971 37.1028
      vertex 7.25207 -16.995 37.8502
    endloop
  endfacet
  facet normal -0.707106 2.47256e-06 0.707107
    outer loop
      vertex 6.35509 -16.4848 36.9532
      vertex 7.25207 -16.995 37.8502
      vertex 6.50467 -16.2971 37.1028
    endloop
  endfacet
  facet normal -0.707108 -5.1722e-06 0.707105
    outer loop
      vertex 7.25207 -16.995 37.8502
      vertex 6.35509 -16.4848 36.9532
      vertex 7.14482 -17.1296 37.743
    endloop
  endfacet
  facet normal 0.353553 0.866025 0.353554
    outer loop
      vertex 13.2607 -2.24141 41.2878
      vertex 12.5509 -2.71144 43.149
      vertex 13.9243 -2.90447 42.2484
    endloop
  endfacet
  facet normal 0.353575 0.866023 0.353537
    outer loop
      vertex 13.2607 -2.24141 41.2878
      vertex 13.9243 -2.90447 42.2484
      vertex 13.9448 -2.90553 42.2305
    endloop
  endfacet
  facet normal 0.353554 0.866025 0.353554
    outer loop
      vertex 12.5509 -2.71144 43.149
      vertex 13.2607 -2.24141 41.2878
      vertex 11.7079 -2.02318 42.306
    endloop
  endfacet
  facet normal 0.353553 0.866025 0.353554
    outer loop
      vertex 15.0377 -2.96247 41.2771
      vertex 13.2607 -2.24141 41.2878
      vertex 13.9448 -2.90553 42.2305
    endloop
  endfacet
  facet normal 0.353554 0.866026 0.353553
    outer loop
      vertex 13.2607 -2.24141 41.2878
      vertex 15.0377 -2.96247 41.2771
      vertex 14.2155 -2.29115 40.4549
    endloop
  endfacet
  facet normal 0.707107 -1.22715e-06 -0.707107
    outer loop
      vertex 15.0377 -2.96247 41.2771
      vertex 14.1953 -2.83768 40.4346
      vertex 14.2155 -2.29115 40.4549
    endloop
  endfacet
  facet normal 0.707111 6.32004e-05 -0.707102
    outer loop
      vertex 15.0365 -2.99431 41.2759
      vertex 14.1953 -2.83768 40.4346
      vertex 15.0377 -2.96247 41.2771
    endloop
  endfacet
  facet normal 0.707105 -9.03533e-07 -0.707108
    outer loop
      vertex 14.8009 -4.56226 41.0402
      vertex 14.1953 -2.83768 40.4346
      vertex 15.0365 -2.99431 41.2759
    endloop
  endfacet
  facet normal 0.707107 4.86765e-07 -0.707106
    outer loop
      vertex 14.8009 -4.56226 41.0402
      vertex 13.9036 -4.77796 40.143
      vertex 14.1953 -2.83768 40.4346
    endloop
  endfacet
  facet normal 0.707108 -2.34398e-07 -0.707106
    outer loop
      vertex 14.4939 -6.60437 40.7333
      vertex 13.9036 -4.77796 40.143
      vertex 14.8009 -4.56226 41.0402
    endloop
  endfacet
  facet normal 0.707108 -2.34398e-07 -0.707106
    outer loop
      vertex 13.9036 -4.77796 40.143
      vertex 14.4939 -6.60437 40.7333
      vertex 13.6803 -6.26356 39.9197
    endloop
  endfacet
  facet normal 0.707107 -1.80577e-06 -0.707106
    outer loop
      vertex 14.4939 -6.60437 40.7333
      vertex 13.3286 -7.55944 39.568
      vertex 13.6803 -6.26356 39.9197
    endloop
  endfacet
  facet normal 0.707106 1.31344e-06 -0.707108
    outer loop
      vertex 13.3286 -7.55944 39.568
      vertex 14.4939 -6.60437 40.7333
      vertex 14.0703 -8.16504 40.3097
    endloop
  endfacet
  facet normal 0.339975 -0.532762 -0.774972
    outer loop
      vertex 12.4526 -13.2566 38.3198
      vertex 12.4659 -11.9976 37.4602
      vertex 13.1985 -12.5958 38.1927
    endloop
  endfacet
  facet normal 0.339974 -0.532763 -0.774972
    outer loop
      vertex 11.8088 -12.5798 37.5721
      vertex 12.4526 -13.2566 38.3198
      vertex 12.1019 -13.5115 38.3412
    endloop
  endfacet
  facet normal 0.339976 -0.532761 -0.774972
    outer loop
      vertex 12.4526 -13.2566 38.3198
      vertex 11.8088 -12.5798 37.5721
      vertex 12.4659 -11.9976 37.4602
    endloop
  endfacet
  facet normal 0.339973 -0.532763 -0.774972
    outer loop
      vertex 11.8088 -12.5798 37.5721
      vertex 12.1019 -13.5115 38.3412
      vertex 11.3602 -12.9059 37.5995
    endloop
  endfacet
  facet normal -0.79027 -0.408451 0.456772
    outer loop
      vertex 12.501 -12.6158 36.9681
      vertex 13.1985 -12.5958 38.1927
      vertex 12.4659 -11.9976 37.4602
    endloop
  endfacet
  facet normal -0.790271 -0.40845 0.456772
    outer loop
      vertex 12.501 -12.6158 36.9681
      vertex 13.2384 -13.2975 37.6343
      vertex 13.1985 -12.5958 38.1927
    endloop
  endfacet
  facet normal -0.790271 -0.408449 0.456773
    outer loop
      vertex 13.2194 -13.6275 37.3063
      vertex 12.501 -12.6158 36.9681
      vertex 12.4427 -13.6274 35.9627
    endloop
  endfacet
  facet normal -0.790271 -0.408449 0.456773
    outer loop
      vertex 12.501 -12.6158 36.9681
      vertex 13.2194 -13.6275 37.3063
      vertex 13.2384 -13.2975 37.6343
    endloop
  endfacet
  facet normal -0.79027 -0.40845 0.456773
    outer loop
      vertex 12.4427 -13.6274 35.9627
      vertex 13.1845 -14.233 36.7045
      vertex 13.2194 -13.6275 37.3063
    endloop
  endfacet
  facet normal -0.79027 -0.40845 0.456773
    outer loop
      vertex 12.3013 -14.731 34.7312
      vertex 13.1845 -14.233 36.7045
      vertex 12.4427 -13.6274 35.9627
    endloop
  endfacet
  facet normal -0.790271 -0.40845 0.456772
    outer loop
      vertex 12.9404 -16.1377 34.579
      vertex 12.3013 -14.731 34.7312
      vertex 12.2262 -15.3176 34.0766
    endloop
  endfacet
  facet normal -0.79027 -0.40845 0.456773
    outer loop
      vertex 12.3013 -14.731 34.7312
      vertex 12.9404 -16.1377 34.579
      vertex 13.1845 -14.233 36.7045
    endloop
  endfacet
  facet normal -0.790271 -0.408449 0.456773
    outer loop
      vertex 11.941 -16.2902 32.7136
      vertex 12.9404 -16.1377 34.579
      vertex 12.2262 -15.3176 34.0766
    endloop
  endfacet
  facet normal -0.790271 -0.408449 0.456773
    outer loop
      vertex 12.5824 -17.359 32.8674
      vertex 11.941 -16.2902 32.7136
      vertex 11.8121 -16.7301 32.0972
    endloop
  endfacet
  facet normal -0.790271 -0.408449 0.456773
    outer loop
      vertex 11.941 -16.2902 32.7136
      vertex 12.5824 -17.359 32.8674
      vertex 12.9404 -16.1377 34.579
    endloop
  endfacet
  facet normal 0.789709 0.423015 -0.444318
    outer loop
      vertex 16.087 -10.1292 37.2368
      vertex 15.3546 -9.54275 36.4934
      vertex 15.353 -9.52991 36.5029
    endloop
  endfacet
  facet normal 0.78971 0.422988 -0.444341
    outer loop
      vertex 16.087 -10.1292 37.2368
      vertex 15.4036 -12.2525 34.0009
      vertex 15.3546 -9.54275 36.4934
    endloop
  endfacet
  facet normal 0.78971 0.422989 -0.444341
    outer loop
      vertex 16.1413 -13.1329 34.474
      vertex 15.4036 -12.2525 34.0009
      vertex 16.087 -10.1292 37.2368
    endloop
  endfacet
  facet normal 0.78971 0.422988 -0.444341
    outer loop
      vertex 15.4036 -12.2525 34.0009
      vertex 16.1413 -13.1329 34.474
      vertex 15.3919 -12.4856 33.7583
    endloop
  endfacet
  facet normal 0.78971 0.422986 -0.444343
    outer loop
      vertex 16.1392 -13.1741 34.4311
      vertex 15.3919 -12.4856 33.7583
      vertex 16.1413 -13.1329 34.474
    endloop
  endfacet
  facet normal 0.78971 0.422989 -0.444341
    outer loop
      vertex 16.1392 -13.1741 34.4311
      vertex 15.104 -13.9667 31.8367
      vertex 15.3919 -12.4856 33.7583
    endloop
  endfacet
  facet normal 0.78971 0.422989 -0.444341
    outer loop
      vertex 15.8231 -14.8004 32.3211
      vertex 15.104 -13.9667 31.8367
      vertex 16.1392 -13.1741 34.4311
    endloop
  endfacet
  facet normal 0.78971 0.422989 -0.444341
    outer loop
      vertex 15.8231 -14.8004 32.3211
      vertex 14.9094 -14.9681 30.5374
      vertex 15.104 -13.9667 31.8367
    endloop
  endfacet
  facet normal 0.78971 0.422988 -0.444341
    outer loop
      vertex 15.6307 -15.7901 31.037
      vertex 14.9094 -14.9681 30.5374
      vertex 15.8231 -14.8004 32.3211
    endloop
  endfacet
  facet normal 0.789711 0.422991 -0.444337
    outer loop
      vertex 15.5849 -15.9088 30.8426
      vertex 14.9094 -14.9681 30.5374
      vertex 15.6307 -15.7901 31.037
    endloop
  endfacet
  facet normal 0.78971 0.422989 -0.44434
    outer loop
      vertex 14.9094 -14.9681 30.5374
      vertex 15.5849 -15.9088 30.8426
      vertex 14.7952 -15.264 30.0529
    endloop
  endfacet
  facet normal -0.353554 -0.866025 -0.353553
    outer loop
      vertex 12.4726 -16.6906 31.34
      vertex 12.5824 -17.359 32.8674
      vertex 11.8121 -16.7301 32.0972
    endloop
  endfacet
  facet normal -0.353553 -0.866025 -0.353553
    outer loop
      vertex 12.5824 -17.359 32.8674
      vertex 12.4726 -16.6906 31.34
      vertex 13.3726 -17.3118 31.9616
    endloop
  endfacet
  facet normal -0.353554 -0.866026 -0.353553
    outer loop
      vertex 12.4726 -16.6906 31.34
      vertex 14.3193 -17.1089 30.518
      vertex 13.3726 -17.3118 31.9616
    endloop
  endfacet
  facet normal -0.353554 -0.866025 -0.353554
    outer loop
      vertex 13.5675 -16.456 29.6703
      vertex 14.3193 -17.1089 30.518
      vertex 12.4726 -16.6906 31.34
    endloop
  endfacet
  facet normal -0.353553 -0.866025 -0.353555
    outer loop
      vertex 14.3193 -17.1089 30.518
      vertex 13.5675 -16.456 29.6703
      vertex 14.6919 -17.0291 29.9496
    endloop
  endfacet
  facet normal -0.353554 -0.866026 -0.353552
    outer loop
      vertex 14.6919 -17.0291 29.9496
      vertex 13.5675 -16.456 29.6703
      vertex 13.9022 -16.3843 29.1599
    endloop
  endfacet
  facet normal 0.707107 0 -0.707107
    outer loop
      vertex 15.5849 -15.9088 30.8426
      vertex 13.9022 -16.3843 29.1599
      vertex 14.7952 -15.264 30.0529
    endloop
  endfacet
  facet normal 0.707107 0 -0.707107
    outer loop
      vertex 13.9022 -16.3843 29.1599
      vertex 15.5849 -15.9088 30.8426
      vertex 14.6919 -17.0291 29.9496
    endloop
  endfacet
  facet normal -0.353554 -0.866025 -0.353553
    outer loop
      vertex 7.81995 -16.6906 35.9926
      vertex 7.14482 -17.1296 37.743
      vertex 6.35509 -16.4848 36.9532
    endloop
  endfacet
  facet normal -0.353553 -0.866026 -0.353553
    outer loop
      vertex 7.14482 -17.1296 37.743
      vertex 7.81995 -16.6906 35.9926
      vertex 8.44161 -17.3118 36.8926
    endloop
  endfacet
  facet normal -0.353553 -0.866026 -0.353553
    outer loop
      vertex 7.81995 -16.6906 35.9926
      vertex 9.62279 -17.3734 35.8621
      vertex 8.44161 -17.3118 36.8926
    endloop
  endfacet
  facet normal -0.353553 -0.866026 -0.353552
    outer loop
      vertex 9.62279 -17.3734 35.8621
      vertex 7.81995 -16.6906 35.9926
      vertex 8.85251 -16.7444 35.0919
    endloop
  endfacet
  facet normal 0.707107 -3.54745e-07 -0.707106
    outer loop
      vertex 12.1019 -13.5115 38.3412
      vertex 10.8569 -13.7848 37.0963
      vertex 11.3602 -12.9059 37.5995
    endloop
  endfacet
  facet normal 0.707107 2.06264e-06 -0.707107
    outer loop
      vertex 11.3711 -14.7878 37.6105
      vertex 10.8569 -13.7848 37.0963
      vertex 12.1019 -13.5115 38.3412
    endloop
  endfacet
  facet normal 0.707106 1.48795e-06 -0.707107
    outer loop
      vertex 11.3711 -14.7878 37.6105
      vertex 9.99596 -15.2884 36.2353
      vertex 10.8569 -13.7848 37.0963
    endloop
  endfacet
  facet normal 0.707107 -9.29604e-07 -0.707107
    outer loop
      vertex 10.6115 -16.1144 36.8508
      vertex 9.99596 -15.2884 36.2353
      vertex 11.3711 -14.7878 37.6105
    endloop
  endfacet
  facet normal 0.707107 -7.41973e-07 -0.707107
    outer loop
      vertex 10.6115 -16.1144 36.8508
      vertex 9.19787 -16.3047 35.4372
      vertex 9.99596 -15.2884 36.2353
    endloop
  endfacet
  facet normal 0.707107 5.98954e-07 -0.707107
    outer loop
      vertex 9.62279 -17.3734 35.8621
      vertex 9.19787 -16.3047 35.4372
      vertex 10.6115 -16.1144 36.8508
    endloop
  endfacet
  facet normal 0.707107 9.34335e-07 -0.707106
    outer loop
      vertex 9.19787 -16.3047 35.4372
      vertex 9.62279 -17.3734 35.8621
      vertex 8.85251 -16.7444 35.0919
    endloop
  endfacet
  facet normal 0.654981 -0.0521906 0.753841
    outer loop
      vertex 13.9243 -2.90447 42.2484
      vertex 13.9214 -2.93621 42.2487
      vertex 13.9448 -2.90553 42.2305
    endloop
  endfacet
  facet normal 0.480258 -0.345167 0.806357
    outer loop
      vertex 11.6645 -7.71153 42.2626
      vertex 12.2406 -9.98128 40.9479
      vertex 13.2441 -6.53926 41.8237
    endloop
  endfacet
  facet normal 0.480256 -0.345168 0.806358
    outer loop
      vertex 12.2406 -9.98128 40.9479
      vertex 11.6645 -7.71153 42.2626
      vertex 11.0986 -9.82079 41.6968
    endloop
  endfacet
  facet normal 0.480257 -0.345165 0.806358
    outer loop
      vertex 12.0249 -6.36792 42.6231
      vertex 11.6645 -7.71153 42.2626
      vertex 13.2441 -6.53926 41.8237
    endloop
  endfacet
  facet normal 0.806358 -0.345166 0.480257
    outer loop
      vertex 18.3958 -6.78537 36.4324
      vertex 18.3036 -6.53926 36.764
      vertex 18.1456 -7.16042 36.583
    endloop
  endfacet
  facet normal 0.602676 -0.627426 0.49307
    outer loop
      vertex 12.9404 -16.1377 34.579
      vertex 13.7062 -13.3219 37.2262
      vertex 13.1845 -14.233 36.7045
    endloop
  endfacet
  facet normal 0.602673 -0.627428 0.493072
    outer loop
      vertex 13.7062 -13.3219 37.2262
      vertex 12.9404 -16.1377 34.579
      vertex 14.4212 -16.0493 32.8816
    endloop
  endfacet
  facet normal 0.665964 -0.498457 0.555007
    outer loop
      vertex 15.011 -10.1256 38.531
      vertex 16.087 -10.1292 37.2368
      vertex 16.0858 -10.0614 37.2991
    endloop
  endfacet
  facet normal 0.665963 -0.498459 0.555006
    outer loop
      vertex 13.7062 -13.3219 37.2262
      vertex 16.087 -10.1292 37.2368
      vertex 15.011 -10.1256 38.531
    endloop
  endfacet
  facet normal 0.665964 -0.498459 0.555005
    outer loop
      vertex 16.087 -10.1292 37.2368
      vertex 13.7062 -13.3219 37.2262
      vertex 16.1413 -13.1329 34.474
    endloop
  endfacet
  facet normal 0.665969 -0.498445 0.555011
    outer loop
      vertex 16.1413 -13.1329 34.474
      vertex 13.7062 -13.3219 37.2262
      vertex 16.1231 -13.1775 34.4557
    endloop
  endfacet
  facet normal 0.636946 -0.207332 0.742504
    outer loop
      vertex 13.2441 -6.53926 41.8237
      vertex 14.8009 -4.56226 41.0402
      vertex 13.9214 -2.93621 42.2487
    endloop
  endfacet
  facet normal 0.636946 -0.207332 0.742505
    outer loop
      vertex 14.8009 -4.56226 41.0402
      vertex 13.2441 -6.53926 41.8237
      vertex 14.4939 -6.60437 40.7333
    endloop
  endfacet
  facet normal 0.636946 -0.207334 0.742504
    outer loop
      vertex 15.7244 -6.26987 39.7711
      vertex 15.4438 -6.65386 39.9047
      vertex 15.9463 -6.68004 39.4663
    endloop
  endfacet
  facet normal 0.555007 -0.498459 0.665962
    outer loop
      vertex 13.1985 -12.5958 38.1927
      vertex 13.7062 -13.3219 37.2262
      vertex 15.011 -10.1256 38.531
    endloop
  endfacet
  facet normal 0.555008 -0.498458 0.665962
    outer loop
      vertex 13.7062 -13.3219 37.2262
      vertex 13.1985 -12.5958 38.1927
      vertex 13.2384 -13.2975 37.6343
    endloop
  endfacet
  facet normal 0.555006 -0.498458 0.665964
    outer loop
      vertex 12.2406 -9.98128 40.9479
      vertex 13.1985 -12.5958 38.1927
      vertex 15.011 -10.1256 38.531
    endloop
  endfacet
  facet normal 0.555005 -0.498459 0.665964
    outer loop
      vertex 10.9357 -13.1775 39.6431
      vertex 13.1985 -12.5958 38.1927
      vertex 12.2406 -9.98128 40.9479
    endloop
  endfacet
  facet normal 0.555005 -0.498459 0.665964
    outer loop
      vertex 13.1985 -12.5958 38.1927
      vertex 10.9357 -13.1775 39.6431
      vertex 12.4526 -13.2566 38.3198
    endloop
  endfacet
  facet normal 0.518387 -0.195655 0.832463
    outer loop
      vertex 12.2638 -4.71889 42.8619
      vertex 13.9214 -2.93621 42.2487
      vertex 12.5499 -2.74346 43.148
    endloop
  endfacet
  facet normal 0.518387 -0.195656 0.832462
    outer loop
      vertex 13.9214 -2.93621 42.2487
      vertex 12.2638 -4.71889 42.8619
      vertex 13.2441 -6.53926 41.8237
    endloop
  endfacet
  facet normal 0.430382 -0.486185 0.760524
    outer loop
      vertex 11.0986 -9.82079 41.6968
      vertex 10.9357 -13.1775 39.6431
      vertex 12.2406 -9.98128 40.9479
    endloop
  endfacet
  facet normal 0.430382 -0.486185 0.760523
    outer loop
      vertex 10.9357 -13.1775 39.6431
      vertex 11.0986 -9.82079 41.6968
      vertex 9.79376 -13.017 40.3919
    endloop
  endfacet
  facet normal 0.524607 -0.741071 0.419048
    outer loop
      vertex 12.5824 -17.359 32.8674
      vertex 14.4212 -16.0493 32.8816
      vertex 12.9404 -16.1377 34.579
    endloop
  endfacet
  facet normal 0.524607 -0.741072 0.419047
    outer loop
      vertex 14.4212 -16.0493 32.8816
      vertex 12.5824 -17.359 32.8674
      vertex 13.3726 -17.3118 31.9616
    endloop
  endfacet
  facet normal 0.603355 -0.357291 0.712956
    outer loop
      vertex 14.4939 -6.60437 40.7333
      vertex 13.2441 -6.53926 41.8237
      vertex 14.0703 -8.16504 40.3097
    endloop
  endfacet
  facet normal 0.603356 -0.357291 0.712955
    outer loop
      vertex 14.0703 -8.16504 40.3097
      vertex 15.9463 -6.68004 39.4663
      vertex 15.4438 -6.65386 39.9047
    endloop
  endfacet
  facet normal 0.603356 -0.35729 0.712956
    outer loop
      vertex 15.9463 -6.68004 39.4663
      vertex 14.0703 -8.16504 40.3097
      vertex 15.011 -10.1256 38.531
    endloop
  endfacet
  facet normal 0.60337 -0.357277 0.71295
    outer loop
      vertex 15.011 -10.1256 38.531
      vertex 14.0703 -8.16504 40.3097
      vertex 13.2441 -6.53926 41.8237
    endloop
  endfacet
  facet normal 0.614564 -0.729395 0.300489
    outer loop
      vertex 14.4212 -16.0493 32.8816
      vertex 13.3726 -17.3118 31.9616
      vertex 14.3193 -17.1089 30.518
    endloop
  endfacet
  facet normal 0.742505 -0.207332 0.636946
    outer loop
      vertex 18.7287 -2.93621 37.4414
      vertex 15.9463 -6.68004 39.4663
      vertex 18.3036 -6.53926 36.764
    endloop
  endfacet
  facet normal 0.614564 -0.729395 0.300489
    outer loop
      vertex 14.3193 -17.1089 30.518
      vertex 15.6307 -15.7901 31.037
      vertex 14.4212 -16.0493 32.8816
    endloop
  endfacet
  facet normal 0.614564 -0.729395 0.300489
    outer loop
      vertex 15.6307 -15.7901 31.037
      vertex 14.3193 -17.1089 30.518
      vertex 15.5849 -15.9088 30.8426
    endloop
  endfacet
  facet normal 0.614564 -0.729396 0.300488
    outer loop
      vertex 15.5849 -15.9088 30.8426
      vertex 14.3193 -17.1089 30.518
      vertex 14.6919 -17.0291 29.9496
    endloop
  endfacet
  facet normal 0.603355 -0.35729 0.712956
    outer loop
      vertex 13.2441 -6.53926 41.8237
      vertex 12.2406 -9.98128 40.9479
      vertex 15.011 -10.1256 38.531
    endloop
  endfacet
  facet normal 0.753859 -0.0522725 0.654953
    outer loop
      vertex 18.7284 -2.90447 37.4443
      vertex 18.7105 -2.90553 37.4648
      vertex 18.7287 -2.93621 37.4414
    endloop
  endfacet
  facet normal 0.696075 -0.615304 0.369974
    outer loop
      vertex 15.8231 -14.8004 32.3211
      vertex 14.4212 -16.0493 32.8816
      vertex 15.6307 -15.7901 31.037
    endloop
  endfacet
  facet normal 0.518387 -0.195656 0.832462
    outer loop
      vertex 12.2638 -4.71889 42.8619
      vertex 12.0249 -6.36792 42.6231
      vertex 13.2441 -6.53926 41.8237
    endloop
  endfacet
  facet normal 0.54384 -0.0411969 0.838177
    outer loop
      vertex 12.5499 -2.74346 43.148
      vertex 13.9243 -2.90447 42.2484
      vertex 12.5509 -2.71144 43.149
    endloop
  endfacet
  facet normal 0.543835 -0.0412427 0.838178
    outer loop
      vertex 13.9243 -2.90447 42.2484
      vertex 12.5499 -2.74346 43.148
      vertex 13.9214 -2.93621 42.2487
    endloop
  endfacet
  facet normal 0.654939 -0.0522733 0.753871
    outer loop
      vertex 13.9448 -2.90553 42.2305
      vertex 15.0365 -2.99431 41.2759
      vertex 15.0377 -2.96247 41.2771
    endloop
  endfacet
  facet normal 0.65495 -0.0521485 0.753871
    outer loop
      vertex 15.0365 -2.99431 41.2759
      vertex 13.9448 -2.90553 42.2305
      vertex 13.9214 -2.93621 42.2487
    endloop
  endfacet
  facet normal 0.636948 -0.207331 0.742504
    outer loop
      vertex 15.0365 -2.99431 41.2759
      vertex 13.9214 -2.93621 42.2487
      vertex 14.8009 -4.56226 41.0402
    endloop
  endfacet
  facet normal 0.636948 -0.207332 0.742503
    outer loop
      vertex 16.0813 -5.78162 39.6013
      vertex 15.7244 -6.26987 39.7711
      vertex 15.9463 -6.68004 39.4663
    endloop
  endfacet
  facet normal 0.712956 -0.357289 0.603356
    outer loop
      vertex 15.011 -10.1256 38.531
      vertex 18.1456 -7.16042 36.583
      vertex 18.3036 -6.53926 36.764
    endloop
  endfacet
  facet normal 0.712957 -0.357283 0.603358
    outer loop
      vertex 16.0534 -9.79523 37.495
      vertex 15.011 -10.1256 38.531
      vertex 16.0858 -10.0614 37.2991
    endloop
  endfacet
  facet normal 0.712956 -0.357291 0.603354
    outer loop
      vertex 18.1456 -7.16042 36.583
      vertex 15.011 -10.1256 38.531
      vertex 16.0534 -9.79523 37.495
    endloop
  endfacet
  facet normal 0.712956 -0.35729 0.603356
    outer loop
      vertex 15.9463 -6.68004 39.4663
      vertex 15.011 -10.1256 38.531
      vertex 18.3036 -6.53926 36.764
    endloop
  endfacet
  facet normal 0.602673 -0.627428 0.493072
    outer loop
      vertex 16.1231 -13.1775 34.4557
      vertex 13.7062 -13.3219 37.2262
      vertex 14.4212 -16.0493 32.8816
    endloop
  endfacet
  facet normal 0.696078 -0.615303 0.369969
    outer loop
      vertex 14.4212 -16.0493 32.8816
      vertex 16.1392 -13.1741 34.4311
      vertex 16.1231 -13.1775 34.4557
    endloop
  endfacet
  facet normal 0.696075 -0.615304 0.369974
    outer loop
      vertex 16.1392 -13.1741 34.4311
      vertex 14.4212 -16.0493 32.8816
      vertex 15.8231 -14.8004 32.3211
    endloop
  endfacet
  facet normal 0.493075 -0.627427 0.602671
    outer loop
      vertex 13.7062 -13.3219 37.2262
      vertex 13.2194 -13.6275 37.3063
      vertex 13.1845 -14.233 36.7045
    endloop
  endfacet
  facet normal 0.493072 -0.627427 0.602673
    outer loop
      vertex 11.3711 -14.7878 37.6105
      vertex 9.36159 -16.0493 37.9412
      vertex 10.6115 -16.1144 36.8508
    endloop
  endfacet
  facet normal 0.493075 -0.627426 0.602672
    outer loop
      vertex 13.7062 -13.3219 37.2262
      vertex 13.2384 -13.2975 37.6343
      vertex 13.2194 -13.6275 37.3063
    endloop
  endfacet
  facet normal 0.493073 -0.627428 0.602672
    outer loop
      vertex 11.3711 -14.7878 37.6105
      vertex 10.9357 -13.1775 39.6431
      vertex 9.36159 -16.0493 37.9412
    endloop
  endfacet
  facet normal 0.493071 -0.627428 0.602673
    outer loop
      vertex 10.9357 -13.1775 39.6431
      vertex 11.3711 -14.7878 37.6105
      vertex 12.1019 -13.5115 38.3412
    endloop
  endfacet
  facet normal 0.493073 -0.627427 0.602673
    outer loop
      vertex 10.9357 -13.1775 39.6431
      vertex 12.1019 -13.5115 38.3412
      vertex 12.4526 -13.2566 38.3198
    endloop
  endfacet
  facet normal 0.832461 -0.195653 0.51839
    outer loop
      vertex 18.3036 -6.53926 36.764
      vertex 19.7463 -4.29216 35.2955
      vertex 19.8011 -3.91391 35.3503
    endloop
  endfacet
  facet normal 0.832462 -0.195655 0.518388
    outer loop
      vertex 19.7463 -4.29216 35.2955
      vertex 18.3036 -6.53926 36.764
      vertex 18.6028 -6.47515 36.3079
    endloop
  endfacet
  facet normal 0.806357 -0.345167 0.480258
    outer loop
      vertex 18.6028 -6.47515 36.3079
      vertex 18.3036 -6.53926 36.764
      vertex 18.3958 -6.78537 36.4324
    endloop
  endfacet
  facet normal 0.742505 -0.207332 0.636946
    outer loop
      vertex 16.0813 -5.78162 39.6013
      vertex 18.7287 -2.93621 37.4414
      vertex 17.812 -2.99096 38.4922
    endloop
  endfacet
  facet normal 0.742505 -0.207332 0.636946
    outer loop
      vertex 18.7287 -2.93621 37.4414
      vertex 16.0813 -5.78162 39.6013
      vertex 15.9463 -6.68004 39.4663
    endloop
  endfacet
  facet normal 0.753871 -0.0522153 0.654945
    outer loop
      vertex 17.812 -2.99096 38.4922
      vertex 18.7105 -2.90553 37.4648
      vertex 17.8275 -2.95827 38.477
    endloop
  endfacet
  facet normal 0.753871 -0.0522566 0.654941
    outer loop
      vertex 18.7105 -2.90553 37.4648
      vertex 17.812 -2.99096 38.4922
      vertex 18.7287 -2.93621 37.4414
    endloop
  endfacet
  facet normal 0.760535 -0.48617 0.430378
    outer loop
      vertex 16.1413 -13.1329 34.474
      vertex 16.1231 -13.1775 34.4557
      vertex 16.1392 -13.1741 34.4311
    endloop
  endfacet
  facet normal 0.369973 -0.615305 0.696074
    outer loop
      vertex 8.78504 -14.7647 39.3832
      vertex 8.14248 -15.878 38.7406
      vertex 9.36159 -16.0493 37.9412
    endloop
  endfacet
  facet normal 0.369974 -0.615304 0.696075
    outer loop
      vertex 8.78504 -14.7647 39.3832
      vertex 10.9357 -13.1775 39.6431
      vertex 9.79376 -13.017 40.3919
    endloop
  endfacet
  facet normal 0.369974 -0.615304 0.696074
    outer loop
      vertex 10.9357 -13.1775 39.6431
      vertex 8.78504 -14.7647 39.3832
      vertex 9.36159 -16.0493 37.9412
    endloop
  endfacet
  facet normal 0.832462 -0.195655 0.518387
    outer loop
      vertex 18.7287 -2.93621 37.4414
      vertex 19.8011 -3.91391 35.3503
      vertex 19.9816 -2.6677 35.5308
    endloop
  endfacet
  facet normal 0.832462 -0.195655 0.518387
    outer loop
      vertex 19.8011 -3.91391 35.3503
      vertex 18.7287 -2.93621 37.4414
      vertex 18.3036 -6.53926 36.764
    endloop
  endfacet
  facet normal 0.838179 -0.0412787 0.543831
    outer loop
      vertex 18.7284 -2.90447 37.4443
      vertex 19.9816 -2.6677 35.5308
      vertex 19.9825 -2.63568 35.5318
    endloop
  endfacet
  facet normal 0.83818 -0.0413249 0.543826
    outer loop
      vertex 19.9816 -2.6677 35.5308
      vertex 18.7284 -2.90447 37.4443
      vertex 18.7287 -2.93621 37.4414
    endloop
  endfacet
  facet normal 0.300483 -0.729401 0.61456
    outer loop
      vertex 8.44161 -17.3118 36.8926
      vertex 7.25207 -16.995 37.8502
      vertex 7.14482 -17.1296 37.743
    endloop
  endfacet
  facet normal 0.300489 -0.729395 0.614565
    outer loop
      vertex 7.25207 -16.995 37.8502
      vertex 8.44161 -17.3118 36.8926
      vertex 9.36159 -16.0493 37.9412
    endloop
  endfacet
  facet normal 0.419049 -0.741072 0.524606
    outer loop
      vertex 9.62279 -17.3734 35.8621
      vertex 9.36159 -16.0493 37.9412
      vertex 8.44161 -17.3118 36.8926
    endloop
  endfacet
  facet normal 0.419047 -0.741072 0.524606
    outer loop
      vertex 9.36159 -16.0493 37.9412
      vertex 9.62279 -17.3734 35.8621
      vertex 10.6115 -16.1144 36.8508
    endloop
  endfacet
  facet normal 0.300489 -0.729395 0.614564
    outer loop
      vertex 8.14248 -15.878 38.7406
      vertex 7.25207 -16.995 37.8502
      vertex 9.36159 -16.0493 37.9412
    endloop
  endfacet
  facet normal -0.518388 0.195654 -0.832462
    outer loop
      vertex 11.4627 -4.15245 42.0608
      vertex 12.5683 -6.20562 40.8898
      vertex 11.1933 -6.01237 41.7915
    endloop
  endfacet
  facet normal -0.712956 0.357291 -0.603355
    outer loop
      vertex 17.223 -6.78264 35.9201
      vertex 15.1327 -6.33922 38.6527
      vertex 17.3698 -6.20562 36.0883
    endloop
  endfacet
  facet normal -0.712956 0.35729 -0.603356
    outer loop
      vertex 15.1327 -6.33922 38.6527
      vertex 17.223 -6.78264 35.9201
      vertex 16.0147 -8.30433 36.4468
    endloop
  endfacet
  facet normal -0.49307 0.627428 -0.602674
    outer loop
      vertex 13.0069 -12.6422 36.5269
      vertex 12.4427 -13.6274 35.9627
      vertex 12.501 -12.6158 36.9681
    endloop
  endfacet
  facet normal -0.493072 0.627428 -0.602672
    outer loop
      vertex 10.3778 -12.5052 38.8204
      vertex 11.8088 -12.5798 37.5721
      vertex 11.3602 -12.9059 37.5995
    endloop
  endfacet
  facet normal -0.493073 0.627428 -0.602672
    outer loop
      vertex 10.3778 -12.5052 38.8204
      vertex 11.3602 -12.9059 37.5995
      vertex 10.8569 -13.7848 37.0963
    endloop
  endfacet
  facet normal -0.760528 0.486181 -0.430378
    outer loop
      vertex 15.4036 -12.2525 34.0009
      vertex 15.3919 -12.4856 33.7583
      vertex 15.3004 -12.5052 33.8978
    endloop
  endfacet
  facet normal -0.806358 0.345166 -0.480257
    outer loop
      vertex 17.6477 -6.14607 35.6646
      vertex 17.4554 -6.43425 35.7803
      vertex 17.3698 -6.20562 36.0883
    endloop
  endfacet
  facet normal -0.524606 0.741072 -0.419048
    outer loop
      vertex 13.6854 -15.2305 32.404
      vertex 11.941 -16.2902 32.7136
      vertex 12.2262 -15.3176 34.0766
    endloop
  endfacet
  facet normal -0.696075 0.615304 -0.369973
    outer loop
      vertex 15.104 -13.9667 31.8367
      vertex 14.9094 -14.9681 30.5374
      vertex 13.6854 -15.2305 32.404
    endloop
  endfacet
  facet normal -0.602671 0.627428 -0.493074
    outer loop
      vertex 13.0069 -12.6422 36.5269
      vertex 12.3013 -14.731 34.7312
      vertex 12.4427 -13.6274 35.9627
    endloop
  endfacet
  facet normal -0.602672 0.627428 -0.493072
    outer loop
      vertex 12.3013 -14.731 34.7312
      vertex 13.0069 -12.6422 36.5269
      vertex 15.3004 -12.5052 33.8978
    endloop
  endfacet
  facet normal -0.636946 0.207332 -0.742505
    outer loop
      vertex 13.9036 -4.77796 40.143
      vertex 13.6803 -6.26356 39.9197
      vertex 12.5683 -6.20562 40.8898
    endloop
  endfacet
  facet normal -0.636947 0.20733 -0.742504
    outer loop
      vertex 15.311 -5.15269 38.831
      vertex 15.1327 -6.33922 38.6527
      vertex 14.469 -6.30465 39.2317
    endloop
  endfacet
  facet normal -0.555002 0.498462 -0.665964
    outer loop
      vertex 12.4659 -11.9976 37.4602
      vertex 13.0069 -12.6422 36.5269
      vertex 12.501 -12.6158 36.9681
    endloop
  endfacet
  facet normal -0.555006 0.498459 -0.665964
    outer loop
      vertex 13.0069 -12.6422 36.5269
      vertex 12.4659 -11.9976 37.4602
      vertex 14.2452 -9.60901 37.7652
    endloop
  endfacet
  facet normal -0.555005 0.49846 -0.665963
    outer loop
      vertex 10.3778 -12.5052 38.8204
      vertex 12.4659 -11.9976 37.4602
      vertex 11.8088 -12.5798 37.5721
    endloop
  endfacet
  facet normal -0.555006 0.498458 -0.665964
    outer loop
      vertex 12.4659 -11.9976 37.4602
      vertex 11.6161 -9.47203 40.0587
      vertex 14.2452 -9.60901 37.7652
    endloop
  endfacet
  facet normal -0.555006 0.498459 -0.665964
    outer loop
      vertex 12.4659 -11.9976 37.4602
      vertex 10.3778 -12.5052 38.8204
      vertex 11.6161 -9.47203 40.0587
    endloop
  endfacet
  facet normal -0.518386 0.195656 -0.832463
    outer loop
      vertex 11.4627 -4.15245 42.0608
      vertex 13.2111 -2.78641 41.2931
      vertex 12.5683 -6.20562 40.8898
    endloop
  endfacet
  facet normal -0.518387 0.195656 -0.832463
    outer loop
      vertex 13.2111 -2.78641 41.2931
      vertex 11.4627 -4.15245 42.0608
      vertex 11.6915 -2.57284 42.2896
    endloop
  endfacet
  facet normal -0.603356 0.357291 -0.712955
    outer loop
      vertex 15.1327 -6.33922 38.6527
      vertex 13.3286 -7.55944 39.568
      vertex 14.469 -6.30465 39.2317
    endloop
  endfacet
  facet normal -0.603355 0.35729 -0.712957
    outer loop
      vertex 13.3286 -7.55944 39.568
      vertex 11.6161 -9.47203 40.0587
      vertex 12.5683 -6.20562 40.8898
    endloop
  endfacet
  facet normal -0.603357 0.357292 -0.712954
    outer loop
      vertex 11.6161 -9.47203 40.0587
      vertex 13.3286 -7.55944 39.568
      vertex 15.1327 -6.33922 38.6527
    endloop
  endfacet
  facet normal -0.603356 0.357289 -0.712956
    outer loop
      vertex 13.6803 -6.26356 39.9197
      vertex 13.3286 -7.55944 39.568
      vertex 12.5683 -6.20562 40.8898
    endloop
  endfacet
  facet normal -0.806357 0.345167 -0.480258
    outer loop
      vertex 17.4554 -6.43425 35.7803
      vertex 17.223 -6.78264 35.9201
      vertex 17.3698 -6.20562 36.0883
    endloop
  endfacet
  facet normal -0.369974 0.615304 -0.696075
    outer loop
      vertex 8.23367 -13.7816 38.8318
      vertex 10.3778 -12.5052 38.8204
      vertex 8.88395 -15.2305 37.2054
    endloop
  endfacet
  facet normal -0.369973 0.615304 -0.696076
    outer loop
      vertex 10.3778 -12.5052 38.8204
      vertex 8.23367 -13.7816 38.8318
      vertex 9.07597 -12.3223 39.6741
    endloop
  endfacet
  facet normal -0.614564 0.729395 -0.300488
    outer loop
      vertex 13.6854 -15.2305 32.404
      vertex 13.5675 -16.456 29.6703
      vertex 12.4726 -16.6906 31.34
    endloop
  endfacet
  facet normal -0.654945 0.0522068 -0.753871
    outer loop
      vertex 14.1953 -2.83768 40.4346
      vertex 13.2607 -2.24141 41.2878
      vertex 14.2155 -2.29115 40.4549
    endloop
  endfacet
  facet normal -0.654944 0.0522101 -0.753872
    outer loop
      vertex 13.2607 -2.24141 41.2878
      vertex 14.1953 -2.83768 40.4346
      vertex 13.2111 -2.78641 41.2931
    endloop
  endfacet
  facet normal -0.300488 0.729395 -0.614564
    outer loop
      vertex 7.81995 -16.6906 35.9926
      vertex 6.50467 -16.2971 37.1028
      vertex 8.88395 -15.2305 37.2054
    endloop
  endfacet
  facet normal -0.300489 0.729395 -0.614564
    outer loop
      vertex 6.50467 -16.2971 37.1028
      vertex 7.81995 -16.6906 35.9926
      vertex 6.35509 -16.4848 36.9532
    endloop
  endfacet
  facet normal -0.696075 0.615304 -0.369974
    outer loop
      vertex 13.6854 -15.2305 32.404
      vertex 15.3919 -12.4856 33.7583
      vertex 15.104 -13.9667 31.8367
    endloop
  endfacet
  facet normal -0.696078 0.615304 -0.36997
    outer loop
      vertex 15.3919 -12.4856 33.7583
      vertex 13.6854 -15.2305 32.404
      vertex 15.3004 -12.5052 33.8978
    endloop
  endfacet
  facet normal -0.480257 0.345166 -0.806358
    outer loop
      vertex 11.6161 -9.47203 40.0587
      vertex 10.7868 -7.52781 41.3849
      vertex 12.5683 -6.20562 40.8898
    endloop
  endfacet
  facet normal -0.480256 0.345167 -0.806358
    outer loop
      vertex 10.7868 -7.52781 41.3849
      vertex 11.6161 -9.47203 40.0587
      vertex 10.3143 -9.28908 40.9124
    endloop
  endfacet
  facet normal -0.493072 0.627428 -0.602672
    outer loop
      vertex 10.8569 -13.7848 37.0963
      vertex 8.88395 -15.2305 37.2054
      vertex 10.3778 -12.5052 38.8204
    endloop
  endfacet
  facet normal -0.493072 0.627428 -0.602673
    outer loop
      vertex 8.88395 -15.2305 37.2054
      vertex 10.8569 -13.7848 37.0963
      vertex 9.99596 -15.2884 36.2353
    endloop
  endfacet
  facet normal -0.480257 0.345167 -0.806358
    outer loop
      vertex 11.1933 -6.01237 41.7915
      vertex 12.5683 -6.20562 40.8898
      vertex 10.7868 -7.52781 41.3849
    endloop
  endfacet
  facet normal -0.369974 0.615304 -0.696075
    outer loop
      vertex 8.23367 -13.7816 38.8318
      vertex 8.88395 -15.2305 37.2054
      vertex 7.50894 -15.0372 38.1071
    endloop
  endfacet
  facet normal -0.636946 0.207332 -0.742505
    outer loop
      vertex 13.9036 -4.77796 40.143
      vertex 13.2111 -2.78641 41.2931
      vertex 14.1953 -2.83768 40.4346
    endloop
  endfacet
  facet normal -0.636946 0.207332 -0.742504
    outer loop
      vertex 13.2111 -2.78641 41.2931
      vertex 13.9036 -4.77796 40.143
      vertex 12.5683 -6.20562 40.8898
    endloop
  endfacet
  facet normal -0.742504 0.207333 -0.636947
    outer loop
      vertex 17.3698 -6.20562 36.0883
      vertex 15.311 -5.15269 38.831
      vertex 16.129 -3.8337 38.3068
    endloop
  endfacet
  facet normal -0.742505 0.207331 -0.636947
    outer loop
      vertex 15.311 -5.15269 38.831
      vertex 17.3698 -6.20562 36.0883
      vertex 15.1327 -6.33922 38.6527
    endloop
  endfacet
  facet normal -0.832462 0.195654 -0.518388
    outer loop
      vertex 17.3698 -6.20562 36.0883
      vertex 18.9565 -3.64735 34.5058
      vertex 17.6477 -6.14607 35.6646
    endloop
  endfacet
  facet normal -0.832465 0.19566 -0.518381
    outer loop
      vertex 18.9565 -3.64735 34.5058
      vertex 17.3698 -6.20562 36.0883
      vertex 19 -3.34747 34.5492
    endloop
  endfacet
  facet normal -0.543833 0.0412673 -0.838178
    outer loop
      vertex 11.6915 -2.57284 42.2896
      vertex 13.2607 -2.24141 41.2878
      vertex 13.2111 -2.78641 41.2931
    endloop
  endfacet
  facet normal -0.543833 0.0412685 -0.838178
    outer loop
      vertex 13.2607 -2.24141 41.2878
      vertex 11.6915 -2.57284 42.2896
      vertex 11.7079 -2.02318 42.306
    endloop
  endfacet
  facet normal -0.614564 0.729395 -0.300488
    outer loop
      vertex 13.5675 -16.456 29.6703
      vertex 14.9094 -14.9681 30.5374
      vertex 14.7952 -15.264 30.0529
    endloop
  endfacet
  facet normal -0.614564 0.729395 -0.300488
    outer loop
      vertex 14.9094 -14.9681 30.5374
      vertex 13.5675 -16.456 29.6703
      vertex 13.6854 -15.2305 32.404
    endloop
  endfacet
  facet normal -0.614564 0.729395 -0.300489
    outer loop
      vertex 13.5675 -16.456 29.6703
      vertex 14.7952 -15.264 30.0529
      vertex 13.9022 -16.3843 29.1599
    endloop
  endfacet
  facet normal -0.602673 0.627429 -0.493071
    outer loop
      vertex 15.3004 -12.5052 33.8978
      vertex 12.2262 -15.3176 34.0766
      vertex 12.3013 -14.731 34.7312
    endloop
  endfacet
  facet normal -0.602672 0.627428 -0.493073
    outer loop
      vertex 12.2262 -15.3176 34.0766
      vertex 15.3004 -12.5052 33.8978
      vertex 13.6854 -15.2305 32.404
    endloop
  endfacet
  facet normal -0.75387 0.0522103 -0.654946
    outer loop
      vertex 17.7731 -2.78641 36.7311
      vertex 17.0053 -2.28695 37.6548
      vertex 17.7678 -2.24141 36.7807
    endloop
  endfacet
  facet normal -0.753871 0.0522069 -0.654945
    outer loop
      vertex 17.0053 -2.28695 37.6548
      vertex 17.7731 -2.78641 36.7311
      vertex 16.7403 -2.84809 37.9151
    endloop
  endfacet
  facet normal -0.742504 0.20733 -0.636947
    outer loop
      vertex 17.7731 -2.78641 36.7311
      vertex 16.129 -3.8337 38.3068
      vertex 16.7403 -2.84809 37.9151
    endloop
  endfacet
  facet normal -0.742505 0.207332 -0.636946
    outer loop
      vertex 16.129 -3.8337 38.3068
      vertex 17.7731 -2.78641 36.7311
      vertex 17.3698 -6.20562 36.0883
    endloop
  endfacet
  facet normal -0.524606 0.741072 -0.419048
    outer loop
      vertex 12.4726 -16.6906 31.34
      vertex 11.941 -16.2902 32.7136
      vertex 13.6854 -15.2305 32.404
    endloop
  endfacet
  facet normal -0.524607 0.741071 -0.419048
    outer loop
      vertex 11.941 -16.2902 32.7136
      vertex 12.4726 -16.6906 31.34
      vertex 11.8121 -16.7301 32.0972
    endloop
  endfacet
  facet normal -0.300489 0.729396 -0.614564
    outer loop
      vertex 7.50894 -15.0372 38.1071
      vertex 8.88395 -15.2305 37.2054
      vertex 6.50467 -16.2971 37.1028
    endloop
  endfacet
  facet normal -0.419047 0.741072 -0.524607
    outer loop
      vertex 9.19787 -16.3047 35.4372
      vertex 7.81995 -16.6906 35.9926
      vertex 8.88395 -15.2305 37.2054
    endloop
  endfacet
  facet normal -0.419047 0.741073 -0.524605
    outer loop
      vertex 7.81995 -16.6906 35.9926
      vertex 9.19787 -16.3047 35.4372
      vertex 8.85251 -16.7444 35.0919
    endloop
  endfacet
  facet normal -0.419048 0.741071 -0.524606
    outer loop
      vertex 9.99596 -15.2884 36.2353
      vertex 9.19787 -16.3047 35.4372
      vertex 8.88395 -15.2305 37.2054
    endloop
  endfacet
  facet normal -0.665964 0.498458 -0.555006
    outer loop
      vertex 13.0069 -12.6422 36.5269
      vertex 15.3546 -9.54275 36.4934
      vertex 15.4036 -12.2525 34.0009
    endloop
  endfacet
  facet normal -0.665965 0.498454 -0.555008
    outer loop
      vertex 13.0069 -12.6422 36.5269
      vertex 15.4036 -12.2525 34.0009
      vertex 15.3004 -12.5052 33.8978
    endloop
  endfacet
  facet normal -0.665964 0.498458 -0.555005
    outer loop
      vertex 15.3546 -9.54275 36.4934
      vertex 13.0069 -12.6422 36.5269
      vertex 14.2452 -9.60901 37.7652
    endloop
  endfacet
  facet normal -0.603356 0.35729 -0.712956
    outer loop
      vertex 15.1327 -6.33922 38.6527
      vertex 14.2452 -9.60901 37.7652
      vertex 11.6161 -9.47203 40.0587
    endloop
  endfacet
  facet normal -0.712956 0.35729 -0.603356
    outer loop
      vertex 14.2452 -9.60901 37.7652
      vertex 16.0147 -8.30433 36.4468
      vertex 15.3117 -9.18962 36.7533
    endloop
  endfacet
  facet normal -0.712956 0.35729 -0.603356
    outer loop
      vertex 16.0147 -8.30433 36.4468
      vertex 14.2452 -9.60901 37.7652
      vertex 15.1327 -6.33922 38.6527
    endloop
  endfacet
  facet normal -0.712956 0.357291 -0.603355
    outer loop
      vertex 15.353 -9.52991 36.5029
      vertex 14.2452 -9.60901 37.7652
      vertex 15.3117 -9.18962 36.7533
    endloop
  endfacet
  facet normal -0.712944 0.357337 -0.603342
    outer loop
      vertex 14.2452 -9.60901 37.7652
      vertex 15.353 -9.52991 36.5029
      vertex 15.3546 -9.54275 36.4934
    endloop
  endfacet
  facet normal -0.832462 0.195656 -0.518387
    outer loop
      vertex 19 -3.34747 34.5492
      vertex 17.7731 -2.78641 36.7311
      vertex 19.1231 -2.49707 34.6724
    endloop
  endfacet
  facet normal -0.832462 0.195655 -0.518387
    outer loop
      vertex 17.7731 -2.78641 36.7311
      vertex 19 -3.34747 34.5492
      vertex 17.3698 -6.20562 36.0883
    endloop
  endfacet
  facet normal -0.838178 0.0412646 -0.543833
    outer loop
      vertex 19.1231 -2.49707 34.6724
      vertex 17.7678 -2.24141 36.7807
      vertex 19.1396 -1.94741 34.6888
    endloop
  endfacet
  facet normal -0.838178 0.0412673 -0.543833
    outer loop
      vertex 17.7678 -2.24141 36.7807
      vertex 19.1231 -2.49707 34.6724
      vertex 17.7731 -2.78641 36.7311
    endloop
  endfacet
  facet normal -0.430381 0.486185 -0.760524
    outer loop
      vertex 10.3778 -12.5052 38.8204
      vertex 10.3143 -9.28908 40.9124
      vertex 11.6161 -9.47203 40.0587
    endloop
  endfacet
  facet normal -0.430381 0.486185 -0.760524
    outer loop
      vertex 10.3143 -9.28908 40.9124
      vertex 10.3778 -12.5052 38.8204
      vertex 9.07597 -12.3223 39.6741
    endloop
  endfacet
endsolid OpenSCAD_Model
