solid OpenSCAD_Model
  facet normal -0.770589 -0.204466 0.603644
    outer loop
      vertex 8.76625 -3.21477 19.4348
      vertex 9.53341 -3.57357 20.2926
      vertex 8.76479 -2.946 19.524
    endloop
  endfacet
  facet normal -0.77059 -0.204469 0.603643
    outer loop
      vertex 8.75179 -3.35504 19.3688
      vertex 9.53341 -3.57357 20.2926
      vertex 8.76625 -3.21477 19.4348
    endloop
  endfacet
  facet normal -0.77059 -0.204468 0.603643
    outer loop
      vertex 9.53341 -3.57357 20.2926
      vertex 8.75179 -3.35504 19.3688
      vertex 9.4935 -3.96065 20.1105
    endloop
  endfacet
  facet normal 0.570968 -0.256041 -0.780025
    outer loop
      vertex 9.8323 -3.65068 17.3709
      vertex 10.6267 -4.24865 18.1488
      vertex 10.6105 -4.28607 18.1491
    endloop
  endfacet
  facet normal 0.570966 -0.256044 -0.780025
    outer loop
      vertex 10.6267 -4.24865 18.1488
      vertex 9.8323 -3.65068 17.3709
      vertex 9.8471 -3.61207 17.3691
    endloop
  endfacet
  facet normal 0.759273 0.156182 -0.631753
    outer loop
      vertex 10.9239 -2.32508 18.6938
      vertex 10.0632 -2.62502 17.5852
      vertex 10.1164 -1.66578 17.8863
    endloop
  endfacet
  facet normal 0.759273 0.156181 -0.631753
    outer loop
      vertex 10.8851 -3.1625 18.4401
      vertex 10.0632 -2.62502 17.5852
      vertex 10.9239 -2.32508 18.6938
    endloop
  endfacet
  facet normal 0.759272 0.156174 -0.631756
    outer loop
      vertex 10.0632 -2.62502 17.5852
      vertex 10.8851 -3.1625 18.4401
      vertex 10.8791 -3.29122 18.4011
    endloop
  endfacet
  facet normal 0.707112 1.2369e-05 -0.707101
    outer loop
      vertex 10.8791 -3.29122 18.4011
      vertex 10.0567 -2.6738 17.5787
      vertex 10.0632 -2.62502 17.5852
    endloop
  endfacet
  facet normal 0.707107 -2.39107e-06 -0.707107
    outer loop
      vertex 10.0567 -2.6738 17.5787
      vertex 10.8791 -3.29122 18.4011
      vertex 10.0194 -2.95341 17.5414
    endloop
  endfacet
  facet normal 0.707107 -1.8606e-07 -0.707106
    outer loop
      vertex 10.8791 -3.29122 18.4011
      vertex 9.96512 -3.16089 17.4871
      vertex 10.0194 -2.95341 17.5414
    endloop
  endfacet
  facet normal 0.70711 3.62338e-05 -0.707104
    outer loop
      vertex 10.8738 -3.32759 18.3958
      vertex 9.96512 -3.16089 17.4871
      vertex 10.8791 -3.29122 18.4011
    endloop
  endfacet
  facet normal 0.707106 1.89746e-07 -0.707107
    outer loop
      vertex 10.8339 -3.47645 18.3559
      vertex 9.96512 -3.16089 17.4871
      vertex 10.8738 -3.32759 18.3958
    endloop
  endfacet
  facet normal 0.707107 1.55039e-06 -0.707107
    outer loop
      vertex 10.8339 -3.47645 18.3559
      vertex 9.8471 -3.61207 17.3691
      vertex 9.96512 -3.16089 17.4871
    endloop
  endfacet
  facet normal 0.707107 0 -0.707107
    outer loop
      vertex 9.8471 -3.61207 17.3691
      vertex 10.8339 -3.47645 18.3559
      vertex 10.6267 -4.24865 18.1488
    endloop
  endfacet
  facet normal -0.560675 0.27142 0.782288
    outer loop
      vertex 8.36491 -4.13708 19.3628
      vertex 9.11949 -4.71667 20.1048
      vertex 9.4935 -3.96065 20.1105
    endloop
  endfacet
  facet normal -0.560674 0.27142 0.782289
    outer loop
      vertex 8.6658 -3.52885 19.3675
      vertex 9.4935 -3.96065 20.1105
      vertex 8.75179 -3.35504 19.3688
    endloop
  endfacet
  facet normal -0.560675 0.271419 0.782289
    outer loop
      vertex 8.36491 -4.13708 19.3628
      vertex 9.4935 -3.96065 20.1105
      vertex 8.6658 -3.52885 19.3675
    endloop
  endfacet
  facet normal -0.560677 0.271416 0.782288
    outer loop
      vertex 9.11949 -4.71667 20.1048
      vertex 8.36491 -4.13708 19.3628
      vertex 9.10662 -4.74269 20.1046
    endloop
  endfacet
  facet normal 0.570982 -0.25602 -0.780021
    outer loop
      vertex 9.29987 -4.87385 17.3827
      vertex 10.1997 -5.23207 18.1589
      vertex 10.0509 -5.4871 18.1337
    endloop
  endfacet
  facet normal 0.570982 -0.256019 -0.780021
    outer loop
      vertex 10.1997 -5.23207 18.1589
      vertex 9.4678 -4.54549 17.3978
      vertex 10.6105 -4.28607 18.1491
    endloop
  endfacet
  facet normal 0.570983 -0.256019 -0.780021
    outer loop
      vertex 10.6105 -4.28607 18.1491
      vertex 9.65147 -4.12252 17.3934
      vertex 9.8323 -3.65068 17.3709
    endloop
  endfacet
  facet normal 0.570982 -0.25602 -0.780021
    outer loop
      vertex 10.6105 -4.28607 18.1491
      vertex 9.4678 -4.54549 17.3978
      vertex 9.65147 -4.12252 17.3934
    endloop
  endfacet
  facet normal 0.570978 -0.256025 -0.780022
    outer loop
      vertex 10.1997 -5.23207 18.1589
      vertex 9.39904 -4.70385 17.3995
      vertex 9.4678 -4.54549 17.3978
    endloop
  endfacet
  facet normal 0.570984 -0.256014 -0.780022
    outer loop
      vertex 10.1997 -5.23207 18.1589
      vertex 9.29987 -4.87385 17.3827
      vertex 9.39904 -4.70385 17.3995
    endloop
  endfacet
  facet normal -0.728705 -0.657373 0.191962
    outer loop
      vertex 9.52504 -3.55887 20.3112
      vertex 8.42992 -2.40983 20.0889
      vertex 8.76479 -2.946 19.524
    endloop
  endfacet
  facet normal -0.728705 -0.657373 0.191963
    outer loop
      vertex 8.42992 -2.40983 20.0889
      vertex 9.52504 -3.55887 20.3112
      vertex 9.2002 -3.03876 20.8591
    endloop
  endfacet
  facet normal -0.728703 -0.657377 0.191957
    outer loop
      vertex 9.52504 -3.55887 20.3112
      vertex 8.76479 -2.946 19.524
      vertex 9.53341 -3.57357 20.2926
    endloop
  endfacet
  facet normal 0.759273 0.156177 -0.631753
    outer loop
      vertex 10.9383 -2.01546 18.7876
      vertex 10.1164 -1.66578 17.8863
      vertex 10.1335 -1.35838 17.9829
    endloop
  endfacet
  facet normal 0.759274 0.156183 -0.631752
    outer loop
      vertex 10.1164 -1.66578 17.8863
      vertex 10.9383 -2.01546 18.7876
      vertex 10.9239 -2.32508 18.6938
    endloop
  endfacet
  facet normal 0.783226 0.489032 -0.383933
    outer loop
      vertex 10.8824 -1.78803 18.9632
      vertex 10.0971 -1.18976 18.1234
      vertex 10.0806 -1.13337 18.1614
    endloop
  endfacet
  facet normal 0.783226 0.489031 -0.383933
    outer loop
      vertex 10.8824 -1.78803 18.9632
      vertex 10.1093 -1.23111 18.0955
      vertex 10.0971 -1.18976 18.1234
    endloop
  endfacet
  facet normal 0.783226 0.489031 -0.383933
    outer loop
      vertex 10.9383 -2.01546 18.7876
      vertex 10.1093 -1.23111 18.0955
      vertex 10.8824 -1.78803 18.9632
    endloop
  endfacet
  facet normal 0.783226 0.489034 -0.38393
    outer loop
      vertex 10.1093 -1.23111 18.0955
      vertex 10.9383 -2.01546 18.7876
      vertex 10.1335 -1.35838 17.9829
    endloop
  endfacet
  facet normal -0.707106 -7.63078e-07 0.707107
    outer loop
      vertex 5.55563 -1.11483 22.7286
      vertex 6.4097 -1.43066 23.5827
      vertex 6.43705 -0.514594 23.6101
    endloop
  endfacet
  facet normal -0.707107 7.24794e-07 0.707107
    outer loop
      vertex 6.4097 -1.43066 23.5827
      vertex 5.52784 -1.42195 22.7008
      vertex 6.22216 -2.72547 23.3952
    endloop
  endfacet
  facet normal -0.707107 -5.37141e-08 0.707106
    outer loop
      vertex 5.29417 -3.03528 22.4672
      vertex 6.22216 -2.72547 23.3952
      vertex 5.52784 -1.42195 22.7008
    endloop
  endfacet
  facet normal -0.707107 -3.66614e-07 0.707106
    outer loop
      vertex 6.22216 -2.72547 23.3952
      vertex 5.29417 -3.03528 22.4672
      vertex 6.12579 -3.39082 23.2988
    endloop
  endfacet
  facet normal -0.707107 -2.30598e-06 0.707106
    outer loop
      vertex 5.58125 -0.256703 22.7543
      vertex 6.43705 -0.514594 23.6101
      vertex 5.58769 0.178908 22.7607
    endloop
  endfacet
  facet normal -0.707107 7.90495e-07 0.707107
    outer loop
      vertex 5.55563 -1.11483 22.7286
      vertex 6.43705 -0.514594 23.6101
      vertex 5.58125 -0.256703 22.7543
    endloop
  endfacet
  facet normal -0.707106 -3.49754e-08 0.707107
    outer loop
      vertex 6.4097 -1.43066 23.5827
      vertex 5.55563 -1.11483 22.7286
      vertex 5.55129 -1.26003 22.7243
    endloop
  endfacet
  facet normal -0.707107 -4.21417e-06 0.707107
    outer loop
      vertex 6.4097 -1.43066 23.5827
      vertex 5.55129 -1.26003 22.7243
      vertex 5.52784 -1.42195 22.7008
    endloop
  endfacet
  facet normal -0.707107 1.95156e-07 0.707106
    outer loop
      vertex 6.12579 -3.39082 23.2988
      vertex 5.29417 -3.03528 22.4672
      vertex 5.9423 -4.07478 23.1153
    endloop
  endfacet
  facet normal -0.707107 3.74493e-07 0.707107
    outer loop
      vertex 4.94152 -4.34979 22.1145
      vertex 5.9423 -4.07478 23.1153
      vertex 5.29417 -3.03528 22.4672
    endloop
  endfacet
  facet normal -0.707107 7.12766e-07 0.707107
    outer loop
      vertex 5.9423 -4.07478 23.1153
      vertex 4.94152 -4.34979 22.1145
      vertex 5.62482 -5.25819 22.7978
    endloop
  endfacet
  facet normal -0.707108 -3.67065e-07 0.707106
    outer loop
      vertex 4.84046 -4.72648 22.0135
      vertex 5.62482 -5.25819 22.7978
      vertex 4.94152 -4.34979 22.1145
    endloop
  endfacet
  facet normal -0.707107 1.05589e-06 0.707106
    outer loop
      vertex 4.20134 -6.29199 21.3743
      vertex 5.62482 -5.25819 22.7978
      vertex 4.84046 -4.72648 22.0135
    endloop
  endfacet
  facet normal -0.707107 -1.3981e-07 0.707107
    outer loop
      vertex 5.62482 -5.25819 22.7978
      vertex 4.20134 -6.29199 21.3743
      vertex 4.91913 -6.98678 22.0921
    endloop
  endfacet
  facet normal -0.707107 -6.93093e-07 0.707106
    outer loop
      vertex 4.0212 -6.6041 21.1942
      vertex 4.91913 -6.98678 22.0921
      vertex 4.20134 -6.29199 21.3743
    endloop
  endfacet
  facet normal -0.707107 -3.78017e-07 0.707107
    outer loop
      vertex 4.91913 -6.98678 22.0921
      vertex 4.0212 -6.6041 21.1942
      vertex 4.35318 -7.96731 21.5262
    endloop
  endfacet
  facet normal -0.707107 -3.11734e-07 0.707107
    outer loop
      vertex 3.39255 -7.69326 20.5656
      vertex 4.35318 -7.96731 21.5262
      vertex 4.0212 -6.6041 21.1942
    endloop
  endfacet
  facet normal -0.707107 -4.23884e-07 0.707107
    outer loop
      vertex 4.35318 -7.96731 21.5262
      vertex 3.39255 -7.69326 20.5656
      vertex 4.02609 -8.53402 21.1991
    endloop
  endfacet
  facet normal -0.707106 4.42242e-07 0.707107
    outer loop
      vertex 4.02609 -8.53402 21.1991
      vertex 3.39255 -7.69326 20.5656
      vertex 3.66683 -8.98472 20.8398
    endloop
  endfacet
  facet normal -0.707107 2.71063e-07 0.707107
    outer loop
      vertex 2.52143 -8.78612 19.6944
      vertex 3.66683 -8.98472 20.8398
      vertex 3.39255 -7.69326 20.5656
    endloop
  endfacet
  facet normal -0.707107 -6.57478e-07 0.707107
    outer loop
      vertex 3.66683 -8.98472 20.8398
      vertex 2.52143 -8.78612 19.6944
      vertex 3.12812 -9.66056 20.3011
    endloop
  endfacet
  facet normal -0.707107 -1.02451e-06 0.707106
    outer loop
      vertex 2.434 -8.8958 19.607
      vertex 3.12812 -9.66056 20.3011
      vertex 2.52143 -8.78612 19.6944
    endloop
  endfacet
  facet normal -0.707108 -2.18634e-06 0.707106
    outer loop
      vertex 2.34725 -8.97371 19.5203
      vertex 3.12812 -9.66056 20.3011
      vertex 2.434 -8.8958 19.607
    endloop
  endfacet
  facet normal -0.707105 3.30016e-06 0.707108
    outer loop
      vertex 3.12812 -9.66056 20.3011
      vertex 2.34725 -8.97371 19.5203
      vertex 2.31851 -8.99952 19.4915
    endloop
  endfacet
  facet normal -0.353553 -0.866025 -0.353553
    outer loop
      vertex 2.35817 -9.00509 19.4655
      vertex 3.99052 -9.78176 19.7356
      vertex 3.12812 -9.66056 20.3011
    endloop
  endfacet
  facet normal -0.353549 -0.866026 -0.353558
    outer loop
      vertex 2.35817 -9.00509 19.4655
      vertex 3.12812 -9.66056 20.3011
      vertex 2.31851 -8.99952 19.4915
    endloop
  endfacet
  facet normal -0.353553 -0.866025 -0.353553
    outer loop
      vertex 3.99052 -9.78176 19.7356
      vertex 2.35817 -9.00509 19.4655
      vertex 3.59754 -9.17927 18.6528
    endloop
  endfacet
  facet normal -0.353552 -0.866026 -0.353554
    outer loop
      vertex 3.99052 -9.78176 19.7356
      vertex 3.59754 -9.17927 18.6528
      vertex 4.23485 -9.8161 19.5754
    endloop
  endfacet
  facet normal -0.353553 -0.866026 -0.353553
    outer loop
      vertex 4.23485 -9.8161 19.5754
      vertex 3.59754 -9.17927 18.6528
      vertex 4.77899 -9.84445 19.1007
    endloop
  endfacet
  facet normal -0.353552 -0.866025 -0.353555
    outer loop
      vertex 4.77899 -9.84445 19.1007
      vertex 3.59754 -9.17927 18.6528
      vertex 3.98933 -9.19969 18.311
    endloop
  endfacet
  facet normal 0.707107 1.77373e-07 -0.707107
    outer loop
      vertex 5.33788 -7.38841 19.6596
      vertex 6.55709 -7.16012 20.8788
      vertex 6.17599 -7.82568 20.4977
    endloop
  endfacet
  facet normal 0.707107 -6.54514e-07 -0.707107
    outer loop
      vertex 5.8578 -6.48043 20.1795
      vertex 6.55709 -7.16012 20.8788
      vertex 5.33788 -7.38841 19.6596
    endloop
  endfacet
  facet normal 0.70711 1.0827e-05 -0.707103
    outer loop
      vertex 6.62055 -7.00466 20.9422
      vertex 5.8578 -6.48043 20.1795
      vertex 5.88797 -6.40651 20.2097
    endloop
  endfacet
  facet normal 0.707107 9.62688e-07 -0.707107
    outer loop
      vertex 5.05338 -7.88528 19.3751
      vertex 6.17599 -7.82568 20.4977
      vertex 5.66888 -8.7113 19.9906
    endloop
  endfacet
  facet normal 0.707105 -3.24654e-06 -0.707108
    outer loop
      vertex 6.55709 -7.16012 20.8788
      vertex 5.8578 -6.48043 20.1795
      vertex 6.62055 -7.00466 20.9422
    endloop
  endfacet
  facet normal 0.707106 1.70139e-07 -0.707107
    outer loop
      vertex 4.71741 -8.31308 19.0391
      vertex 5.66888 -8.7113 19.9906
      vertex 5.23396 -9.26511 19.5557
    endloop
  endfacet
  facet normal 0.707107 1.77373e-07 -0.707107
    outer loop
      vertex 6.17599 -7.82568 20.4977
      vertex 5.05338 -7.88528 19.3751
      vertex 5.33788 -7.38841 19.6596
    endloop
  endfacet
  facet normal 0.707107 -5.20449e-07 -0.707107
    outer loop
      vertex 4.10346 -9.09486 18.4252
      vertex 5.23396 -9.26511 19.5557
      vertex 4.77899 -9.84445 19.1007
    endloop
  endfacet
  facet normal 0.707106 6.28362e-07 -0.707107
    outer loop
      vertex 5.66888 -8.7113 19.9906
      vertex 4.71741 -8.31308 19.0391
      vertex 5.05338 -7.88528 19.3751
    endloop
  endfacet
  facet normal 0.707107 7.71359e-07 -0.707107
    outer loop
      vertex 5.23396 -9.26511 19.5557
      vertex 4.10346 -9.09486 18.4252
      vertex 4.71741 -8.31308 19.0391
    endloop
  endfacet
  facet normal 0.707105 -3.88776e-06 -0.707109
    outer loop
      vertex 4.10346 -9.09486 18.4252
      vertex 4.77899 -9.84445 19.1007
      vertex 3.98933 -9.19969 18.311
    endloop
  endfacet
  facet normal -0.353554 -0.866025 -0.353554
    outer loop
      vertex 6.7434 -6.45108 19.4634
      vertex 6.62055 -7.00466 20.9422
      vertex 5.88797 -6.40651 20.2097
    endloop
  endfacet
  facet normal -0.353553 -0.866026 -0.353554
    outer loop
      vertex 6.62055 -7.00466 20.9422
      vertex 6.7434 -6.45108 19.4634
      vertex 7.47598 -7.04923 20.196
    endloop
  endfacet
  facet normal -0.353554 -0.866026 -0.353553
    outer loop
      vertex 7.47598 -7.04923 20.196
      vertex 6.7434 -6.45108 19.4634
      vertex 8.0176 -7.01689 19.5751
    endloop
  endfacet
  facet normal -0.353554 -0.866026 -0.353553
    outer loop
      vertex 8.0176 -7.01689 19.5751
      vertex 6.7434 -6.45108 19.4634
      vertex 7.28502 -6.41874 18.8426
    endloop
  endfacet
  facet normal 0.353553 0.866025 0.353554
    outer loop
      vertex 7.16926 -4.58789 20.4135
      vertex 7.33553 -5.16352 21.6572
      vertex 8.06259 -5.2014 21.0229
    endloop
  endfacet
  facet normal 0.353553 0.866026 0.353554
    outer loop
      vertex 7.33553 -5.16352 21.6572
      vertex 7.16926 -4.58789 20.4135
      vertex 6.59382 -4.55791 20.9155
    endloop
  endfacet
  facet normal 0.353555 0.866026 0.353551
    outer loop
      vertex 7.16926 -4.58789 20.4135
      vertex 8.06259 -5.2014 21.0229
      vertex 7.32088 -4.59579 20.2812
    endloop
  endfacet
  facet normal -0.089199 -0.813349 -0.574897
    outer loop
      vertex 8.05318 -6.07174 18.2325
      vertex 8.0176 -7.01689 19.5751
      vertex 7.28502 -6.41874 18.8426
    endloop
  endfacet
  facet normal -0.0892 -0.813349 -0.574897
    outer loop
      vertex 8.0176 -7.01689 19.5751
      vertex 8.05318 -6.07174 18.2325
      vertex 8.93327 -6.60326 18.8479
    endloop
  endfacet
  facet normal -0.0891997 -0.813349 -0.574897
    outer loop
      vertex 8.92223 -5.52119 17.3187
      vertex 8.93327 -6.60326 18.8479
      vertex 8.05318 -6.07174 18.2325
    endloop
  endfacet
  facet normal -0.089199 -0.813349 -0.574898
    outer loop
      vertex 8.93327 -6.60326 18.8479
      vertex 8.92223 -5.52119 17.3187
      vertex 9.67331 -6.13444 18.0698
    endloop
  endfacet
  facet normal 0.570984 -0.256016 -0.780021
    outer loop
      vertex 8.92223 -5.52119 17.3187
      vertex 9.81823 -5.88601 18.0943
      vertex 9.67331 -6.13444 18.0698
    endloop
  endfacet
  facet normal 0.570984 -0.256016 -0.780021
    outer loop
      vertex 9.81823 -5.88601 18.0943
      vertex 8.92223 -5.52119 17.3187
      vertex 9.06716 -5.27276 17.3433
    endloop
  endfacet
  facet normal 0.707107 -4.42242e-07 -0.707107
    outer loop
      vertex 6.79298 -3.82417 21.1147
      vertex 7.76858 -3.56811 22.0903
      vertex 7.4798 -4.632 21.8015
    endloop
  endfacet
  facet normal 0.707107 3.17266e-07 -0.707106
    outer loop
      vertex 6.59382 -4.55791 20.9155
      vertex 7.4798 -4.632 21.8015
      vertex 7.33553 -5.16352 21.6572
    endloop
  endfacet
  facet normal 0.707107 5.07219e-07 -0.707107
    outer loop
      vertex 6.95499 -3.22729 21.2767
      vertex 7.76858 -3.56811 22.0903
      vertex 6.79298 -3.82417 21.1147
    endloop
  endfacet
  facet normal 0.707107 2.17259e-06 -0.707106
    outer loop
      vertex 7.86319 -2.93862 22.1849
      vertex 7.04899 -2.60191 21.3707
      vertex 7.09291 -2.30969 21.4146
    endloop
  endfacet
  facet normal 0.707107 0 -0.707107
    outer loop
      vertex 7.86319 -2.93862 22.1849
      vertex 6.95499 -3.22729 21.2767
      vertex 7.04899 -2.60191 21.3707
    endloop
  endfacet
  facet normal 0.707107 0 -0.707107
    outer loop
      vertex 7.76858 -3.56811 22.0903
      vertex 6.95499 -3.22729 21.2767
      vertex 7.86319 -2.93862 22.1849
    endloop
  endfacet
  facet normal 0.707107 1.46315e-07 -0.707106
    outer loop
      vertex 7.4798 -4.632 21.8015
      vertex 6.59382 -4.55791 20.9155
      vertex 6.79298 -3.82417 21.1147
    endloop
  endfacet
  facet normal -0.414102 -0.8627 -0.29029
    outer loop
      vertex 7.94574 -2.37154 20.6657
      vertex 8.71602 -3.00047 21.436
      vertex 8.5742 -2.97566 21.5646
    endloop
  endfacet
  facet normal -0.414102 -0.8627 -0.29029
    outer loop
      vertex 7.94574 -2.37154 20.6657
      vertex 8.5742 -2.97566 21.5646
      vertex 7.80392 -2.34673 20.7943
    endloop
  endfacet
  facet normal -0.414102 -0.8627 -0.29029
    outer loop
      vertex 8.71602 -3.00047 21.436
      vertex 7.94574 -2.37154 20.6657
      vertex 9.2002 -3.03876 20.8591
    endloop
  endfacet
  facet normal -0.414102 -0.8627 -0.290289
    outer loop
      vertex 9.2002 -3.03876 20.8591
      vertex 7.94574 -2.37154 20.6657
      vertex 8.42992 -2.40983 20.0889
    endloop
  endfacet
  facet normal 0.783225 0.489038 -0.383928
    outer loop
      vertex 10.863 -1.70939 19.024
      vertex 10.0767 -1.12035 18.1702
      vertex 10.0524 -1.04749 18.2133
    endloop
  endfacet
  facet normal 0.78323 0.489015 -0.383948
    outer loop
      vertex 10.863 -1.70939 19.024
      vertex 10.0806 -1.13337 18.1614
      vertex 10.0767 -1.12035 18.1702
    endloop
  endfacet
  facet normal 0.783226 0.489031 -0.383934
    outer loop
      vertex 10.0806 -1.13337 18.1614
      vertex 10.863 -1.70939 19.024
      vertex 10.8824 -1.78803 18.9632
    endloop
  endfacet
  facet normal 0.783226 0.48903 -0.383936
    outer loop
      vertex 10.7979 -1.44454 19.2285
      vertex 9.85303 -0.451515 18.5658
      vertex 10.696 -1.13978 19.4087
    endloop
  endfacet
  facet normal 0.783226 0.48903 -0.383936
    outer loop
      vertex 9.85303 -0.451515 18.5658
      vertex 10.7979 -1.44454 19.2285
      vertex 10.0524 -1.04749 18.2133
    endloop
  endfacet
  facet normal 0.783226 0.489029 -0.383936
    outer loop
      vertex 10.0524 -1.04749 18.2133
      vertex 10.7979 -1.44454 19.2285
      vertex 10.863 -1.70939 19.024
    endloop
  endfacet
  facet normal -0.353554 -0.866025 -0.353553
    outer loop
      vertex 7.31165 -2.32108 21.2238
      vertex 7.86319 -2.93862 22.1849
      vertex 7.09291 -2.30969 21.4146
    endloop
  endfacet
  facet normal -0.353554 -0.866025 -0.353553
    outer loop
      vertex 7.86319 -2.93862 22.1849
      vertex 7.31165 -2.32108 21.2238
      vertex 8.5742 -2.97566 21.5646
    endloop
  endfacet
  facet normal -0.353554 -0.866025 -0.353554
    outer loop
      vertex 8.5742 -2.97566 21.5646
      vertex 7.31165 -2.32108 21.2238
      vertex 7.80392 -2.34673 20.7943
    endloop
  endfacet
  facet normal 0.616772 0.786726 0.0255869
    outer loop
      vertex 9.45875 -0.162882 19.1954
      vertex 10.4036 -0.925741 19.8756
      vertex 10.696 -1.13978 19.4087
    endloop
  endfacet
  facet normal 0.616772 0.786726 0.0255869
    outer loop
      vertex 9.3409 -0.0766152 19.3835
      vertex 10.4036 -0.925741 19.8756
      vertex 9.45875 -0.162882 19.1954
    endloop
  endfacet
  facet normal 0.616772 0.786726 0.0255873
    outer loop
      vertex 10.4036 -0.925741 19.8756
      vertex 9.3409 -0.0766152 19.3835
      vertex 10.1839 -0.764883 20.2265
    endloop
  endfacet
  facet normal 0.616772 0.786726 0.0255871
    outer loop
      vertex 9.45875 -0.162882 19.1954
      vertex 10.696 -1.13978 19.4087
      vertex 9.85303 -0.451515 18.5658
    endloop
  endfacet
  facet normal 0.353554 0.866025 0.353553
    outer loop
      vertex 5.64545 0.166457 22.7334
      vertex 6.43705 -0.514594 23.6101
      vertex 6.96572 -0.588892 23.2634
    endloop
  endfacet
  facet normal 0.353553 0.866025 0.353554
    outer loop
      vertex 6.6563 0.0243912 22.0706
      vertex 6.96572 -0.588892 23.2634
      vertex 7.6116 -0.679665 22.8399
    endloop
  endfacet
  facet normal 0.353553 0.866025 0.353554
    outer loop
      vertex 6.43705 -0.514594 23.6101
      vertex 5.64545 0.166457 22.7334
      vertex 5.58769 0.178908 22.7607
    endloop
  endfacet
  facet normal 0.353553 0.866026 0.353553
    outer loop
      vertex 7.21254 -0.030391 21.6485
      vertex 7.6116 -0.679665 22.8399
      vertex 8.36563 -0.71895 22.182
    endloop
  endfacet
  facet normal 0.353554 0.866025 0.353553
    outer loop
      vertex 6.96572 -0.588892 23.2634
      vertex 6.6563 0.0243912 22.0706
      vertex 5.64545 0.166457 22.7334
    endloop
  endfacet
  facet normal 0.353553 0.866025 0.353554
    outer loop
      vertex 7.6116 -0.679665 22.8399
      vertex 6.94804 -0.0166105 21.8793
      vertex 6.6563 0.0243912 22.0706
    endloop
  endfacet
  facet normal 0.353553 0.866025 0.353553
    outer loop
      vertex 8.12901 -0.0781385 20.849
      vertex 8.36563 -0.71895 22.182
      vertex 8.9512 -0.749458 21.6712
    endloop
  endfacet
  facet normal 0.353554 0.866025 0.353553
    outer loop
      vertex 7.6116 -0.679665 22.8399
      vertex 7.21254 -0.030391 21.6485
      vertex 6.94804 -0.0166105 21.8793
    endloop
  endfacet
  facet normal 0.353553 0.866025 0.353553
    outer loop
      vertex 8.12901 -0.0781385 20.849
      vertex 8.9512 -0.749458 21.6712
      vertex 9.43461 -0.720588 21.1171
    endloop
  endfacet
  facet normal 0.353553 0.866026 0.353553
    outer loop
      vertex 8.36563 -0.71895 22.182
      vertex 8.12901 -0.0781385 20.849
      vertex 7.21254 -0.030391 21.6485
    endloop
  endfacet
  facet normal 0.353554 0.866026 0.353553
    outer loop
      vertex 8.12901 -0.0781385 20.849
      vertex 9.43461 -0.720588 21.1171
      vertex 8.61242 -0.0492686 20.2949
    endloop
  endfacet
  facet normal 0.406247 0.863523 0.298816
    outer loop
      vertex 9.46006 -0.722375 21.0876
      vertex 8.61242 -0.0492686 20.2949
      vertex 9.43461 -0.720588 21.1171
    endloop
  endfacet
  facet normal 0.406244 0.863523 0.29882
    outer loop
      vertex 8.90568 -0.0698548 19.9557
      vertex 9.46006 -0.722375 21.0876
      vertex 10.1207 -0.768751 20.3235
    endloop
  endfacet
  facet normal 0.406246 0.863524 0.298817
    outer loop
      vertex 9.15996 -0.0877041 19.6616
      vertex 10.1207 -0.768751 20.3235
      vertex 10.1839 -0.764883 20.2265
    endloop
  endfacet
  facet normal 0.406244 0.863523 0.29882
    outer loop
      vertex 9.46006 -0.722375 21.0876
      vertex 8.90568 -0.0698548 19.9557
      vertex 8.61242 -0.0492686 20.2949
    endloop
  endfacet
  facet normal 0.406244 0.863523 0.29882
    outer loop
      vertex 10.1207 -0.768751 20.3235
      vertex 9.15996 -0.0877041 19.6616
      vertex 8.90568 -0.0698548 19.9557
    endloop
  endfacet
  facet normal 0.406243 0.863523 0.298821
    outer loop
      vertex 9.15996 -0.0877041 19.6616
      vertex 10.1839 -0.764883 20.2265
      vertex 9.3409 -0.0766152 19.3835
    endloop
  endfacet
  facet normal 0.122438 0.825232 0.551362
    outer loop
      vertex 7.46313 -4.55134 20.1831
      vertex 8.06259 -5.2014 21.0229
      vertex 8.20484 -5.15695 20.9248
    endloop
  endfacet
  facet normal 0.122431 0.825231 0.551366
    outer loop
      vertex 8.06259 -5.2014 21.0229
      vertex 7.46313 -4.55134 20.1831
      vertex 7.32088 -4.59579 20.2812
    endloop
  endfacet
  facet normal 0.122435 0.825231 0.551364
    outer loop
      vertex 7.91956 -4.34167 19.7679
      vertex 8.20484 -5.15695 20.9248
      vertex 9.10662 -4.74269 20.1046
    endloop
  endfacet
  facet normal 0.122435 0.825231 0.551364
    outer loop
      vertex 8.20484 -5.15695 20.9248
      vertex 7.91956 -4.34167 19.7679
      vertex 7.46313 -4.55134 20.1831
    endloop
  endfacet
  facet normal 0.122435 0.825231 0.551365
    outer loop
      vertex 7.91956 -4.34167 19.7679
      vertex 9.10662 -4.74269 20.1046
      vertex 8.36491 -4.13708 19.3628
    endloop
  endfacet
  facet normal 0.570981 -0.256021 -0.780022
    outer loop
      vertex 9.06716 -5.27276 17.3433
      vertex 10.0509 -5.4871 18.1337
      vertex 9.81823 -5.88601 18.0943
    endloop
  endfacet
  facet normal 0.570981 -0.256021 -0.780022
    outer loop
      vertex 10.0509 -5.4871 18.1337
      vertex 9.06716 -5.27276 17.3433
      vertex 9.29987 -4.87385 17.3827
    endloop
  endfacet
  facet normal 0.760524 -0.486183 0.430382
    outer loop
      vertex 9.4253 -5.39804 19.3399
      vertex 10.0509 -5.4871 18.1337
      vertex 10.1997 -5.23207 18.1589
    endloop
  endfacet
  facet normal 0.760524 -0.486185 0.430382
    outer loop
      vertex 9.4253 -5.39804 19.3399
      vertex 9.81823 -5.88601 18.0943
      vertex 10.0509 -5.4871 18.1337
    endloop
  endfacet
  facet normal 0.760523 -0.486185 0.430382
    outer loop
      vertex 8.93327 -6.60326 18.8479
      vertex 9.81823 -5.88601 18.0943
      vertex 9.4253 -5.39804 19.3399
    endloop
  endfacet
  facet normal 0.760523 -0.486185 0.430382
    outer loop
      vertex 9.81823 -5.88601 18.0943
      vertex 8.93327 -6.60326 18.8479
      vertex 9.67331 -6.13444 18.0698
    endloop
  endfacet
  facet normal 0.543834 -0.0412658 0.838178
    outer loop
      vertex 6.4097 -1.43066 23.5827
      vertex 6.96572 -0.588892 23.2634
      vertex 6.43705 -0.514594 23.6101
    endloop
  endfacet
  facet normal 0.543833 -0.0412654 0.838178
    outer loop
      vertex 6.96572 -0.588892 23.2634
      vertex 6.4097 -1.43066 23.5827
      vertex 7.52892 -1.58795 22.8488
    endloop
  endfacet
  facet normal 0.493072 -0.627428 0.602672
    outer loop
      vertex 5.0629 -8.67973 20.5192
      vertex 6.17599 -7.82568 20.4977
      vertex 5.91422 -7.12663 21.4396
    endloop
  endfacet
  facet normal 0.493072 -0.627428 0.602672
    outer loop
      vertex 6.17599 -7.82568 20.4977
      vertex 5.0629 -8.67973 20.5192
      vertex 5.66888 -8.7113 19.9906
    endloop
  endfacet
  facet normal 0.636946 -0.207332 0.742505
    outer loop
      vertex 8.91745 -1.66029 21.6374
      vertex 8.5742 -2.97566 21.5646
      vertex 8.71602 -3.00047 21.436
    endloop
  endfacet
  facet normal 0.636947 -0.207333 0.742504
    outer loop
      vertex 8.91745 -1.66029 21.6374
      vertex 7.86319 -2.93862 22.1849
      vertex 8.5742 -2.97566 21.5646
    endloop
  endfacet
  facet normal 0.636946 -0.207331 0.742505
    outer loop
      vertex 7.86319 -2.93862 22.1849
      vertex 7.1626 -3.53654 22.6189
      vertex 7.76858 -3.56811 22.0903
    endloop
  endfacet
  facet normal 0.636946 -0.207331 0.742505
    outer loop
      vertex 7.1626 -3.53654 22.6189
      vertex 7.86319 -2.93862 22.1849
      vertex 8.91745 -1.66029 21.6374
    endloop
  endfacet
  facet normal 0.806358 -0.345167 0.480256
    outer loop
      vertex 9.4253 -5.39804 19.3399
      vertex 10.6267 -4.24865 18.1488
      vertex 10.8339 -3.47645 18.3559
    endloop
  endfacet
  facet normal 0.806357 -0.34515 0.480271
    outer loop
      vertex 10.6267 -4.24865 18.1488
      vertex 9.4253 -5.39804 19.3399
      vertex 10.6105 -4.28607 18.1491
    endloop
  endfacet
  facet normal 0.806358 -0.345168 0.480256
    outer loop
      vertex 10.6105 -4.28607 18.1491
      vertex 9.4253 -5.39804 19.3399
      vertex 10.1997 -5.23207 18.1589
    endloop
  endfacet
  facet normal 0.419048 -0.741072 0.524606
    outer loop
      vertex 5.66888 -8.7113 19.9906
      vertex 5.0629 -8.67973 20.5192
      vertex 5.23396 -9.26511 19.5557
    endloop
  endfacet
  facet normal 0.742504 -0.207332 0.636947
    outer loop
      vertex 9.2002 -3.03876 20.8591
      vertex 8.91745 -1.66029 21.6374
      vertex 8.71602 -3.00047 21.436
    endloop
  endfacet
  facet normal 0.742505 -0.207332 0.636946
    outer loop
      vertex 9.2002 -3.03876 20.8591
      vertex 9.89891 -3.53654 19.8826
      vertex 8.91745 -1.66029 21.6374
    endloop
  endfacet
  facet normal 0.742504 -0.207332 0.636946
    outer loop
      vertex 9.89891 -3.53654 19.8826
      vertex 9.2002 -3.03876 20.8591
      vertex 9.52504 -3.55887 20.3112
    endloop
  endfacet
  facet normal 0.636946 -0.207332 0.742505
    outer loop
      vertex 7.52892 -1.58795 22.8488
      vertex 7.1626 -3.53654 22.6189
      vertex 8.91745 -1.66029 21.6374
    endloop
  endfacet
  facet normal 0.712939 -0.357307 0.603365
    outer loop
      vertex 9.10662 -4.74269 20.1046
      vertex 9.4253 -5.39804 19.3399
      vertex 9.11949 -4.71667 20.1048
    endloop
  endfacet
  facet normal 0.712956 -0.357291 0.603355
    outer loop
      vertex 8.11821 -5.4761 20.8382
      vertex 9.10662 -4.74269 20.1046
      vertex 8.20484 -5.15695 20.9248
    endloop
  endfacet
  facet normal 0.712956 -0.357289 0.603356
    outer loop
      vertex 9.10662 -4.74269 20.1046
      vertex 8.11821 -5.4761 20.8382
      vertex 9.4253 -5.39804 19.3399
    endloop
  endfacet
  facet normal 0.603356 -0.35729 0.712956
    outer loop
      vertex 7.4798 -4.632 21.8015
      vertex 6.61991 -5.39804 22.1453
      vertex 7.33553 -5.16352 21.6572
    endloop
  endfacet
  facet normal 0.603358 -0.357291 0.712953
    outer loop
      vertex 8.06259 -5.2014 21.0229
      vertex 8.11821 -5.4761 20.8382
      vertex 8.20484 -5.15695 20.9248
    endloop
  endfacet
  facet normal 0.603354 -0.357293 0.712955
    outer loop
      vertex 7.33553 -5.16352 21.6572
      vertex 8.11821 -5.4761 20.8382
      vertex 8.06259 -5.2014 21.0229
    endloop
  endfacet
  facet normal 0.603356 -0.35729 0.712955
    outer loop
      vertex 8.11821 -5.4761 20.8382
      vertex 7.33553 -5.16352 21.6572
      vertex 6.61991 -5.39804 22.1453
    endloop
  endfacet
  facet normal 0.832463 -0.195653 0.518387
    outer loop
      vertex 10.1288 -1.58795 20.2489
      vertex 10.863 -1.70939 19.024
      vertex 10.7979 -1.44454 19.2285
    endloop
  endfacet
  facet normal 0.832461 -0.195664 0.518387
    outer loop
      vertex 10.1288 -1.58795 20.2489
      vertex 10.8824 -1.78803 18.9632
      vertex 10.863 -1.70939 19.024
    endloop
  endfacet
  facet normal 0.832463 -0.195655 0.518387
    outer loop
      vertex 10.9239 -2.32508 18.6938
      vertex 10.8824 -1.78803 18.9632
      vertex 10.1288 -1.58795 20.2489
    endloop
  endfacet
  facet normal 0.832462 -0.195655 0.518387
    outer loop
      vertex 10.8824 -1.78803 18.9632
      vertex 10.9239 -2.32508 18.6938
      vertex 10.9383 -2.01546 18.7876
    endloop
  endfacet
  facet normal 0.832463 -0.195655 0.518387
    outer loop
      vertex 10.9239 -2.32508 18.6938
      vertex 10.1288 -1.58795 20.2489
      vertex 10.8851 -3.1625 18.4401
    endloop
  endfacet
  facet normal 0.838178 -0.0412647 0.543833
    outer loop
      vertex 10.1288 -1.58795 20.2489
      vertex 10.696 -1.13978 19.4087
      vertex 10.4036 -0.925741 19.8756
    endloop
  endfacet
  facet normal 0.838178 -0.0412643 0.543833
    outer loop
      vertex 10.696 -1.13978 19.4087
      vertex 10.1288 -1.58795 20.2489
      vertex 10.7979 -1.44454 19.2285
    endloop
  endfacet
  facet normal 0.753871 -0.0522082 0.654945
    outer loop
      vertex 9.46006 -0.722375 21.0876
      vertex 10.1288 -1.58795 20.2489
      vertex 10.1207 -0.768751 20.3235
    endloop
  endfacet
  facet normal 0.753871 -0.0522078 0.654944
    outer loop
      vertex 10.1288 -1.58795 20.2489
      vertex 9.46006 -0.722375 21.0876
      vertex 8.91745 -1.66029 21.6374
    endloop
  endfacet
  facet normal 0.480257 -0.345166 0.806358
    outer loop
      vertex 5.9423 -4.07478 23.1153
      vertex 7.1626 -3.53654 22.6189
      vertex 6.12579 -3.39082 23.2988
    endloop
  endfacet
  facet normal 0.480257 -0.345166 0.806358
    outer loop
      vertex 7.1626 -3.53654 22.6189
      vertex 5.9423 -4.07478 23.1153
      vertex 6.61991 -5.39804 22.1453
    endloop
  endfacet
  facet normal 0.518388 -0.195655 0.832462
    outer loop
      vertex 6.22216 -2.72547 23.3952
      vertex 7.1626 -3.53654 22.6189
      vertex 7.52892 -1.58795 22.8488
    endloop
  endfacet
  facet normal 0.518388 -0.195656 0.832462
    outer loop
      vertex 7.1626 -3.53654 22.6189
      vertex 6.22216 -2.72547 23.3952
      vertex 6.12579 -3.39082 23.2988
    endloop
  endfacet
  facet normal 0.480257 -0.345166 0.806358
    outer loop
      vertex 5.9423 -4.07478 23.1153
      vertex 5.62482 -5.25819 22.7978
      vertex 6.61991 -5.39804 22.1453
    endloop
  endfacet
  facet normal 0.838181 -0.0412649 0.543828
    outer loop
      vertex 10.1288 -1.58795 20.2489
      vertex 10.1839 -0.764883 20.2265
      vertex 10.1207 -0.768751 20.3235
    endloop
  endfacet
  facet normal 0.838178 -0.0412645 0.543833
    outer loop
      vertex 10.1839 -0.764883 20.2265
      vertex 10.1288 -1.58795 20.2489
      vertex 10.4036 -0.925741 19.8756
    endloop
  endfacet
  facet normal 0.742505 -0.207332 0.636946
    outer loop
      vertex 10.1288 -1.58795 20.2489
      vertex 8.91745 -1.66029 21.6374
      vertex 9.89891 -3.53654 19.8826
    endloop
  endfacet
  facet normal 0.832463 -0.195655 0.518387
    outer loop
      vertex 9.89891 -3.53654 19.8826
      vertex 10.8851 -3.1625 18.4401
      vertex 10.1288 -1.58795 20.2489
    endloop
  endfacet
  facet normal 0.832463 -0.195654 0.518387
    outer loop
      vertex 10.8738 -3.32759 18.3958
      vertex 10.8851 -3.1625 18.4401
      vertex 9.89891 -3.53654 19.8826
    endloop
  endfacet
  facet normal 0.832452 -0.195657 0.518403
    outer loop
      vertex 10.8851 -3.1625 18.4401
      vertex 10.8738 -3.32759 18.3958
      vertex 10.8791 -3.29122 18.4011
    endloop
  endfacet
  facet normal 0.543832 -0.0412662 0.838179
    outer loop
      vertex 7.6116 -0.679665 22.8399
      vertex 6.96572 -0.588892 23.2634
      vertex 7.52892 -1.58795 22.8488
    endloop
  endfacet
  facet normal 0.369973 -0.615304 0.696075
    outer loop
      vertex 4.35318 -7.96731 21.5262
      vertex 5.0629 -8.67973 20.5192
      vertex 5.91422 -7.12663 21.4396
    endloop
  endfacet
  facet normal 0.369973 -0.615304 0.696075
    outer loop
      vertex 5.0629 -8.67973 20.5192
      vertex 4.35318 -7.96731 21.5262
      vertex 4.02609 -8.53402 21.1991
    endloop
  endfacet
  facet normal 0.430382 -0.486185 0.760523
    outer loop
      vertex 5.62482 -5.25819 22.7978
      vertex 5.91422 -7.12663 21.4396
      vertex 6.61991 -5.39804 22.1453
    endloop
  endfacet
  facet normal 0.430382 -0.486185 0.760523
    outer loop
      vertex 5.91422 -7.12663 21.4396
      vertex 5.62482 -5.25819 22.7978
      vertex 4.91913 -6.98678 22.0921
    endloop
  endfacet
  facet normal 0.518387 -0.195654 0.832463
    outer loop
      vertex 6.4097 -1.43066 23.5827
      vertex 6.22216 -2.72547 23.3952
      vertex 7.52892 -1.58795 22.8488
    endloop
  endfacet
  facet normal 0.555006 -0.498458 0.665964
    outer loop
      vertex 6.61991 -5.39804 22.1453
      vertex 7.47598 -7.04923 20.196
      vertex 8.11821 -5.4761 20.8382
    endloop
  endfacet
  facet normal 0.555005 -0.498459 0.665964
    outer loop
      vertex 7.47598 -7.04923 20.196
      vertex 6.61991 -5.39804 22.1453
      vertex 6.62055 -7.00466 20.9422
    endloop
  endfacet
  facet normal 0.555006 -0.498459 0.665963
    outer loop
      vertex 5.91422 -7.12663 21.4396
      vertex 6.62055 -7.00466 20.9422
      vertex 6.61991 -5.39804 22.1453
    endloop
  endfacet
  facet normal 0.555007 -0.498456 0.665965
    outer loop
      vertex 6.62055 -7.00466 20.9422
      vertex 5.91422 -7.12663 21.4396
      vertex 6.55709 -7.16012 20.8788
    endloop
  endfacet
  facet normal 0.665963 -0.498458 0.555006
    outer loop
      vertex 7.47598 -7.04923 20.196
      vertex 9.4253 -5.39804 19.3399
      vertex 8.11821 -5.4761 20.8382
    endloop
  endfacet
  facet normal 0.665964 -0.498459 0.555006
    outer loop
      vertex 9.4253 -5.39804 19.3399
      vertex 8.0176 -7.01689 19.5751
      vertex 8.93327 -6.60326 18.8479
    endloop
  endfacet
  facet normal 0.665964 -0.498459 0.555005
    outer loop
      vertex 9.4253 -5.39804 19.3399
      vertex 7.47598 -7.04923 20.196
      vertex 8.0176 -7.01689 19.5751
    endloop
  endfacet
  facet normal 0.603355 -0.35729 0.712956
    outer loop
      vertex 7.1626 -3.53654 22.6189
      vertex 7.4798 -4.632 21.8015
      vertex 7.76858 -3.56811 22.0903
    endloop
  endfacet
  facet normal 0.603356 -0.357289 0.712956
    outer loop
      vertex 7.4798 -4.632 21.8015
      vertex 7.1626 -3.53654 22.6189
      vertex 6.61991 -5.39804 22.1453
    endloop
  endfacet
  facet normal 0.753871 -0.0522081 0.654945
    outer loop
      vertex 8.91745 -1.66029 21.6374
      vertex 9.43461 -0.720588 21.1171
      vertex 8.9512 -0.749458 21.6712
    endloop
  endfacet
  facet normal 0.753878 -0.0522166 0.654936
    outer loop
      vertex 9.43461 -0.720588 21.1171
      vertex 8.91745 -1.66029 21.6374
      vertex 9.46006 -0.722375 21.0876
    endloop
  endfacet
  facet normal 0.654945 -0.0522082 0.753871
    outer loop
      vertex 8.9512 -0.749458 21.6712
      vertex 8.36563 -0.71895 22.182
      vertex 8.91745 -1.66029 21.6374
    endloop
  endfacet
  facet normal 0.654944 -0.0522089 0.753872
    outer loop
      vertex 7.52892 -1.58795 22.8488
      vertex 8.36563 -0.71895 22.182
      vertex 7.6116 -0.679665 22.8399
    endloop
  endfacet
  facet normal 0.654944 -0.0522088 0.753872
    outer loop
      vertex 8.36563 -0.71895 22.182
      vertex 7.52892 -1.58795 22.8488
      vertex 8.91745 -1.66029 21.6374
    endloop
  endfacet
  facet normal 0.71295 -0.357313 0.603349
    outer loop
      vertex 9.53341 -3.57357 20.2926
      vertex 9.89891 -3.53654 19.8826
      vertex 9.52504 -3.55887 20.3112
    endloop
  endfacet
  facet normal 0.712955 -0.35729 0.603356
    outer loop
      vertex 9.4935 -3.96065 20.1105
      vertex 9.89891 -3.53654 19.8826
      vertex 9.53341 -3.57357 20.2926
    endloop
  endfacet
  facet normal 0.712955 -0.35729 0.603356
    outer loop
      vertex 9.4253 -5.39804 19.3399
      vertex 9.4935 -3.96065 20.1105
      vertex 9.11949 -4.71667 20.1048
    endloop
  endfacet
  facet normal 0.712955 -0.35729 0.603356
    outer loop
      vertex 9.4935 -3.96065 20.1105
      vertex 9.4253 -5.39804 19.3399
      vertex 9.89891 -3.53654 19.8826
    endloop
  endfacet
  facet normal 0.806358 -0.345167 0.480257
    outer loop
      vertex 9.89891 -3.53654 19.8826
      vertex 10.8339 -3.47645 18.3559
      vertex 10.8738 -3.32759 18.3958
    endloop
  endfacet
  facet normal 0.806358 -0.345166 0.480257
    outer loop
      vertex 10.8339 -3.47645 18.3559
      vertex 9.89891 -3.53654 19.8826
      vertex 9.4253 -5.39804 19.3399
    endloop
  endfacet
  facet normal 0.369973 -0.615305 0.696074
    outer loop
      vertex 4.91913 -6.98678 22.0921
      vertex 4.35318 -7.96731 21.5262
      vertex 5.91422 -7.12663 21.4396
    endloop
  endfacet
  facet normal 0.300489 -0.729395 0.614565
    outer loop
      vertex 3.66683 -8.98472 20.8398
      vertex 5.0629 -8.67973 20.5192
      vertex 4.02609 -8.53402 21.1991
    endloop
  endfacet
  facet normal 0.300489 -0.729395 0.614564
    outer loop
      vertex 3.99052 -9.78176 19.7356
      vertex 5.0629 -8.67973 20.5192
      vertex 3.66683 -8.98472 20.8398
    endloop
  endfacet
  facet normal 0.30049 -0.729396 0.614563
    outer loop
      vertex 5.0629 -8.67973 20.5192
      vertex 3.99052 -9.78176 19.7356
      vertex 4.23485 -9.8161 19.5754
    endloop
  endfacet
  facet normal 0.419048 -0.741072 0.524606
    outer loop
      vertex 4.23485 -9.8161 19.5754
      vertex 5.23396 -9.26511 19.5557
      vertex 5.0629 -8.67973 20.5192
    endloop
  endfacet
  facet normal 0.419048 -0.741072 0.524606
    outer loop
      vertex 5.23396 -9.26511 19.5557
      vertex 4.23485 -9.8161 19.5754
      vertex 4.77899 -9.84445 19.1007
    endloop
  endfacet
  facet normal 0.493072 -0.627428 0.602672
    outer loop
      vertex 6.55709 -7.16012 20.8788
      vertex 5.91422 -7.12663 21.4396
      vertex 6.17599 -7.82568 20.4977
    endloop
  endfacet
  facet normal 0.300487 -0.729396 0.614564
    outer loop
      vertex 3.66683 -8.98472 20.8398
      vertex 3.12812 -9.66056 20.3011
      vertex 3.99052 -9.78176 19.7356
    endloop
  endfacet
  facet normal -0.419047 0.741072 -0.524606
    outer loop
      vertex 4.71741 -8.31308 19.0391
      vertex 3.70135 -9.07391 18.7759
      vertex 4.58527 -7.86089 19.7834
    endloop
  endfacet
  facet normal -0.419047 0.741072 -0.524607
    outer loop
      vertex 3.70135 -9.07391 18.7759
      vertex 4.71741 -8.31308 19.0391
      vertex 4.10346 -9.09486 18.4252
    endloop
  endfacet
  facet normal -0.423274 0.0196507 -0.905789
    outer loop
      vertex 5.58769 0.178908 22.7607
      vertex 5.64545 0.166457 22.7334
      vertex 5.58125 -0.256703 22.7543
    endloop
  endfacet
  facet normal -0.881264 0.321215 -0.34669
    outer loop
      vertex 10.0194 -2.95341 17.5414
      vertex 9.96512 -3.16089 17.4871
      vertex 9.92235 -2.99773 17.747
    endloop
  endfacet
  facet normal -0.753871 0.0522069 -0.654945
    outer loop
      vertex 8.07618 -1.50366 20.7962
      vertex 8.61242 -0.0492686 20.2949
      vertex 8.90568 -0.0698548 19.9557
    endloop
  endfacet
  facet normal -0.753872 0.0522077 -0.654943
    outer loop
      vertex 8.61242 -0.0492686 20.2949
      vertex 8.07618 -1.50366 20.7962
      vertex 8.12901 -0.0781385 20.849
    endloop
  endfacet
  facet normal -0.806358 0.345166 -0.480257
    outer loop
      vertex 9.65147 -4.12252 17.3934
      vertex 8.96505 -3.2029 19.2069
      vertex 9.92235 -2.99773 17.747
    endloop
  endfacet
  facet normal -0.806358 0.345167 -0.480257
    outer loop
      vertex 8.96505 -3.2029 19.2069
      vertex 9.65147 -4.12252 17.3934
      vertex 9.4678 -4.54549 17.3978
    endloop
  endfacet
  facet normal -0.832462 0.195655 -0.518387
    outer loop
      vertex 10.0828 -1.24321 18.1516
      vertex 8.96505 -3.2029 19.2069
      vertex 9.17323 -1.43814 19.5386
    endloop
  endfacet
  facet normal -0.636947 0.207329 -0.742504
    outer loop
      vertex 6.81864 -1.43814 21.8932
      vertex 7.31165 -2.32108 21.2238
      vertex 7.09291 -2.30969 21.4146
    endloop
  endfacet
  facet normal -0.636946 0.207331 -0.742505
    outer loop
      vertex 7.31165 -2.32108 21.2238
      vertex 6.81864 -1.43814 21.8932
      vertex 8.07618 -1.50366 20.7962
    endloop
  endfacet
  facet normal -0.636947 0.207333 -0.742504
    outer loop
      vertex 6.48688 -3.2029 21.6851
      vertex 7.09291 -2.30969 21.4146
      vertex 7.04899 -2.60191 21.3707
    endloop
  endfacet
  facet normal -0.636945 0.207331 -0.742506
    outer loop
      vertex 7.09291 -2.30969 21.4146
      vertex 6.48688 -3.2029 21.6851
      vertex 6.81864 -1.43814 21.8932
    endloop
  endfacet
  facet normal -0.223603 0.825673 -0.517944
    outer loop
      vertex 2.34725 -8.97371 19.5203
      vertex 2.35817 -9.00509 19.4655
      vertex 2.31851 -8.99952 19.4915
    endloop
  endfacet
  facet normal -0.603355 0.357291 -0.712956
    outer loop
      vertex 6.95499 -3.22729 21.2767
      vertex 6.79298 -3.82417 21.1147
      vertex 6.48688 -3.2029 21.6851
    endloop
  endfacet
  facet normal -0.603352 0.357292 -0.712958
    outer loop
      vertex 7.35234 -4.95949 20.0723
      vertex 7.32088 -4.59579 20.2812
      vertex 7.46313 -4.55134 20.1831
    endloop
  endfacet
  facet normal -0.603359 0.357289 -0.712953
    outer loop
      vertex 7.32088 -4.59579 20.2812
      vertex 7.35234 -4.95949 20.0723
      vertex 7.16926 -4.58789 20.4135
    endloop
  endfacet
  facet normal -0.480257 0.345167 -0.806358
    outer loop
      vertex 5.99539 -4.88879 21.2561
      vertex 4.94152 -4.34979 22.1145
      vertex 6.48688 -3.2029 21.6851
    endloop
  endfacet
  facet normal -0.480256 0.345168 -0.806358
    outer loop
      vertex 4.94152 -4.34979 22.1145
      vertex 5.99539 -4.88879 21.2561
      vertex 4.84046 -4.72648 22.0135
    endloop
  endfacet
  facet normal -0.369973 0.615305 -0.696075
    outer loop
      vertex 4.0212 -6.6041 21.1942
      vertex 4.58527 -7.86089 19.7834
      vertex 3.39255 -7.69326 20.5656
    endloop
  endfacet
  facet normal -0.665964 0.498459 -0.555005
    outer loop
      vertex 7.28502 -6.41874 18.8426
      vertex 8.53612 -4.88879 18.7154
      vertex 8.05318 -6.07174 18.2325
    endloop
  endfacet
  facet normal -0.665964 0.498459 -0.555005
    outer loop
      vertex 6.7434 -6.45108 19.4634
      vertex 8.53612 -4.88879 18.7154
      vertex 7.28502 -6.41874 18.8426
    endloop
  endfacet
  facet normal -0.665964 0.498459 -0.555006
    outer loop
      vertex 8.53612 -4.88879 18.7154
      vertex 6.7434 -6.45108 19.4634
      vertex 7.35234 -4.95949 20.0723
    endloop
  endfacet
  facet normal -0.712955 0.357289 -0.603358
    outer loop
      vertex 8.96505 -3.2029 19.2069
      vertex 8.36491 -4.13708 19.3628
      vertex 8.6658 -3.52885 19.3675
    endloop
  endfacet
  facet normal -0.712956 0.35729 -0.603356
    outer loop
      vertex 8.53612 -4.88879 18.7154
      vertex 8.36491 -4.13708 19.3628
      vertex 8.96505 -3.2029 19.2069
    endloop
  endfacet
  facet normal -0.712956 0.35729 -0.603355
    outer loop
      vertex 8.53612 -4.88879 18.7154
      vertex 7.91956 -4.34167 19.7679
      vertex 8.36491 -4.13708 19.3628
    endloop
  endfacet
  facet normal -0.712955 0.357291 -0.603356
    outer loop
      vertex 7.91956 -4.34167 19.7679
      vertex 8.53612 -4.88879 18.7154
      vertex 7.35234 -4.95949 20.0723
    endloop
  endfacet
  facet normal -0.369974 0.615304 -0.696075
    outer loop
      vertex 4.0212 -6.6041 21.1942
      vertex 5.35627 -6.4543 20.617
      vertex 4.58527 -7.86089 19.7834
    endloop
  endfacet
  facet normal -0.369974 0.615305 -0.696074
    outer loop
      vertex 5.35627 -6.4543 20.617
      vertex 4.0212 -6.6041 21.1942
      vertex 4.20134 -6.29199 21.3743
    endloop
  endfacet
  facet normal -0.518387 0.195655 -0.832463
    outer loop
      vertex 5.52784 -1.42195 22.7008
      vertex 6.48688 -3.2029 21.6851
      vertex 5.29417 -3.03528 22.4672
    endloop
  endfacet
  facet normal -0.334711 0.836615 -0.433639
    outer loop
      vertex 3.98933 -9.19969 18.311
      vertex 3.70135 -9.07391 18.7759
      vertex 4.10346 -9.09486 18.4252
    endloop
  endfacet
  facet normal -0.334711 0.836616 -0.433639
    outer loop
      vertex 3.70135 -9.07391 18.7759
      vertex 3.98933 -9.19969 18.311
      vertex 3.59754 -9.17927 18.6528
    endloop
  endfacet
  facet normal -0.904606 0.172591 -0.389745
    outer loop
      vertex 10.0567 -2.6738 17.5787
      vertex 10.0194 -2.95341 17.5414
      vertex 9.92235 -2.99773 17.747
    endloop
  endfacet
  facet normal -0.300488 0.729395 -0.614564
    outer loop
      vertex 3.39255 -7.69326 20.5656
      vertex 4.58527 -7.86089 19.7834
      vertex 2.52143 -8.78612 19.6944
    endloop
  endfacet
  facet normal -0.430382 0.486185 -0.760523
    outer loop
      vertex 5.35627 -6.4543 20.617
      vertex 4.84046 -4.72648 22.0135
      vertex 5.99539 -4.88879 21.2561
    endloop
  endfacet
  facet normal -0.430383 0.486185 -0.760523
    outer loop
      vertex 4.84046 -4.72648 22.0135
      vertex 5.35627 -6.4543 20.617
      vertex 4.20134 -6.29199 21.3743
    endloop
  endfacet
  facet normal -0.543833 0.0412667 -0.838178
    outer loop
      vertex 6.6563 0.0243912 22.0706
      vertex 5.58125 -0.256703 22.7543
      vertex 5.64545 0.166457 22.7334
    endloop
  endfacet
  facet normal -0.543833 0.0412641 -0.838178
    outer loop
      vertex 5.58125 -0.256703 22.7543
      vertex 6.6563 0.0243912 22.0706
      vertex 5.55563 -1.11483 22.7286
    endloop
  endfacet
  facet normal -0.543832 0.0412657 -0.838179
    outer loop
      vertex 6.81864 -1.43814 21.8932
      vertex 6.6563 0.0243912 22.0706
      vertex 6.94804 -0.0166105 21.8793
    endloop
  endfacet
  facet normal -0.543834 0.0412654 -0.838178
    outer loop
      vertex 6.81864 -1.43814 21.8932
      vertex 5.55563 -1.11483 22.7286
      vertex 6.6563 0.0243912 22.0706
    endloop
  endfacet
  facet normal -0.543834 0.041263 -0.838178
    outer loop
      vertex 5.55563 -1.11483 22.7286
      vertex 6.81864 -1.43814 21.8932
      vertex 5.55129 -1.26003 22.7243
    endloop
  endfacet
  facet normal -0.712956 0.357293 -0.603353
    outer loop
      vertex 8.96505 -3.2029 19.2069
      vertex 8.75179 -3.35504 19.3688
      vertex 8.76625 -3.21477 19.4348
    endloop
  endfacet
  facet normal -0.712956 0.357293 -0.603353
    outer loop
      vertex 8.75179 -3.35504 19.3688
      vertex 8.96505 -3.2029 19.2069
      vertex 8.6658 -3.52885 19.3675
    endloop
  endfacet
  facet normal -0.712956 0.357292 -0.603354
    outer loop
      vertex 7.46313 -4.55134 20.1831
      vertex 7.91956 -4.34167 19.7679
      vertex 7.35234 -4.95949 20.0723
    endloop
  endfacet
  facet normal -0.480257 0.345166 -0.806358
    outer loop
      vertex 5.29417 -3.03528 22.4672
      vertex 6.48688 -3.2029 21.6851
      vertex 4.94152 -4.34979 22.1145
    endloop
  endfacet
  facet normal -0.838177 0.0412721 -0.543835
    outer loop
      vertex 9.45875 -0.162882 19.1954
      vertex 9.15996 -0.0877041 19.6616
      vertex 9.3409 -0.0766152 19.3835
    endloop
  endfacet
  facet normal -0.838178 0.0412651 -0.543834
    outer loop
      vertex 9.17323 -1.43814 19.5386
      vertex 9.45875 -0.162882 19.1954
      vertex 10.0828 -1.24321 18.1516
    endloop
  endfacet
  facet normal -0.838177 0.0412648 -0.543834
    outer loop
      vertex 9.45875 -0.162882 19.1954
      vertex 9.17323 -1.43814 19.5386
      vertex 9.15996 -0.0877041 19.6616
    endloop
  endfacet
  facet normal -0.493072 0.627427 -0.602673
    outer loop
      vertex 5.33788 -7.38841 19.6596
      vertex 5.35627 -6.4543 20.617
      vertex 5.8578 -6.48043 20.1795
    endloop
  endfacet
  facet normal -0.493072 0.627427 -0.602673
    outer loop
      vertex 5.35627 -6.4543 20.617
      vertex 5.33788 -7.38841 19.6596
      vertex 4.58527 -7.86089 19.7834
    endloop
  endfacet
  facet normal -0.223599 0.825674 -0.517944
    outer loop
      vertex 2.434 -8.8958 19.607
      vertex 2.35817 -9.00509 19.4655
      vertex 2.34725 -8.97371 19.5203
    endloop
  endfacet
  facet normal -0.2236 0.825673 -0.517945
    outer loop
      vertex 3.59754 -9.17927 18.6528
      vertex 2.434 -8.8958 19.607
      vertex 3.70135 -9.07391 18.7759
    endloop
  endfacet
  facet normal -0.223599 0.825674 -0.517944
    outer loop
      vertex 2.434 -8.8958 19.607
      vertex 3.59754 -9.17927 18.6528
      vertex 2.35817 -9.00509 19.4655
    endloop
  endfacet
  facet normal -0.300488 0.729396 -0.614564
    outer loop
      vertex 3.70135 -9.07391 18.7759
      vertex 2.52143 -8.78612 19.6944
      vertex 4.58527 -7.86089 19.7834
    endloop
  endfacet
  facet normal -0.30049 0.729393 -0.614566
    outer loop
      vertex 2.52143 -8.78612 19.6944
      vertex 3.70135 -9.07391 18.7759
      vertex 2.434 -8.8958 19.607
    endloop
  endfacet
  facet normal -0.742505 0.207332 -0.636946
    outer loop
      vertex 8.07618 -1.50366 20.7962
      vertex 8.42992 -2.40983 20.0889
      vertex 7.94574 -2.37154 20.6657
    endloop
  endfacet
  facet normal -0.742502 0.207336 -0.636948
    outer loop
      vertex 8.07618 -1.50366 20.7962
      vertex 8.76479 -2.946 19.524
      vertex 8.42992 -2.40983 20.0889
    endloop
  endfacet
  facet normal -0.742502 0.207335 -0.636948
    outer loop
      vertex 8.96505 -3.2029 19.2069
      vertex 8.76479 -2.946 19.524
      vertex 8.07618 -1.50366 20.7962
    endloop
  endfacet
  facet normal -0.742506 0.207328 -0.636945
    outer loop
      vertex 8.76479 -2.946 19.524
      vertex 8.96505 -3.2029 19.2069
      vertex 8.76625 -3.21477 19.4348
    endloop
  endfacet
  facet normal -0.636946 0.207332 -0.742505
    outer loop
      vertex 7.80392 -2.34673 20.7943
      vertex 8.07618 -1.50366 20.7962
      vertex 7.94574 -2.37154 20.6657
    endloop
  endfacet
  facet normal -0.636946 0.207332 -0.742505
    outer loop
      vertex 8.07618 -1.50366 20.7962
      vertex 7.80392 -2.34673 20.7943
      vertex 7.31165 -2.32108 21.2238
    endloop
  endfacet
  facet normal -0.636946 0.207331 -0.742505
    outer loop
      vertex 7.04899 -2.60191 21.3707
      vertex 6.95499 -3.22729 21.2767
      vertex 6.48688 -3.2029 21.6851
    endloop
  endfacet
  facet normal -0.654944 0.0522078 -0.753872
    outer loop
      vertex 8.12901 -0.0781385 20.849
      vertex 8.07618 -1.50366 20.7962
      vertex 7.21254 -0.030391 21.6485
    endloop
  endfacet
  facet normal -0.555006 0.498458 -0.665964
    outer loop
      vertex 6.7434 -6.45108 19.4634
      vertex 5.99539 -4.88879 21.2561
      vertex 7.35234 -4.95949 20.0723
    endloop
  endfacet
  facet normal -0.555006 0.498458 -0.665964
    outer loop
      vertex 5.88797 -6.40651 20.2097
      vertex 5.99539 -4.88879 21.2561
      vertex 6.7434 -6.45108 19.4634
    endloop
  endfacet
  facet normal -0.555002 0.498466 -0.665961
    outer loop
      vertex 5.35627 -6.4543 20.617
      vertex 5.88797 -6.40651 20.2097
      vertex 5.8578 -6.48043 20.1795
    endloop
  endfacet
  facet normal -0.555004 0.498459 -0.665965
    outer loop
      vertex 5.88797 -6.40651 20.2097
      vertex 5.35627 -6.4543 20.617
      vertex 5.99539 -4.88879 21.2561
    endloop
  endfacet
  facet normal -0.603353 0.357294 -0.712956
    outer loop
      vertex 7.35234 -4.95949 20.0723
      vertex 6.59382 -4.55791 20.9155
      vertex 7.16926 -4.58789 20.4135
    endloop
  endfacet
  facet normal -0.603355 0.35729 -0.712956
    outer loop
      vertex 6.79298 -3.82417 21.1147
      vertex 5.99539 -4.88879 21.2561
      vertex 6.48688 -3.2029 21.6851
    endloop
  endfacet
  facet normal -0.603356 0.357289 -0.712956
    outer loop
      vertex 5.99539 -4.88879 21.2561
      vertex 6.59382 -4.55791 20.9155
      vertex 7.35234 -4.95949 20.0723
    endloop
  endfacet
  facet normal -0.603356 0.357291 -0.712955
    outer loop
      vertex 5.99539 -4.88879 21.2561
      vertex 6.79298 -3.82417 21.1147
      vertex 6.59382 -4.55791 20.9155
    endloop
  endfacet
  facet normal -0.760523 0.486187 -0.430381
    outer loop
      vertex 9.29987 -4.87385 17.3827
      vertex 8.53612 -4.88879 18.7154
      vertex 9.39904 -4.70385 17.3995
    endloop
  endfacet
  facet normal -0.760524 0.486185 -0.430382
    outer loop
      vertex 9.06716 -5.27276 17.3433
      vertex 8.53612 -4.88879 18.7154
      vertex 9.29987 -4.87385 17.3827
    endloop
  endfacet
  facet normal -0.760523 0.486185 -0.430382
    outer loop
      vertex 8.05318 -6.07174 18.2325
      vertex 9.06716 -5.27276 17.3433
      vertex 8.92223 -5.52119 17.3187
    endloop
  endfacet
  facet normal -0.760523 0.486185 -0.430382
    outer loop
      vertex 9.06716 -5.27276 17.3433
      vertex 8.05318 -6.07174 18.2325
      vertex 8.53612 -4.88879 18.7154
    endloop
  endfacet
  facet normal -0.806359 0.345164 -0.480258
    outer loop
      vertex 8.53612 -4.88879 18.7154
      vertex 9.4678 -4.54549 17.3978
      vertex 9.39904 -4.70385 17.3995
    endloop
  endfacet
  facet normal -0.806358 0.345166 -0.480257
    outer loop
      vertex 9.4678 -4.54549 17.3978
      vertex 8.53612 -4.88879 18.7154
      vertex 8.96505 -3.2029 19.2069
    endloop
  endfacet
  facet normal -0.881262 0.321219 -0.346692
    outer loop
      vertex 9.8471 -3.61207 17.3691
      vertex 9.92235 -2.99773 17.747
      vertex 9.96512 -3.16089 17.4871
    endloop
  endfacet
  facet normal -0.881279 0.321204 -0.346663
    outer loop
      vertex 9.8323 -3.65068 17.3709
      vertex 9.92235 -2.99773 17.747
      vertex 9.8471 -3.61207 17.3691
    endloop
  endfacet
  facet normal -0.881263 0.321218 -0.346692
    outer loop
      vertex 9.92235 -2.99773 17.747
      vertex 9.8323 -3.65068 17.3709
      vertex 9.65147 -4.12252 17.3934
    endloop
  endfacet
  facet normal -0.905797 0.0196456 -0.423257
    outer loop
      vertex 10.0971 -1.18976 18.1234
      vertex 10.1093 -1.23111 18.0955
      vertex 10.0828 -1.24321 18.1516
    endloop
  endfacet
  facet normal -0.838178 0.0412649 -0.543833
    outer loop
      vertex 10.0524 -1.04749 18.2133
      vertex 9.45875 -0.162882 19.1954
      vertex 9.85303 -0.451515 18.5658
    endloop
  endfacet
  facet normal -0.838187 0.0412575 -0.54382
    outer loop
      vertex 10.0828 -1.24321 18.1516
      vertex 10.0524 -1.04749 18.2133
      vertex 10.0767 -1.12035 18.1702
    endloop
  endfacet
  facet normal -0.838179 0.0412623 -0.543832
    outer loop
      vertex 10.0524 -1.04749 18.2133
      vertex 10.0828 -1.24321 18.1516
      vertex 9.45875 -0.162882 19.1954
    endloop
  endfacet
  facet normal -0.905791 0.0196382 -0.423268
    outer loop
      vertex 10.0828 -1.24321 18.1516
      vertex 10.0806 -1.13337 18.1614
      vertex 10.0971 -1.18976 18.1234
    endloop
  endfacet
  facet normal -0.905828 0.0196306 -0.423191
    outer loop
      vertex 10.0806 -1.13337 18.1614
      vertex 10.0828 -1.24321 18.1516
      vertex 10.0767 -1.12035 18.1702
    endloop
  endfacet
  facet normal -0.654944 0.0522077 -0.753872
    outer loop
      vertex 6.81864 -1.43814 21.8932
      vertex 7.21254 -0.030391 21.6485
      vertex 8.07618 -1.50366 20.7962
    endloop
  endfacet
  facet normal -0.654946 0.0522087 -0.75387
    outer loop
      vertex 7.21254 -0.030391 21.6485
      vertex 6.81864 -1.43814 21.8932
      vertex 6.94804 -0.0166105 21.8793
    endloop
  endfacet
  facet normal -0.518387 0.195655 -0.832462
    outer loop
      vertex 5.52784 -1.42195 22.7008
      vertex 6.81864 -1.43814 21.8932
      vertex 6.48688 -3.2029 21.6851
    endloop
  endfacet
  facet normal -0.518387 0.195661 -0.832461
    outer loop
      vertex 6.81864 -1.43814 21.8932
      vertex 5.52784 -1.42195 22.7008
      vertex 5.55129 -1.26003 22.7243
    endloop
  endfacet
  facet normal -0.493072 0.627428 -0.602673
    outer loop
      vertex 5.33788 -7.38841 19.6596
      vertex 5.05338 -7.88528 19.3751
      vertex 4.58527 -7.86089 19.7834
    endloop
  endfacet
  facet normal -0.419047 0.741072 -0.524606
    outer loop
      vertex 5.05338 -7.88528 19.3751
      vertex 4.71741 -8.31308 19.0391
      vertex 4.58527 -7.86089 19.7834
    endloop
  endfacet
  facet normal -0.753871 0.0522075 -0.654944
    outer loop
      vertex 9.17323 -1.43814 19.5386
      vertex 8.90568 -0.0698548 19.9557
      vertex 9.15996 -0.0877041 19.6616
    endloop
  endfacet
  facet normal -0.753872 0.0522074 -0.654944
    outer loop
      vertex 8.90568 -0.0698548 19.9557
      vertex 9.17323 -1.43814 19.5386
      vertex 8.07618 -1.50366 20.7962
    endloop
  endfacet
  facet normal -0.742505 0.207331 -0.636946
    outer loop
      vertex 9.17323 -1.43814 19.5386
      vertex 8.96505 -3.2029 19.2069
      vertex 8.07618 -1.50366 20.7962
    endloop
  endfacet
  facet normal -0.904614 0.172571 -0.389734
    outer loop
      vertex 10.1335 -1.35838 17.9829
      vertex 10.0828 -1.24321 18.1516
      vertex 10.1093 -1.23111 18.0955
    endloop
  endfacet
  facet normal -0.904605 0.172592 -0.389746
    outer loop
      vertex 10.1164 -1.66578 17.8863
      vertex 10.0828 -1.24321 18.1516
      vertex 10.1335 -1.35838 17.9829
    endloop
  endfacet
  facet normal -0.904606 0.17259 -0.389746
    outer loop
      vertex 9.92235 -2.99773 17.747
      vertex 10.1164 -1.66578 17.8863
      vertex 10.0632 -2.62502 17.5852
    endloop
  endfacet
  facet normal -0.904602 0.172584 -0.389755
    outer loop
      vertex 9.92235 -2.99773 17.747
      vertex 10.0632 -2.62502 17.5852
      vertex 10.0567 -2.6738 17.5787
    endloop
  endfacet
  facet normal -0.904607 0.17259 -0.389743
    outer loop
      vertex 10.1164 -1.66578 17.8863
      vertex 9.92235 -2.99773 17.747
      vertex 10.0828 -1.24321 18.1516
    endloop
  endfacet
  facet normal -0.832463 0.195656 -0.518387
    outer loop
      vertex 10.0828 -1.24321 18.1516
      vertex 9.92235 -2.99773 17.747
      vertex 8.96505 -3.2029 19.2069
    endloop
  endfacet
endsolid OpenSCAD_Model
